<svg xmlns="http://www.w3.org/2000/svg" xmlns:xlink="http://www.w3.org/1999/xlink" xmlns:lucid="lucid" width="718" height="1238"><g transform="translate(-215 -435)" lucid:page-tab-id="0_0"><path d="M251.97 818.9h251.97v63H251.97z" stroke="#5e5e5e" stroke-width="2" fill="#fff"/><use xlink:href="#a" transform="matrix(1,0,0,1,263.9685039370079,830.8976377952753) translate(83.580078125 27.928819444444443)"/><path d="M524.4 870.32h-18.46v-2h18.45m41.53 1.97h-18.45v-2h18.45" fill="#5e5e5e"/><path d="M505.96 870.32h-1.02v-2h1.02M566.93 870.3h-1.03v-2h1.03" fill="#5e5e5e"/><use xlink:href="#b" transform="matrix(1,0,0,1,524.3879320087487,860.1866895133086) translate(0.005000000000000782 14.431423611111112)"/><path d="M565.93 830.5v2l-14.07-.02v-2m-45.92 2v-2H520v2" fill="#5e5e5e"/><path d="M505.96 832.47h-1.02v-2h1.02M566.93 832.5h-1.03v-2h1.03" fill="#5e5e5e"/><use xlink:href="#c" transform="matrix(1,0,0,1,520.0053365226377,822.3690618102094) translate(0 14.431423611111112)"/><path d="M251.97 944.88h251.97v63H251.97z" stroke="#5e5e5e" stroke-width="2" fill="#fff"/><use xlink:href="#d" transform="matrix(1,0,0,1,263.9685039370079,956.8818897637792) translate(83.580078125 27.928819444444443)"/><path d="M524.4 996.3h-18.46v-2h18.45m41.53 1.97l-18.45.02v-2l18.45-.03" fill="#5e5e5e"/><path d="M505.96 996.3h-1.02v-2h1.02M566.93 996.27h-1.03v-2h1.03" fill="#5e5e5e"/><use xlink:href="#b" transform="matrix(1,0,0,1,524.3879320087487,986.1709414818125) translate(0.005000000000000782 14.431423611111112)"/><path d="M565.93 956.48v2h-14.07v-2m-45.92 1.98v-2H520v2" fill="#5e5e5e"/><path d="M505.96 958.46h-1.02v-2h1.02M566.93 958.48h-1.03v-2h1.03" fill="#5e5e5e"/><use xlink:href="#c" transform="matrix(1,0,0,1,520.0053365226377,948.3533137787133) translate(0 14.431423611111112)"/><path d="M251.97 1070.87h251.97v63H251.97z" stroke="#5e5e5e" stroke-width="2" fill="#fff"/><use xlink:href="#e" transform="matrix(1,0,0,1,263.9685039370079,1082.866141732283) translate(83.580078125 27.928819444444443)"/><path d="M524.4 1122.28h-18.46v-2h18.45m41.53 1.97l-18.45.02v-2l18.45-.02" fill="#5e5e5e"/><path d="M505.96 1122.28h-1.02v-2h1.02M566.93 1122.25h-1.03v-2h1.03" fill="#5e5e5e"/><use xlink:href="#b" transform="matrix(1,0,0,1,524.3879320087487,1112.1551934503163) translate(0.005000000000000782 14.431423611111112)"/><path d="M565.93 1082.46v2h-14.07v-2m-45.92 1.98v-2H520v2" fill="#5e5e5e"/><path d="M505.96 1084.44h-1.02v-2h1.02M566.93 1084.46h-1.03v-2h1.03" fill="#5e5e5e"/><use xlink:href="#c" transform="matrix(1,0,0,1,520.0053365226377,1074.3375657472172) translate(0 14.431423611111112)"/><path d="M251.97 1196.85h251.97v63H251.97z" stroke="#5e5e5e" stroke-width="2" fill="#fff"/><use xlink:href="#f" transform="matrix(1,0,0,1,263.9685039370079,1208.8503937007865) translate(83.580078125 27.928819444444443)"/><path d="M524.4 1248.27h-18.46v-2h18.45m41.53 1.97l-18.45.02v-2l18.45-.02" fill="#5e5e5e"/><path d="M505.96 1248.27h-1.02v-2h1.02M566.93 1248.24h-1.03v-2h1.03" fill="#5e5e5e"/><use xlink:href="#b" transform="matrix(1,0,0,1,524.3879320087487,1238.1394454188198) translate(0.005000000000000782 14.431423611111112)"/><path d="M565.93 1208.45v2h-14.07v-2m-45.92 1.97v-2H520v2" fill="#5e5e5e"/><path d="M505.96 1210.42h-1.02v-2h1.02M566.93 1210.45h-1.03v-2h1.03" fill="#5e5e5e"/><use xlink:href="#c" transform="matrix(1,0,0,1,520.0053365226377,1200.3218177157207) translate(0 14.431423611111112)"/><path d="M251.97 1322.83h251.97v63H251.97z" stroke="#5e5e5e" stroke-width="2" fill="#fff"/><use xlink:href="#g" transform="matrix(1,0,0,1,263.9685039370079,1334.83464566929) translate(83.580078125 27.928819444444443)"/><path d="M524.4 1374.25h-18.46v-2h18.45m41.53 1.97l-18.45.02v-2l18.45-.02" fill="#5e5e5e"/><path d="M505.96 1374.25h-1.02v-2h1.02M566.93 1374.22h-1.03v-2h1.03" fill="#5e5e5e"/><use xlink:href="#b" transform="matrix(1,0,0,1,524.3879320087487,1364.123697387323) translate(0.005000000000000782 14.431423611111112)"/><path d="M565.93 1334.43v2h-14.07v-2m-45.92 1.98v-2H520v2" fill="#5e5e5e"/><path d="M505.96 1336.4h-1.02v-2h1.02M566.93 1336.43h-1.03v-2h1.03" fill="#5e5e5e"/><use xlink:href="#c" transform="matrix(1,0,0,1,520.0053365226377,1326.306069684224) translate(0 14.431423611111112)"/><path d="M251.97 1448.82h251.97v63H251.97z" stroke="#5e5e5e" stroke-width="2" fill="#fff"/><use xlink:href="#h" transform="matrix(1,0,0,1,263.9685039370079,1460.8188976377935) translate(83.580078125 27.928819444444443)"/><path d="M524.4 1500.24h-18.46v-2h18.45m41.53 1.97l-18.45.03v-2l18.45-.02" fill="#5e5e5e"/><path d="M505.96 1500.24h-1.02v-2h1.02M566.93 1500.2h-1.03v-2h1.03" fill="#5e5e5e"/><use xlink:href="#b" transform="matrix(1,0,0,1,524.3879320087487,1490.1079493558268) translate(0.005000000000000782 14.431423611111112)"/><path d="M565.93 1460.42v2h-14.07v-2m-45.92 1.97v-2H520v2" fill="#5e5e5e"/><path d="M505.96 1462.4h-1.02v-2h1.02M566.93 1462.42h-1.03v-2h1.03" fill="#5e5e5e"/><use xlink:href="#c" transform="matrix(1,0,0,1,520.0053365226377,1452.2903216527275) translate(0 14.431423611111112)"/><path d="M567.93 1499.2h18.2c3.3 0 6 2.7 6 6v68.6M567.95 1499.2h-1.02M592.13 1573.78v1.02M567.93 1373.23h43.4c3.3 0 6 2.68 6 6v194.57M567.95 1373.23h-1.02M617.32 1573.78v1.02" stroke="#5e5e5e" stroke-width="2" fill="none"/><path d="M567.93 1247.24h68.6c3.3 0 6 2.7 6 6v156.9c0 .2-.18.38-.4.38-.2 0-.37.17-.37.4v161.88M567.95 1247.24h-1.02" stroke="#5e5e5e" stroke-width="2" fill="none"/><path d="M642.76 1573.8h-2v-1.02h2" fill="#5e5e5e"/><path d="M567.93 1121.26h93.8c3.3 0 6 2.7 6 6v446.54M567.95 1121.26h-1.02M667.72 1573.78v1.02" stroke="#5e5e5e" stroke-width="2" fill="none"/><path d="M567.93 995.28H686.9c3.33 0 6 2.68 6 6v572.52M567.95 995.28h-1.02M692.9 1573.78v1.02" stroke="#5e5e5e" stroke-width="2" fill="none"/><path d="M567.93 869.3H712.1c3.32 0 6 2.68 6 6v698.5M567.95 869.3h-1.02M718.1 1573.78v1.02" stroke="#5e5e5e" stroke-width="2" fill="none"/><path d="M819.9 1637.8c-.55 0-1-.45-1-1V467.14c0-.55.45-1 1-1h61c.54 0 1 .45 1 1V1636.8c0 .55-.46 1-1 1z" stroke="#5e5e5e" stroke-width="3" fill="#fff"/><use xlink:href="#i" transform="matrix(6.123233995736766e-17,-1,1,6.123233995736766e-17,823.8976377952756,1632.795275590551) translate(522.4814814814815 31.02777777777778)"/><path d="M567.93 831.5H816.4M566.93 831.5" stroke="#5e5e5e" stroke-width="2" fill="none"/><path d="M817.4 832.5h-1.03v-2h1.03" fill="#5e5e5e"/><path d="M567.93 957.48H816.4M566.93 957.48" stroke="#5e5e5e" stroke-width="2" fill="none"/><path d="M817.4 958.48h-1.03v-2h1.03" fill="#5e5e5e"/><path d="M567.93 1083.46H816.4M567.95 1083.46h-1.02" stroke="#5e5e5e" stroke-width="2" fill="none"/><path d="M817.4 1084.46h-1.03v-2h1.03" fill="#5e5e5e"/><path d="M567.93 1209.45H816.4M567.95 1209.45h-1.02" stroke="#5e5e5e" stroke-width="2" fill="none"/><path d="M817.4 1210.45h-1.03v-2h1.03" fill="#5e5e5e"/><path d="M567.93 1335.43H816.4M567.95 1335.43h-1.02" stroke="#5e5e5e" stroke-width="2" fill="none"/><path d="M817.4 1336.43h-1.03v-2h1.03" fill="#5e5e5e"/><path d="M567.93 1461.42H816.4M567.95 1461.42h-1.02" stroke="#5e5e5e" stroke-width="2" fill="none"/><path d="M817.4 1462.42h-1.03v-2h1.03" fill="#5e5e5e"/><path d="M566.93 1574.8H743.3v63H566.94z" stroke="#5e5e5e" stroke-width="2" fill="#fff"/><use xlink:href="#j" transform="matrix(1,0,0,1,578.9291338582677,1586.8031496062986) translate(31.530864197530867 25.09027777777778)"/><use xlink:href="#k" transform="matrix(1,0,0,1,578.9291338582677,1586.8031496062986) translate(72.20987654320987 25.09027777777778)"/><path d="M767.66 1607.3H745.3v-2h22.36m48.74.95h-22.35v-2h22.35" fill="#5e5e5e"/><path d="M745.33 1607.3h-1.02v-2h1.03M817.4 1606.25h-1.03v-2h1.03" fill="#5e5e5e"/><use xlink:href="#l" transform="matrix(1,0,0,1,767.6579178823271,1595.357611548556) translate(0 16.493055555555557)"/><path d="M403.15 566.93h50.4v50.4h-50.4zM403.15 642.52h50.4v50.4h-50.4zM403.15 491.34h50.4v50.4h-50.4z" stroke="#5e5e5e" stroke-width="2" fill="#fff"/><path d="M265.98 648.52c0-3.3 2.7-6 6-6h114c3.3 0 6 2.7 6 6v38.4c0 3.3-2.7 6-6 6h-114c-3.3 0-6-2.7-6-6z" stroke="#000" stroke-opacity="0" stroke-width="3" fill="#fff" fill-opacity="0"/><use xlink:href="#m" transform="matrix(1,0,0,1,270.98425196850394,647.5196850393701) translate(74.57204861111111 28.303819444444443)"/><path d="M264.57 572.93c0-3.3 2.68-6 6-6h113.98c3.3 0 6 2.7 6 6v38.4c0 3.3-2.7 6-6 6H270.57c-3.32 0-6-2.7-6-6z" stroke="#000" stroke-opacity="0" stroke-width="3" fill="#fff" fill-opacity="0"/><use xlink:href="#n" transform="matrix(1,0,0,1,269.56692913385825,571.9291338582676) translate(60.6506076388889 28.303819444444443)"/><path d="M264.57 497.34c0-3.32 2.68-6 6-6h113.98c3.3 0 6 2.68 6 6v38.4c0 3.3-2.7 6-6 6H270.57c-3.32 0-6-2.7-6-6z" stroke="#000" stroke-opacity="0" stroke-width="3" fill="#fff" fill-opacity="0"/><use xlink:href="#o" transform="matrix(1,0,0,1,269.56692913385825,496.33858267716494) translate(26.069444444444443 28.303819444444443)"/><use xlink:href="#p" transform="matrix(1,0,0,1,269.56692913385825,496.33858267716494) translate(94.11414930555556 28.303819444444443)"/><path d="M455.54 516.54H816.4" stroke="#5e5e5e" stroke-width="2" fill="none"/><path d="M455.57 517.54h-1.03v-2h1.03M817.4 517.54h-1.03v-2h1.03" fill="#5e5e5e"/><path d="M455.54 592.13H816.4" stroke="#5e5e5e" stroke-width="2" fill="none"/><path d="M455.57 593.13h-1.03v-2h1.03M817.4 593.13h-1.03v-2h1.03" fill="#5e5e5e"/><path d="M455.54 667.72H816.4" stroke="#5e5e5e" stroke-width="2" fill="none"/><path d="M455.57 668.72h-1.03v-2h1.03M817.4 668.72h-1.03v-2h1.03" fill="#5e5e5e"/><path d="M382.37 722.7h88.6v47.4h-88.6z" fill="none"/><path d="M382.37 755.9h26.58c0 3.83 1.98 6.3 4.43 6.3 2.44 0 4.43-2.47 4.43-5.52 0-3.05-1.98-5.53-4.42-5.53-2.45 0-4.43 2.48-4.43 5.53m8.86-.8l23.93-18.95m2.65 18.96c0 3.83 2 6.3 4.43 6.3 2.46 0 4.44-2.47 4.44-5.52 0-3.05-1.98-5.53-4.43-5.53-2.43 0-4.42 2.48-4.42 5.53m8.86-.8h17.72" stroke="#5e5e5e" stroke-width="2" fill="#fff"/><path d="M471.96 755.9H816.4" stroke="#5e5e5e" stroke-width="2" fill="none"/><path d="M472 756.9h-4.04 3v-2H472M817.4 756.9h-1.03v-2h1.03" fill="#5e5e5e"/><path d="M251.97 730.86c0-3.3 2.68-6 6-6h113.98c3.32 0 6 2.7 6 6v50.1c0 3.3-2.68 6-6 6H257.97c-3.32 0-6-2.7-6-6z" stroke="#000" stroke-opacity="0" stroke-width="3" fill="#fff" fill-opacity="0"/><g><use xlink:href="#q" transform="matrix(1,0,0,1,256.9685039370079,729.8638451443567) translate(60.55295138888889 20.616319444444443)"/><use xlink:href="#r" transform="matrix(1,0,0,1,256.9685039370079,729.8638451443567) translate(25.776475694444443 46.65798611111111)"/></g><defs><path fill="#333" d="M688-137c238 0 323-102 359-325h193c-32 297-228 482-552 482-361 0-569-299-569-680 0-197 8-360 73-497 88-186 257-317 513-319 316-2 509 195 535 488h-193c-31-212-118-330-342-330-272 0-397 224-393 523v141c-3 282 115 517 376 517" id="s"/><path fill="#333" d="M973-380H363L226 0H28l556-1456h168L1309 0h-197zM421-538h495l-248-681" id="t"/><path fill="#333" d="M417-1456L893-268l476-1188h249V0h-192c-4-403 4-794 18-1179L966 0H819L342-1176c15 384 23 773 19 1176H169v-1456h248" id="u"/><path fill="#333" d="M574-1476c351 0 454 237 460 615v240c0 217-37 378-111 483S733 20 576 20c-346 0-454-246-461-616v-247c0-214 37-373 111-477s190-156 348-156zm275 905c0-337 59-752-275-753-95 0-160 38-207 107-80 118-66 409-67 625 0 157 22 273 68 348s115 113 208 113c91 0 160-35 204-106s69-182 69-334" id="v"/><g id="a"><use transform="matrix(0.010850694444444444,0,0,0.010850694444444444,0,0)" xlink:href="#s"/><use transform="matrix(0.010850694444444444,0,0,0.010850694444444444,14.463975694444445,0)" xlink:href="#t"/><use transform="matrix(0.010850694444444444,0,0,0.010850694444444444,28.96050347222222,0)" xlink:href="#u"/><use transform="matrix(0.010850694444444444,0,0,0.010850694444444444,48.361545138888886,0)" xlink:href="#v"/></g><path fill="#333" d="M375 0H183v-1456h192V0" id="w"/><path fill="#333" d="M569-1476c255 0 440 146 439 390 0 143-91 314-274 512L344-151h731V0H121v-133l504-560c75-85 125-155 155-207 105-184 6-424-211-424-183 0-293 113-291 297H93c-3-270 199-449 476-449" id="x"/><g id="b"><use transform="matrix(0.007595486111111112,0,0,0.007595486111111112,0,0)" xlink:href="#w"/><use transform="matrix(0.007595486111111112,0,0,0.007595486111111112,4.230685763888889,0)" xlink:href="#x"/><use transform="matrix(0.007595486111111112,0,0,0.007595486111111112,12.965494791666668,0)" xlink:href="#s"/></g><path fill="#333" d="M1216-1011c-1 297-202 441-512 441H361V0H169v-1456h537c297-6 510 164 510 445zm-192 2c1-178-126-288-307-289H361v571h345c196 1 318-92 318-282" id="y"/><g id="c"><use transform="matrix(0.007595486111111112,0,0,0.007595486111111112,0,0)" xlink:href="#u"/><use transform="matrix(0.007595486111111112,0,0,0.007595486111111112,13.580729166666668,0)" xlink:href="#w"/><use transform="matrix(0.007595486111111112,0,0,0.007595486111111112,17.811414930555557,0)" xlink:href="#y"/><use transform="matrix(0.007595486111111112,0,0,0.007595486111111112,27.624782986111114,0)" xlink:href="#w"/></g><path fill="#333" d="M729 0H543v-1233l-373 137v-168l530-199h29V0" id="z"/><g id="d"><use transform="matrix(0.010850694444444444,0,0,0.010850694444444444,0,0)" xlink:href="#s"/><use transform="matrix(0.010850694444444444,0,0,0.010850694444444444,14.463975694444445,0)" xlink:href="#t"/><use transform="matrix(0.010850694444444444,0,0,0.010850694444444444,28.96050347222222,0)" xlink:href="#u"/><use transform="matrix(0.010850694444444444,0,0,0.010850694444444444,48.361545138888886,0)" xlink:href="#z"/></g><g id="e"><use transform="matrix(0.010850694444444444,0,0,0.010850694444444444,0,0)" xlink:href="#s"/><use transform="matrix(0.010850694444444444,0,0,0.010850694444444444,14.463975694444445,0)" xlink:href="#t"/><use transform="matrix(0.010850694444444444,0,0,0.010850694444444444,28.96050347222222,0)" xlink:href="#u"/><use transform="matrix(0.010850694444444444,0,0,0.010850694444444444,48.361545138888886,0)" xlink:href="#x"/></g><path fill="#333" d="M832-402c-1-179-119-264-303-265H390v-151h139c164 0 281-91 281-250 0-171-85-256-255-256-154 0-265 99-263 250H107c-4-235 205-402 448-402 266 0 444 150 440 412-2 148-109 272-229 317 147 45 249 158 251 341 3 262-197 426-461 426C299 20 91-135 94-384h186c-2 156 116 253 276 253 176 0 277-96 276-271" id="A"/><g id="f"><use transform="matrix(0.010850694444444444,0,0,0.010850694444444444,0,0)" xlink:href="#s"/><use transform="matrix(0.010850694444444444,0,0,0.010850694444444444,14.463975694444445,0)" xlink:href="#t"/><use transform="matrix(0.010850694444444444,0,0,0.010850694444444444,28.96050347222222,0)" xlink:href="#u"/><use transform="matrix(0.010850694444444444,0,0,0.010850694444444444,48.361545138888886,0)" xlink:href="#A"/></g><path fill="#333" d="M902-489h202v151H902V0H716v-338H53v-109l652-1009h197v967zm-639 0h453v-714l-22 40" id="B"/><g id="g"><use transform="matrix(0.010850694444444444,0,0,0.010850694444444444,0,0)" xlink:href="#s"/><use transform="matrix(0.010850694444444444,0,0,0.010850694444444444,14.463975694444445,0)" xlink:href="#t"/><use transform="matrix(0.010850694444444444,0,0,0.010850694444444444,28.96050347222222,0)" xlink:href="#u"/><use transform="matrix(0.010850694444444444,0,0,0.010850694444444444,48.361545138888886,0)" xlink:href="#B"/></g><path fill="#333" d="M884-462c0-185-111-323-291-323-113 0-183 39-239 93l-148-38 74-726h746v171H437l-44 397c71-42 152-63 243-63 273-2 433 205 433 487 0 293-170 484-461 484-260 0-436-159-454-403h175c20 156 111 252 279 252 182 0 276-140 276-331" id="C"/><g id="h"><use transform="matrix(0.010850694444444444,0,0,0.010850694444444444,0,0)" xlink:href="#s"/><use transform="matrix(0.010850694444444444,0,0,0.010850694444444444,14.463975694444445,0)" xlink:href="#t"/><use transform="matrix(0.010850694444444444,0,0,0.010850694444444444,28.96050347222222,0)" xlink:href="#u"/><use transform="matrix(0.010850694444444444,0,0,0.010850694444444444,48.361545138888886,0)" xlink:href="#C"/></g><path fill="#333" d="M240 0l2-218c-23 76-54 145-80 218h-23L58-218 59 0H30v-248h44l77 211c21-75 51-140 76-211h43V0h-30" id="D"/><path fill="#333" d="M140-251c81 0 123 46 123 126C263-46 219 4 140 4 59 4 17-45 17-125s42-126 123-126zm0 227c63 0 89-41 89-101s-29-99-89-99c-61 0-89 39-89 99S79-25 140-24" id="E"/><path fill="#333" d="M30-248c118-7 216 8 213 122C240-48 200 0 122 0H30v-248zM63-27c89 8 146-16 146-99s-60-101-146-95v194" id="F"/><path fill="#333" d="M232-93c-1 65-40 97-104 97C67 4 28-28 28-90v-158h33c8 89-33 224 67 224 102 0 64-133 71-224h33v155" id="G"/><path fill="#333" d="M30 0v-248h33v221h125V0H30" id="H"/><path fill="#333" d="M30 0v-248h187v28H63v79h144v27H63v87h162V0H30" id="I"/><path fill="#333" d="M16-82v-28h88v28H16" id="J"/><path fill="#333" d="M195 0l-74-108L45 0H8l94-129-87-119h37l69 98 67-98h37l-84 118L233 0h-38" id="K"/><g id="i"><use transform="matrix(0.06172839506172839,0,0,0.06172839506172839,0,0)" xlink:href="#D"/><use transform="matrix(0.06172839506172839,0,0,0.06172839506172839,18.456790123456788,0)" xlink:href="#E"/><use transform="matrix(0.06172839506172839,0,0,0.06172839506172839,35.74074074074073,0)" xlink:href="#F"/><use transform="matrix(0.06172839506172839,0,0,0.06172839506172839,51.728395061728385,0)" xlink:href="#G"/><use transform="matrix(0.06172839506172839,0,0,0.06172839506172839,67.71604938271604,0)" xlink:href="#H"/><use transform="matrix(0.06172839506172839,0,0,0.06172839506172839,80.06172839506172,0)" xlink:href="#I"/><use transform="matrix(0.06172839506172839,0,0,0.06172839506172839,94.87654320987653,0)" xlink:href="#J"/><use transform="matrix(0.06172839506172839,0,0,0.06172839506172839,102.22222222222221,0)" xlink:href="#K"/></g><path fill="#333" d="M33 0v-248h34V0H33" id="L"/><path fill="#333" d="M101-251c82-7 93 87 43 132L82-64C71-53 59-42 53-27h129V0H18c2-99 128-94 128-182 0-28-16-43-45-43s-46 15-49 41l-32-3c6-41 34-60 81-64" id="M"/><path fill="#333" d="M212-179c-10-28-35-45-73-45-59 0-87 40-87 99 0 60 29 101 89 101 43 0 62-24 78-52l27 14C228-24 195 4 139 4 59 4 22-46 18-125c-6-104 99-153 187-111 19 9 31 26 39 46" id="N"/><g id="j"><use transform="matrix(0.06172839506172839,0,0,0.06172839506172839,0,0)" xlink:href="#L"/><use transform="matrix(0.06172839506172839,0,0,0.06172839506172839,6.172839506172839,0)" xlink:href="#M"/><use transform="matrix(0.06172839506172839,0,0,0.06172839506172839,18.51851851851852,0)" xlink:href="#N"/></g><g id="k"><use transform="matrix(0.06172839506172839,0,0,0.06172839506172839,0,0)" xlink:href="#D"/><use transform="matrix(0.06172839506172839,0,0,0.06172839506172839,18.456790123456788,0)" xlink:href="#G"/><use transform="matrix(0.06172839506172839,0,0,0.06172839506172839,34.44444444444444,0)" xlink:href="#K"/></g><g id="l"><use transform="matrix(0.008680555555555556,0,0,0.008680555555555556,0,0)" xlink:href="#w"/><use transform="matrix(0.008680555555555556,0,0,0.008680555555555556,4.835069444444445,0)" xlink:href="#x"/><use transform="matrix(0.008680555555555556,0,0,0.008680555555555556,14.817708333333334,0)" xlink:href="#s"/></g><path fill="#333" d="M665-137c214 0 337-121 336-332v-987h193v990c-3 300-218 486-529 486-309 0-526-181-525-484v-992h190v986c-1 210 123 333 335 333" id="O"/><path fill="#333" d="M631-137c179 0 314-70 314-231 0-71-25-127-75-166s-141-77-272-115c-165-47-285-106-360-175s-112-154-112-255c0-245 231-397 495-397 206 0 369 89 449 218 43 68 65 142 65 223H942c0-184-129-283-321-283-172 0-299 76-301 236 0 59 26 109 76 150s135 78 256 113c205 59 345 116 436 256 35 53 50 119 50 193-2 256-231 398-507 390C333 12 90-129 80-422h193c0 187 160 285 358 285" id="P"/><path fill="#333" d="M1160-420C1159-145 963 0 674 0H169v-1456h476c294-1 476 112 476 388 0 153-99 253-216 302 146 38 255 167 255 346zM678-157c171 2 289-95 289-261 0-175-95-263-286-263H361v524h317zm250-912c-2-172-104-229-283-229H361v463h290c157 3 278-84 277-234" id="Q"/><g id="m"><use transform="matrix(0.010850694444444444,0,0,0.010850694444444444,0,0)" xlink:href="#O"/><use transform="matrix(0.010850694444444444,0,0,0.010850694444444444,14.409722222222221,0)" xlink:href="#P"/><use transform="matrix(0.010850694444444444,0,0,0.010850694444444444,27.59331597222222,0)" xlink:href="#Q"/></g><path fill="#333" d="M599-131c141 0 220-65 285-146l113 88C906-50 770 20 589 20 281 21 93-214 93-545c0-223 93-397 233-485 74-48 154-72 240-72 300 2 449 218 445 537v77H278c0 197 129 357 321 357zm227-509c-3-180-88-310-260-310-170 0-264 140-282 310h542" id="R"/><path fill="#333" d="M663-916c-163-27-288 18-338 148V0H140v-1082h180l3 125c61-97 147-145 258-145 36 0 63 5 82 14v172" id="S"/><path fill="#333" d="M341 0H156v-1082h185V0zm-91-1264c-68 0-108-42-109-105 0-62 41-107 109-107s110 44 110 107-42 105-110 105" id="T"/><path fill="#333" d="M561-1102c238-4 403 126 403 351v498c0 99 13 178 38 237V0H808c-11-21-19-59-26-114C696-25 593 20 474 20c-199 0-368-130-365-320 4-251 214-359 490-356h180v-85c-1-135-86-212-229-212-115 0-232 67-233 171H131c20-205 206-316 430-320zM294-326c0 117 90 185 207 185 122 0 239-75 278-162v-222H634c-227 0-340 66-340 199" id="U"/><path fill="#333" d="M341 0H156v-1536h185V0" id="V"/><g id="n"><use transform="matrix(0.010850694444444444,0,0,0.010850694444444444,0,0)" xlink:href="#P"/><use transform="matrix(0.010850694444444444,0,0,0.010850694444444444,13.18359375,0)" xlink:href="#R"/><use transform="matrix(0.010850694444444444,0,0,0.010850694444444444,24.95659722222222,0)" xlink:href="#S"/><use transform="matrix(0.010850694444444444,0,0,0.010850694444444444,32.47612847222222,0)" xlink:href="#T"/><use transform="matrix(0.010850694444444444,0,0,0.010850694444444444,37.86892361111111,0)" xlink:href="#U"/><use transform="matrix(0.010850694444444444,0,0,0.010850694444444444,49.95659722222221,0)" xlink:href="#V"/></g><path fill="#333" d="M584 20C278 26 81-227 91-551c10-320 175-545 491-551 308-5 503 247 494 573-9 322-175 543-492 549zm-2-970c-208 0-305 185-305 421 0 216 106 398 307 398 211 0 307-186 307-420 0-214-109-399-309-399" id="W"/><path fill="#333" d="M1098-255l208-827h185L1176 0h-150L763-820 507 0H357L43-1082h184l213 810 252-810h149" id="X"/><g id="o"><use transform="matrix(0.010850694444444444,0,0,0.010850694444444444,0,0)" xlink:href="#y"/><use transform="matrix(0.010850694444444444,0,0,0.010850694444444444,13.878038194444445,0)" xlink:href="#W"/><use transform="matrix(0.010850694444444444,0,0,0.010850694444444444,26.551649305555554,0)" xlink:href="#X"/><use transform="matrix(0.010850694444444444,0,0,0.010850694444444444,43.25086805555556,0)" xlink:href="#R"/><use transform="matrix(0.010850694444444444,0,0,0.010850694444444444,55.02387152777778,0)" xlink:href="#S"/></g><path fill="#333" d="M1288 0h-193L362-1122V0H169v-1456h193l735 1127v-1127h191V0" id="Y"/><g id="p"><use transform="matrix(0.010850694444444444,0,0,0.010850694444444444,0,0)" xlink:href="#w"/><use transform="matrix(0.010850694444444444,0,0,0.010850694444444444,6.043836805555555,0)" xlink:href="#Y"/></g><path fill="#333" d="M972-643H361V0H169v-1456h902v158H361v498h611v157" id="Z"/><path fill="#333" d="M277-555c0 244 77 420 297 424 127 2 249-93 255-210h175C980-127 805 20 574 20 258 20 81-222 92-562c11-319 164-533 481-540 237-5 426 165 431 392H829c-7-133-115-242-256-240-209 4-296 166-296 395" id="aa"/><g id="q"><use transform="matrix(0.010850694444444444,0,0,0.010850694444444444,0,0)" xlink:href="#Z"/><use transform="matrix(0.010850694444444444,0,0,0.010850694444444444,12.055121527777777,0)" xlink:href="#W"/><use transform="matrix(0.010850694444444444,0,0,0.010850694444444444,24.72873263888889,0)" xlink:href="#S"/><use transform="matrix(0.010850694444444444,0,0,0.010850694444444444,32.04210069444444,0)" xlink:href="#aa"/><use transform="matrix(0.010850694444444444,0,0,0.010850694444444444,43.674045138888886,0)" xlink:href="#R"/></g><path fill="#333" d="M1161-1018c0 201-122 330-278 388l342 618V0h-206L703-589H361V0H168v-1456h482c310-2 511 139 511 438zm-193 0c0-187-120-280-313-280H361v552h295c179 3 313-101 312-272" id="ab"/><path fill="#333" d="M497-251l268-831h189L566 0H425L33-1082h189" id="ac"/><path fill="#333" d="M494-271l252-811h198L509 167C425 381 299 474 84 421V271c167 16 242-37 283-173l41-110L22-1082h202" id="ad"/><g id="r"><use transform="matrix(0.010850694444444444,0,0,0.010850694444444444,0,0)" xlink:href="#ab"/><use transform="matrix(0.010850694444444444,0,0,0.010850694444444444,13.682725694444445,0)" xlink:href="#R"/><use transform="matrix(0.010850694444444444,0,0,0.010850694444444444,25.455729166666664,0)" xlink:href="#aa"/><use transform="matrix(0.010850694444444444,0,0,0.010850694444444444,37.08767361111111,0)" xlink:href="#W"/><use transform="matrix(0.010850694444444444,0,0,0.010850694444444444,49.59852430555556,0)" xlink:href="#ac"/><use transform="matrix(0.010850694444444444,0,0,0.010850694444444444,60.22135416666667,0)" xlink:href="#R"/><use transform="matrix(0.010850694444444444,0,0,0.010850694444444444,71.99435763888889,0)" xlink:href="#S"/><use transform="matrix(0.010850694444444444,0,0,0.010850694444444444,79.70920138888889,0)" xlink:href="#ad"/></g></defs></g></svg>