<svg id="Layer_1" data-name="Layer 1" xmlns="http://www.w3.org/2000/svg" xmlns:xlink="http://www.w3.org/1999/xlink" viewBox="0 0 234.88 344.28"><defs><style>.cls-1,.cls-3,.cls-4{fill:none;}.cls-2{clip-path:url(#clip-path);}.cls-3{stroke:#000;stroke-linecap:round;stroke-linejoin:round;}.cls-4{stroke:#010101;stroke-miterlimit:10;}.cls-5,.cls-6,.cls-7{fill:#010101;}.cls-6,.cls-7{font-size:12px;}.cls-6{font-family:ArialMT, Arial;}.cls-7{font-family:MyriadPro-Regular, Myriad Pro;}.cls-8{letter-spacing:-0.01em;}.cls-9{letter-spacing:0.01em;}.cls-10{letter-spacing:0.01em;}.cls-11{letter-spacing:0em;}.cls-12{letter-spacing:0em;}.cls-13{letter-spacing:0em;}.cls-14{letter-spacing:0em;}</style><clipPath id="clip-path"><polyline class="cls-1" points="51.85 344.28 201.07 344.28 201.07 0 51.85 0 51.85 344.28"/></clipPath></defs><g class="cls-2"><path class="cls-3" d="M116.83,200.67a2.79,2.79,0,0,0,3.51,2.69"/><line class="cls-3" x1="120.31" y1="203.4" x2="130.39" y2="200.7"/><path class="cls-3" d="M130.42,200.6a2.78,2.78,0,0,0,2.07-2.69"/><line class="cls-3" x1="132.49" y1="197.94" x2="132.49" y2="78.24"/><path class="cls-3" d="M132.49,78.21a2.78,2.78,0,0,0-2.07-2.69"/><line class="cls-3" x1="130.39" y1="75.48" x2="120.31" y2="72.78"/><path class="cls-3" d="M120.34,72.82a2.79,2.79,0,0,0-3.51,2.69"/><line class="cls-3" x1="116.77" y1="75.54" x2="116.77" y2="200.7"/><polyline class="cls-3" points="123.01 77.04 118.99 77.04 118.99 80.34 123.01 80.34 123.01 77.04"/><polyline class="cls-3" points="123.01 80.64 118.99 80.64 118.99 83.94 123.01 83.94 123.01 80.64"/><polyline class="cls-3" points="123.01 84.24 118.99 84.24 118.99 87.54 123.01 87.54 123.01 84.24"/><polyline class="cls-3" points="123.01 87.84 118.99 87.84 118.99 91.14 123.01 91.14 123.01 87.84"/><polyline class="cls-3" points="123.01 91.44 118.99 91.44 118.99 94.74 123.01 94.74 123.01 91.44"/><polyline class="cls-3" points="123.01 95.04 118.99 95.04 118.99 98.34 123.01 98.34 123.01 95.04"/><polyline class="cls-3" points="123.01 98.64 118.99 98.64 118.99 101.94 123.01 101.94 123.01 98.64"/><polyline class="cls-3" points="123.01 102.24 118.99 102.24 118.99 105.54 123.01 105.54 123.01 102.24"/><polyline class="cls-3" points="123.01 105.84 118.99 105.84 118.99 109.14 123.01 109.14 123.01 105.84"/><polyline class="cls-3" points="123.01 109.44 118.99 109.44 118.99 112.74 123.01 112.74 123.01 109.44"/><polyline class="cls-3" points="123.01 113.04 118.99 113.04 118.99 116.34 123.01 116.34 123.01 113.04"/><polyline class="cls-3" points="123.01 116.64 118.99 116.64 118.99 119.94 123.01 119.94 123.01 116.64"/><polyline class="cls-3" points="123.01 120.24 118.99 120.24 118.99 123.54 123.01 123.54 123.01 120.24"/><polyline class="cls-3" points="123.01 123.84 118.99 123.84 118.99 127.14 123.01 127.14 123.01 123.84"/><polyline class="cls-3" points="123.01 127.44 118.99 127.44 118.99 130.74 123.01 130.74 123.01 127.44"/><polyline class="cls-3" points="123.01 131.04 118.99 131.04 118.99 134.34 123.01 134.34 123.01 131.04"/><polyline class="cls-3" points="123.01 134.64 118.99 134.64 118.99 137.94 123.01 137.94 123.01 134.64"/><polyline class="cls-3" points="123.01 138.24 118.99 138.24 118.99 141.54 123.01 141.54 123.01 138.24"/><polyline class="cls-3" points="123.01 141.84 118.99 141.84 118.99 145.14 123.01 145.14 123.01 141.84"/><polyline class="cls-3" points="123.01 145.44 118.99 145.44 118.99 148.74 123.01 148.74 123.01 145.44"/><polyline class="cls-3" points="123.01 149.04 118.99 149.04 118.99 152.34 123.01 152.34 123.01 149.04"/><polyline class="cls-3" points="123.01 152.64 118.99 152.64 118.99 156 123.01 156 123.01 152.64"/><polyline class="cls-3" points="123.01 156.24 118.99 156.24 118.99 159.6 123.01 159.6 123.01 156.24"/><polyline class="cls-3" points="123.01 159.84 118.99 159.84 118.99 163.2 123.01 163.2 123.01 159.84"/><polyline class="cls-3" points="123.01 163.44 118.99 163.44 118.99 166.8 123.01 166.8 123.01 163.44"/><polyline class="cls-3" points="123.01 167.04 118.99 167.04 118.99 170.4 123.01 170.4 123.01 167.04"/><polyline class="cls-3" points="123.01 170.64 118.99 170.64 118.99 174 123.01 174 123.01 170.64"/><polyline class="cls-3" points="123.01 174.24 118.99 174.24 118.99 177.6 123.01 177.6 123.01 174.24"/><polyline class="cls-3" points="123.01 177.84 118.99 177.84 118.99 181.2 123.01 181.2 123.01 177.84"/><polyline class="cls-3" points="123.01 181.44 118.99 181.44 118.99 184.8 123.01 184.8 123.01 181.44"/><polyline class="cls-3" points="123.01 185.04 118.99 185.04 118.99 188.4 123.01 188.4 123.01 185.04"/><polyline class="cls-3" points="123.01 188.64 118.99 188.64 118.99 192 123.01 192 123.01 188.64"/><polyline class="cls-3" points="123.01 192.24 118.99 192.24 118.99 195.6 123.01 195.6 123.01 192.24"/><polyline class="cls-3" points="123.01 195.84 118.99 195.84 118.99 199.2 123.01 199.2 123.01 195.84"/><polyline class="cls-3" points="130.21 77.04 126.19 77.04 126.19 80.34 130.21 80.34 130.21 77.04"/><polyline class="cls-3" points="130.21 80.64 126.19 80.64 126.19 83.94 130.21 83.94 130.21 80.64"/><polyline class="cls-3" points="130.21 84.24 126.19 84.24 126.19 87.54 130.21 87.54 130.21 84.24"/><polyline class="cls-3" points="130.21 87.84 126.19 87.84 126.19 91.14 130.21 91.14 130.21 87.84"/><polyline class="cls-3" points="130.21 91.44 126.19 91.44 126.19 94.74 130.21 94.74 130.21 91.44"/><polyline class="cls-3" points="130.21 95.04 126.19 95.04 126.19 98.34 130.21 98.34 130.21 95.04"/><polyline class="cls-3" points="130.21 98.64 126.19 98.64 126.19 101.94 130.21 101.94 130.21 98.64"/><polyline class="cls-3" points="130.21 102.24 126.19 102.24 126.19 105.54 130.21 105.54 130.21 102.24"/><polyline class="cls-3" points="130.21 105.84 126.19 105.84 126.19 109.14 130.21 109.14 130.21 105.84"/><polyline class="cls-3" points="130.21 109.44 126.19 109.44 126.19 112.74 130.21 112.74 130.21 109.44"/><polyline class="cls-3" points="130.21 113.04 126.19 113.04 126.19 116.34 130.21 116.34 130.21 113.04"/><polyline class="cls-3" points="130.21 116.64 126.19 116.64 126.19 119.94 130.21 119.94 130.21 116.64"/><polyline class="cls-3" points="130.21 120.24 126.19 120.24 126.19 123.54 130.21 123.54 130.21 120.24"/><polyline class="cls-3" points="130.21 123.84 126.19 123.84 126.19 127.14 130.21 127.14 130.21 123.84"/><polyline class="cls-3" points="130.21 127.44 126.19 127.44 126.19 130.74 130.21 130.74 130.21 127.44"/><polyline class="cls-3" points="130.21 131.04 126.19 131.04 126.19 134.34 130.21 134.34 130.21 131.04"/><polyline class="cls-3" points="130.21 134.64 126.19 134.64 126.19 137.94 130.21 137.94 130.21 134.64"/><polyline class="cls-3" points="130.21 138.24 126.19 138.24 126.19 141.54 130.21 141.54 130.21 138.24"/><polyline class="cls-3" points="130.21 141.84 126.19 141.84 126.19 145.14 130.21 145.14 130.21 141.84"/><polyline class="cls-3" points="130.21 145.44 126.19 145.44 126.19 148.74 130.21 148.74 130.21 145.44"/><polyline class="cls-3" points="130.21 149.04 126.19 149.04 126.19 152.34 130.21 152.34 130.21 149.04"/><polyline class="cls-3" points="130.21 152.64 126.19 152.64 126.19 156 130.21 156 130.21 152.64"/><polyline class="cls-3" points="130.21 156.24 126.19 156.24 126.19 159.6 130.21 159.6 130.21 156.24"/><polyline class="cls-3" points="130.21 159.84 126.19 159.84 126.19 163.2 130.21 163.2 130.21 159.84"/><polyline class="cls-3" points="130.21 163.44 126.19 163.44 126.19 166.8 130.21 166.8 130.21 163.44"/><polyline class="cls-3" points="130.21 167.04 126.19 167.04 126.19 170.4 130.21 170.4 130.21 167.04"/><polyline class="cls-3" points="130.21 170.64 126.19 170.64 126.19 174 130.21 174 130.21 170.64"/><polyline class="cls-3" points="130.21 174.24 126.19 174.24 126.19 177.6 130.21 177.6 130.21 174.24"/><polyline class="cls-3" points="130.21 177.84 126.19 177.84 126.19 181.2 130.21 181.2 130.21 177.84"/><polyline class="cls-3" points="130.21 181.44 126.19 181.44 126.19 184.8 130.21 184.8 130.21 181.44"/><polyline class="cls-3" points="130.21 185.04 126.19 185.04 126.19 188.4 130.21 188.4 130.21 185.04"/><polyline class="cls-3" points="130.21 188.64 126.19 188.64 126.19 192 130.21 192 130.21 188.64"/><polyline class="cls-3" points="130.21 192.24 126.19 192.24 126.19 195.6 130.21 195.6 130.21 192.24"/><polyline class="cls-3" points="130.21 195.84 126.19 195.84 126.19 199.2 130.21 199.2 130.21 195.84"/><path class="cls-3" d="M122.11,56a2.55,2.55,0,1,0,2.55-2.55A2.55,2.55,0,0,0,122.11,56"/><path class="cls-3" d="M122.11,220.17a2.55,2.55,0,1,0,2.55-2.55,2.55,2.55,0,0,0-2.55,2.55"/><polyline class="cls-3" points="114.73 207.6 114.73 211.38 114.73 214.26"/><polyline class="cls-3" points="114.73 61.92 114.73 64.8 114.73 68.58"/><polyline class="cls-3" points="114.73 207.6 134.53 207.6 134.53 211.38 134.53 214.26"/><polyline class="cls-3" points="134.53 61.92 134.53 64.8 134.53 68.58"/><polyline class="cls-3" points="129.61 211.38 119.59 211.38 119.59 214.26"/><line class="cls-3" x1="114.73" y1="211.38" x2="119.59" y2="211.38"/><line class="cls-3" x1="114.73" y1="214.26" x2="119.59" y2="214.26"/><polyline class="cls-3" points="134.53 211.38 129.61 211.38 129.61 214.26 134.53 214.26"/><line class="cls-3" x1="114.73" y1="68.58" x2="134.53" y2="68.58"/><polyline class="cls-3" points="134.53 64.8 129.61 64.8 119.59 64.8 114.73 64.8"/><polyline class="cls-3" points="134.53 61.92 129.61 61.92 129.61 64.8"/><polyline class="cls-3" points="114.73 61.92 119.59 61.92 119.59 64.8"/><polyline class="cls-3" points="118.99 80.34 119.89 80.1 122.17 80.1 123.01 80.34"/><polyline class="cls-3" points="118.99 77.04 119.89 77.28 119.89 80.1"/><polyline class="cls-3" points="123.01 77.04 122.17 77.28 119.89 77.28"/><line class="cls-3" x1="122.17" y1="80.1" x2="122.17" y2="77.28"/><polyline class="cls-3" points="118.99 83.94 119.89 83.7 122.17 83.7 123.01 83.94"/><polyline class="cls-3" points="118.99 80.64 119.89 80.88 119.89 83.7"/><polyline class="cls-3" points="123.01 80.64 122.17 80.88 119.89 80.88"/><line class="cls-3" x1="122.17" y1="83.7" x2="122.17" y2="80.88"/><polyline class="cls-3" points="118.99 87.54 119.89 87.3 122.17 87.3 123.01 87.54"/><polyline class="cls-3" points="118.99 84.24 119.89 84.48 119.89 87.3"/><polyline class="cls-3" points="123.01 84.24 122.17 84.48 119.89 84.48"/><line class="cls-3" x1="122.17" y1="87.3" x2="122.17" y2="84.48"/><polyline class="cls-3" points="118.99 91.14 119.89 90.9 122.17 90.9 123.01 91.14"/><polyline class="cls-3" points="118.99 87.84 119.89 88.08 119.89 90.9"/><polyline class="cls-3" points="123.01 87.84 122.17 88.08 119.89 88.08"/><line class="cls-3" x1="122.17" y1="90.9" x2="122.17" y2="88.08"/><polyline class="cls-3" points="118.99 94.74 119.89 94.5 122.17 94.5 123.01 94.74"/><polyline class="cls-3" points="118.99 91.44 119.89 91.68 119.89 94.5"/><polyline class="cls-3" points="123.01 91.44 122.17 91.68 119.89 91.68"/><line class="cls-3" x1="122.17" y1="94.5" x2="122.17" y2="91.68"/><polyline class="cls-3" points="118.99 98.34 119.89 98.1 122.17 98.1 123.01 98.34"/><polyline class="cls-3" points="118.99 95.04 119.89 95.28 119.89 98.1"/><polyline class="cls-3" points="123.01 95.04 122.17 95.28 119.89 95.28"/><line class="cls-3" x1="122.17" y1="98.1" x2="122.17" y2="95.28"/><polyline class="cls-3" points="118.99 101.94 119.89 101.7 122.17 101.7 123.01 101.94"/><polyline class="cls-3" points="118.99 98.64 119.89 98.88 119.89 101.7"/><polyline class="cls-3" points="123.01 98.64 122.17 98.88 119.89 98.88"/><line class="cls-3" x1="122.17" y1="101.7" x2="122.17" y2="98.88"/><polyline class="cls-3" points="118.99 105.54 119.89 105.3 122.17 105.3 123.01 105.54"/><polyline class="cls-3" points="118.99 102.24 119.89 102.48 119.89 105.3"/><polyline class="cls-3" points="123.01 102.24 122.17 102.48 119.89 102.48"/><line class="cls-3" x1="122.17" y1="105.3" x2="122.17" y2="102.48"/><polyline class="cls-3" points="118.99 109.14 119.89 108.9 122.17 108.9 123.01 109.14"/><polyline class="cls-3" points="118.99 105.84 119.89 106.08 119.89 108.9"/><polyline class="cls-3" points="123.01 105.84 122.17 106.08 119.89 106.08"/><line class="cls-3" x1="122.17" y1="108.9" x2="122.17" y2="106.08"/><polyline class="cls-3" points="118.99 112.74 119.89 112.5 122.17 112.5 123.01 112.74"/><polyline class="cls-3" points="118.99 109.44 119.89 109.68 119.89 112.5"/><polyline class="cls-3" points="123.01 109.44 122.17 109.68 119.89 109.68"/><line class="cls-3" x1="122.17" y1="112.5" x2="122.17" y2="109.68"/><polyline class="cls-3" points="118.99 116.34 119.89 116.1 122.17 116.1 123.01 116.34"/><polyline class="cls-3" points="118.99 113.04 119.89 113.28 119.89 116.1"/><polyline class="cls-3" points="123.01 113.04 122.17 113.28 119.89 113.28"/><line class="cls-3" x1="122.17" y1="116.1" x2="122.17" y2="113.28"/><polyline class="cls-3" points="118.99 119.94 119.89 119.7 122.17 119.7 123.01 119.94"/><polyline class="cls-3" points="118.99 116.64 119.89 116.88 119.89 119.7"/><polyline class="cls-3" points="123.01 116.64 122.17 116.88 119.89 116.88"/><line class="cls-3" x1="122.17" y1="119.7" x2="122.17" y2="116.88"/><polyline class="cls-3" points="118.99 123.54 119.89 123.3 122.17 123.3 123.01 123.54"/><polyline class="cls-3" points="118.99 120.24 119.89 120.48 119.89 123.3"/><polyline class="cls-3" points="123.01 120.24 122.17 120.48 119.89 120.48"/><line class="cls-3" x1="122.17" y1="123.3" x2="122.17" y2="120.48"/><polyline class="cls-3" points="118.99 127.14 119.89 126.9 122.17 126.9 123.01 127.14"/><polyline class="cls-3" points="118.99 123.84 119.89 124.08 119.89 126.9"/><polyline class="cls-3" points="123.01 123.84 122.17 124.08 119.89 124.08"/><line class="cls-3" x1="122.17" y1="126.9" x2="122.17" y2="124.08"/><polyline class="cls-3" points="118.99 130.74 119.89 130.5 122.17 130.5 123.01 130.74"/><polyline class="cls-3" points="118.99 127.44 119.89 127.68 119.89 130.5"/><polyline class="cls-3" points="123.01 127.44 122.17 127.68 119.89 127.68"/><line class="cls-3" x1="122.17" y1="130.5" x2="122.17" y2="127.68"/><polyline class="cls-3" points="118.99 134.34 119.89 134.1 122.17 134.1 123.01 134.34"/><polyline class="cls-3" points="118.99 131.04 119.89 131.28 119.89 134.1"/><polyline class="cls-3" points="123.01 131.04 122.17 131.28 119.89 131.28"/><line class="cls-3" x1="122.17" y1="134.1" x2="122.17" y2="131.28"/><polyline class="cls-3" points="118.99 137.94 119.89 137.7 122.17 137.7 123.01 137.94"/><polyline class="cls-3" points="118.99 134.64 119.89 134.88 119.89 137.7"/><polyline class="cls-3" points="123.01 134.64 122.17 134.88 119.89 134.88"/><line class="cls-3" x1="122.17" y1="137.7" x2="122.17" y2="134.88"/><polyline class="cls-3" points="118.99 141.54 119.89 141.3 122.17 141.3 123.01 141.54"/><polyline class="cls-3" points="118.99 138.24 119.89 138.48 119.89 141.3"/><polyline class="cls-3" points="123.01 138.24 122.17 138.48 119.89 138.48"/><line class="cls-3" x1="122.17" y1="141.3" x2="122.17" y2="138.48"/><polyline class="cls-3" points="118.99 145.14 119.89 144.9 122.17 144.9 123.01 145.14"/><polyline class="cls-3" points="118.99 141.84 119.89 142.08 119.89 144.9"/><polyline class="cls-3" points="123.01 141.84 122.17 142.08 119.89 142.08"/><line class="cls-3" x1="122.17" y1="144.9" x2="122.17" y2="142.08"/><polyline class="cls-3" points="118.99 148.74 119.89 148.5 122.17 148.5 123.01 148.74"/><polyline class="cls-3" points="118.99 145.44 119.89 145.68 119.89 148.5"/><polyline class="cls-3" points="123.01 145.44 122.17 145.68 119.89 145.68"/><line class="cls-3" x1="122.17" y1="148.5" x2="122.17" y2="145.68"/><polyline class="cls-3" points="118.99 152.34 119.89 152.1 122.17 152.1 123.01 152.34"/><polyline class="cls-3" points="118.99 149.04 119.89 149.28 119.89 152.1"/><polyline class="cls-3" points="123.01 149.04 122.17 149.28 119.89 149.28"/><line class="cls-3" x1="122.17" y1="152.1" x2="122.17" y2="149.28"/><polyline class="cls-3" points="118.99 156 119.89 155.7 122.17 155.7 123.01 156"/><polyline class="cls-3" points="118.99 152.64 119.89 152.88 119.89 155.7"/><polyline class="cls-3" points="123.01 152.64 122.17 152.88 119.89 152.88"/><line class="cls-3" x1="122.17" y1="155.7" x2="122.17" y2="152.88"/><polyline class="cls-3" points="118.99 159.6 119.89 159.3 122.17 159.3 123.01 159.6"/><polyline class="cls-3" points="118.99 156.24 119.89 156.48 119.89 159.3"/><polyline class="cls-3" points="123.01 156.24 122.17 156.48 119.89 156.48"/><line class="cls-3" x1="122.17" y1="159.3" x2="122.17" y2="156.48"/><polyline class="cls-3" points="118.99 163.2 119.89 162.9 122.17 162.9 123.01 163.2"/><polyline class="cls-3" points="118.99 159.84 119.89 160.08 119.89 162.9"/><polyline class="cls-3" points="123.01 159.84 122.17 160.08 119.89 160.08"/><line class="cls-3" x1="122.17" y1="162.9" x2="122.17" y2="160.08"/><polyline class="cls-3" points="118.99 166.8 119.89 166.5 122.17 166.5 123.01 166.8"/><polyline class="cls-3" points="118.99 163.44 119.89 163.68 119.89 166.5"/><polyline class="cls-3" points="123.01 163.44 122.17 163.68 119.89 163.68"/><line class="cls-3" x1="122.17" y1="166.5" x2="122.17" y2="163.68"/><polyline class="cls-3" points="118.99 170.4 119.89 170.1 122.17 170.1 123.01 170.4"/><polyline class="cls-3" points="118.99 167.04 119.89 167.28 119.89 170.1"/><polyline class="cls-3" points="123.01 167.04 122.17 167.28 119.89 167.28"/><line class="cls-3" x1="122.17" y1="170.1" x2="122.17" y2="167.28"/><polyline class="cls-3" points="118.99 174 119.89 173.7 122.17 173.7 123.01 174"/><polyline class="cls-3" points="118.99 170.64 119.89 170.88 119.89 173.7"/><polyline class="cls-3" points="123.01 170.64 122.17 170.88 119.89 170.88"/><line class="cls-3" x1="122.17" y1="173.7" x2="122.17" y2="170.88"/><polyline class="cls-3" points="118.99 177.6 119.89 177.3 122.17 177.3 123.01 177.6"/><polyline class="cls-3" points="118.99 174.24 119.89 174.48 119.89 177.3"/><polyline class="cls-3" points="123.01 174.24 122.17 174.48 119.89 174.48"/><line class="cls-3" x1="122.17" y1="177.3" x2="122.17" y2="174.48"/><polyline class="cls-3" points="118.99 181.2 119.89 180.9 122.17 180.9 123.01 181.2"/><polyline class="cls-3" points="118.99 177.84 119.89 178.08 119.89 180.9"/><polyline class="cls-3" points="123.01 177.84 122.17 178.08 119.89 178.08"/><line class="cls-3" x1="122.17" y1="180.9" x2="122.17" y2="178.08"/><polyline class="cls-3" points="118.99 184.8 119.89 184.5 122.17 184.5 123.01 184.8"/><polyline class="cls-3" points="118.99 181.44 119.89 181.68 119.89 184.5"/><polyline class="cls-3" points="123.01 181.44 122.17 181.68 119.89 181.68"/><line class="cls-3" x1="122.17" y1="184.5" x2="122.17" y2="181.68"/><polyline class="cls-3" points="118.99 188.4 119.89 188.1 122.17 188.1 123.01 188.4"/><polyline class="cls-3" points="118.99 185.04 119.89 185.28 119.89 188.1"/><polyline class="cls-3" points="123.01 185.04 122.17 185.28 119.89 185.28"/><line class="cls-3" x1="122.17" y1="188.1" x2="122.17" y2="185.28"/><polyline class="cls-3" points="118.99 192 119.89 191.7 122.17 191.7 123.01 192"/><polyline class="cls-3" points="118.99 188.64 119.89 188.88 119.89 191.7"/><polyline class="cls-3" points="123.01 188.64 122.17 188.88 119.89 188.88"/><line class="cls-3" x1="122.17" y1="191.7" x2="122.17" y2="188.88"/><polyline class="cls-3" points="118.99 195.6 119.89 195.3 122.17 195.3 123.01 195.6"/><polyline class="cls-3" points="118.99 192.24 119.89 192.48 119.89 195.3"/><polyline class="cls-3" points="123.01 192.24 122.17 192.48 119.89 192.48"/><line class="cls-3" x1="122.17" y1="195.3" x2="122.17" y2="192.48"/><polyline class="cls-3" points="118.99 199.2 119.89 198.9 122.17 198.9 123.01 199.2"/><polyline class="cls-3" points="118.99 195.84 119.89 196.08 119.89 198.9"/><polyline class="cls-3" points="123.01 195.84 122.17 196.08 119.89 196.08"/><line class="cls-3" x1="122.17" y1="198.9" x2="122.17" y2="196.08"/><polyline class="cls-3" points="126.19 80.34 127.09 80.1 129.37 80.1 130.21 80.34"/><polyline class="cls-3" points="126.19 77.04 127.09 77.28 127.09 80.1"/><polyline class="cls-3" points="130.21 77.04 129.37 77.28 127.09 77.28"/><line class="cls-3" x1="129.37" y1="80.1" x2="129.37" y2="77.28"/><polyline class="cls-3" points="126.19 83.94 127.09 83.7 129.37 83.7 130.21 83.94"/><polyline class="cls-3" points="126.19 80.64 127.09 80.88 127.09 83.7"/><polyline class="cls-3" points="130.21 80.64 129.37 80.88 127.09 80.88"/><line class="cls-3" x1="129.37" y1="83.7" x2="129.37" y2="80.88"/><polyline class="cls-3" points="126.19 87.54 127.09 87.3 129.37 87.3 130.21 87.54"/><polyline class="cls-3" points="126.19 84.24 127.09 84.48 127.09 87.3"/><polyline class="cls-3" points="130.21 84.24 129.37 84.48 127.09 84.48"/><line class="cls-3" x1="129.37" y1="87.3" x2="129.37" y2="84.48"/><polyline class="cls-3" points="126.19 91.14 127.09 90.9 129.37 90.9 130.21 91.14"/><polyline class="cls-3" points="126.19 87.84 127.09 88.08 127.09 90.9"/><polyline class="cls-3" points="130.21 87.84 129.37 88.08 127.09 88.08"/><line class="cls-3" x1="129.37" y1="90.9" x2="129.37" y2="88.08"/><polyline class="cls-3" points="126.19 94.74 127.09 94.5 129.37 94.5 130.21 94.74"/><polyline class="cls-3" points="126.19 91.44 127.09 91.68 127.09 94.5"/><polyline class="cls-3" points="130.21 91.44 129.37 91.68 127.09 91.68"/><line class="cls-3" x1="129.37" y1="94.5" x2="129.37" y2="91.68"/><polyline class="cls-3" points="126.19 98.34 127.09 98.1 129.37 98.1 130.21 98.34"/><polyline class="cls-3" points="126.19 95.04 127.09 95.28 127.09 98.1"/><polyline class="cls-3" points="130.21 95.04 129.37 95.28 127.09 95.28"/><line class="cls-3" x1="129.37" y1="98.1" x2="129.37" y2="95.28"/><polyline class="cls-3" points="126.19 101.94 127.09 101.7 129.37 101.7 130.21 101.94"/><polyline class="cls-3" points="126.19 98.64 127.09 98.88 127.09 101.7"/><polyline class="cls-3" points="130.21 98.64 129.37 98.88 127.09 98.88"/><line class="cls-3" x1="129.37" y1="101.7" x2="129.37" y2="98.88"/><polyline class="cls-3" points="126.19 105.54 127.09 105.3 129.37 105.3 130.21 105.54"/><polyline class="cls-3" points="126.19 102.24 127.09 102.48 127.09 105.3"/><polyline class="cls-3" points="130.21 102.24 129.37 102.48 127.09 102.48"/><line class="cls-3" x1="129.37" y1="105.3" x2="129.37" y2="102.48"/><polyline class="cls-3" points="126.19 109.14 127.09 108.9 129.37 108.9 130.21 109.14"/><polyline class="cls-3" points="126.19 105.84 127.09 106.08 127.09 108.9"/><polyline class="cls-3" points="130.21 105.84 129.37 106.08 127.09 106.08"/><line class="cls-3" x1="129.37" y1="108.9" x2="129.37" y2="106.08"/><polyline class="cls-3" points="126.19 112.74 127.09 112.5 129.37 112.5 130.21 112.74"/><polyline class="cls-3" points="126.19 109.44 127.09 109.68 127.09 112.5"/><polyline class="cls-3" points="130.21 109.44 129.37 109.68 127.09 109.68"/><line class="cls-3" x1="129.37" y1="112.5" x2="129.37" y2="109.68"/><polyline class="cls-3" points="126.19 116.34 127.09 116.1 129.37 116.1 130.21 116.34"/><polyline class="cls-3" points="126.19 113.04 127.09 113.28 127.09 116.1"/><polyline class="cls-3" points="130.21 113.04 129.37 113.28 127.09 113.28"/><line class="cls-3" x1="129.37" y1="116.1" x2="129.37" y2="113.28"/><polyline class="cls-3" points="126.19 119.94 127.09 119.7 129.37 119.7 130.21 119.94"/><polyline class="cls-3" points="126.19 116.64 127.09 116.88 127.09 119.7"/><polyline class="cls-3" points="130.21 116.64 129.37 116.88 127.09 116.88"/><line class="cls-3" x1="129.37" y1="119.7" x2="129.37" y2="116.88"/><polyline class="cls-3" points="126.19 123.54 127.09 123.3 129.37 123.3 130.21 123.54"/><polyline class="cls-3" points="126.19 120.24 127.09 120.48 127.09 123.3"/><polyline class="cls-3" points="130.21 120.24 129.37 120.48 127.09 120.48"/><line class="cls-3" x1="129.37" y1="123.3" x2="129.37" y2="120.48"/><polyline class="cls-3" points="126.19 127.14 127.09 126.9 129.37 126.9 130.21 127.14"/><polyline class="cls-3" points="126.19 123.84 127.09 124.08 127.09 126.9"/><polyline class="cls-3" points="130.21 123.84 129.37 124.08 127.09 124.08"/><line class="cls-3" x1="129.37" y1="126.9" x2="129.37" y2="124.08"/><polyline class="cls-3" points="126.19 130.74 127.09 130.5 129.37 130.5 130.21 130.74"/><polyline class="cls-3" points="126.19 127.44 127.09 127.68 127.09 130.5"/><polyline class="cls-3" points="130.21 127.44 129.37 127.68 127.09 127.68"/><line class="cls-3" x1="129.37" y1="130.5" x2="129.37" y2="127.68"/><polyline class="cls-3" points="126.19 134.34 127.09 134.1 129.37 134.1 130.21 134.34"/><polyline class="cls-3" points="126.19 131.04 127.09 131.28 127.09 134.1"/><polyline class="cls-3" points="130.21 131.04 129.37 131.28 127.09 131.28"/><line class="cls-3" x1="129.37" y1="134.1" x2="129.37" y2="131.28"/><polyline class="cls-3" points="126.19 137.94 127.09 137.7 129.37 137.7 130.21 137.94"/><polyline class="cls-3" points="126.19 134.64 127.09 134.88 127.09 137.7"/><polyline class="cls-3" points="130.21 134.64 129.37 134.88 127.09 134.88"/><line class="cls-3" x1="129.37" y1="137.7" x2="129.37" y2="134.88"/><polyline class="cls-3" points="126.19 141.54 127.09 141.3 129.37 141.3 130.21 141.54"/><polyline class="cls-3" points="126.19 138.24 127.09 138.48 127.09 141.3"/><polyline class="cls-3" points="130.21 138.24 129.37 138.48 127.09 138.48"/><line class="cls-3" x1="129.37" y1="141.3" x2="129.37" y2="138.48"/><polyline class="cls-3" points="126.19 145.14 127.09 144.9 129.37 144.9 130.21 145.14"/><polyline class="cls-3" points="126.19 141.84 127.09 142.08 127.09 144.9"/><polyline class="cls-3" points="130.21 141.84 129.37 142.08 127.09 142.08"/><line class="cls-3" x1="129.37" y1="144.9" x2="129.37" y2="142.08"/><polyline class="cls-3" points="126.19 148.74 127.09 148.5 129.37 148.5 130.21 148.74"/><polyline class="cls-3" points="126.19 145.44 127.09 145.68 127.09 148.5"/><polyline class="cls-3" points="130.21 145.44 129.37 145.68 127.09 145.68"/><line class="cls-3" x1="129.37" y1="148.5" x2="129.37" y2="145.68"/><polyline class="cls-3" points="126.19 152.34 127.09 152.1 129.37 152.1 130.21 152.34"/><polyline class="cls-3" points="126.19 149.04 127.09 149.28 127.09 152.1"/><polyline class="cls-3" points="130.21 149.04 129.37 149.28 127.09 149.28"/><line class="cls-3" x1="129.37" y1="152.1" x2="129.37" y2="149.28"/><polyline class="cls-3" points="126.19 156 127.09 155.7 129.37 155.7 130.21 156"/><polyline class="cls-3" points="126.19 152.64 127.09 152.88 127.09 155.7"/><polyline class="cls-3" points="130.21 152.64 129.37 152.88 127.09 152.88"/><line class="cls-3" x1="129.37" y1="155.7" x2="129.37" y2="152.88"/><polyline class="cls-3" points="126.19 159.6 127.09 159.3 129.37 159.3 130.21 159.6"/><polyline class="cls-3" points="126.19 156.24 127.09 156.48 127.09 159.3"/><polyline class="cls-3" points="130.21 156.24 129.37 156.48 127.09 156.48"/><line class="cls-3" x1="129.37" y1="159.3" x2="129.37" y2="156.48"/><polyline class="cls-3" points="126.19 163.2 127.09 162.9 129.37 162.9 130.21 163.2"/><polyline class="cls-3" points="126.19 159.84 127.09 160.08 127.09 162.9"/><polyline class="cls-3" points="130.21 159.84 129.37 160.08 127.09 160.08"/><line class="cls-3" x1="129.37" y1="162.9" x2="129.37" y2="160.08"/><polyline class="cls-3" points="126.19 166.8 127.09 166.5 129.37 166.5 130.21 166.8"/><polyline class="cls-3" points="126.19 163.44 127.09 163.68 127.09 166.5"/><polyline class="cls-3" points="130.21 163.44 129.37 163.68 127.09 163.68"/><line class="cls-3" x1="129.37" y1="166.5" x2="129.37" y2="163.68"/><polyline class="cls-3" points="126.19 170.4 127.09 170.1 129.37 170.1 130.21 170.4"/><polyline class="cls-3" points="126.19 167.04 127.09 167.28 127.09 170.1"/><polyline class="cls-3" points="130.21 167.04 129.37 167.28 127.09 167.28"/><line class="cls-3" x1="129.37" y1="170.1" x2="129.37" y2="167.28"/><polyline class="cls-3" points="126.19 174 127.09 173.7 129.37 173.7 130.21 174"/><polyline class="cls-3" points="126.19 170.64 127.09 170.88 127.09 173.7"/><polyline class="cls-3" points="130.21 170.64 129.37 170.88 127.09 170.88"/><line class="cls-3" x1="129.37" y1="173.7" x2="129.37" y2="170.88"/><polyline class="cls-3" points="126.19 177.6 127.09 177.3 129.37 177.3 130.21 177.6"/><polyline class="cls-3" points="126.19 174.24 127.09 174.48 127.09 177.3"/><polyline class="cls-3" points="130.21 174.24 129.37 174.48 127.09 174.48"/><line class="cls-3" x1="129.37" y1="177.3" x2="129.37" y2="174.48"/><polyline class="cls-3" points="126.19 181.2 127.09 180.9 129.37 180.9 130.21 181.2"/><polyline class="cls-3" points="126.19 177.84 127.09 178.08 127.09 180.9"/><polyline class="cls-3" points="130.21 177.84 129.37 178.08 127.09 178.08"/><line class="cls-3" x1="129.37" y1="180.9" x2="129.37" y2="178.08"/><polyline class="cls-3" points="126.19 184.8 127.09 184.5 129.37 184.5 130.21 184.8"/><polyline class="cls-3" points="126.19 181.44 127.09 181.68 127.09 184.5"/><polyline class="cls-3" points="130.21 181.44 129.37 181.68 127.09 181.68"/><line class="cls-3" x1="129.37" y1="184.5" x2="129.37" y2="181.68"/><polyline class="cls-3" points="126.19 188.4 127.09 188.1 129.37 188.1 130.21 188.4"/><polyline class="cls-3" points="126.19 185.04 127.09 185.28 127.09 188.1"/><polyline class="cls-3" points="130.21 185.04 129.37 185.28 127.09 185.28"/><line class="cls-3" x1="129.37" y1="188.1" x2="129.37" y2="185.28"/><polyline class="cls-3" points="126.19 192 127.09 191.7 129.37 191.7 130.21 192"/><polyline class="cls-3" points="126.19 188.64 127.09 188.88 127.09 191.7"/><polyline class="cls-3" points="130.21 188.64 129.37 188.88 127.09 188.88"/><line class="cls-3" x1="129.37" y1="191.7" x2="129.37" y2="188.88"/><polyline class="cls-3" points="126.19 195.6 127.09 195.3 129.37 195.3 130.21 195.6"/><polyline class="cls-3" points="126.19 192.24 127.09 192.48 127.09 195.3"/><polyline class="cls-3" points="130.21 192.24 129.37 192.48 127.09 192.48"/><line class="cls-3" x1="129.37" y1="195.3" x2="129.37" y2="192.48"/><polyline class="cls-3" points="126.19 199.2 127.09 198.9 129.37 198.9 130.21 199.2"/><polyline class="cls-3" points="126.19 195.84 127.09 196.08 127.09 198.9"/><polyline class="cls-3" points="130.21 195.84 129.37 196.08 127.09 196.08"/><line class="cls-3" x1="129.37" y1="198.9" x2="129.37" y2="196.08"/><polyline class="cls-3" points="126.25 328.08 127.87 325.26 126.25 322.38 123.01 322.38"/><path class="cls-3" d="M132.49,325.23a7.83,7.83,0,1,0-7.83,7.83,7.84,7.84,0,0,0,7.83-7.83"/><line class="cls-3" x1="123.01" y1="322.38" x2="121.33" y2="325.26"/><polyline class="cls-3" points="121.33 325.26 123.01 328.08 126.25 328.08"/><path class="cls-3" d="M127.13,323.81a2.84,2.84,0,0,0-2.47-1.43"/><path class="cls-3" d="M124.66,322.38a2.84,2.84,0,0,0-2.47,1.43"/><path class="cls-3" d="M122.19,323.8a2.85,2.85,0,0,0,0,2.85"/><path class="cls-3" d="M122.19,326.65a2.84,2.84,0,0,0,2.47,1.43"/><path class="cls-3" d="M124.66,328.08a2.84,2.84,0,0,0,2.47-1.43"/><path class="cls-3" d="M127.13,326.66a2.85,2.85,0,0,0,0-2.85"/><polyline class="cls-3" points="126.25 21.9 127.87 19.02 126.25 16.2 123.01 16.2"/><path class="cls-3" d="M132.49,19a7.83,7.83,0,1,0-7.83,7.83A7.84,7.84,0,0,0,132.49,19"/><line class="cls-3" x1="123.01" y1="16.2" x2="121.33" y2="19.02"/><polyline class="cls-3" points="121.33 19.02 123.01 21.9 126.25 21.9"/><path class="cls-3" d="M127.13,17.57a2.84,2.84,0,0,0-2.47-1.43"/><path class="cls-3" d="M124.66,16.14a2.84,2.84,0,0,0-2.47,1.43"/><path class="cls-3" d="M122.19,17.56a2.85,2.85,0,0,0,0,2.85"/><path class="cls-3" d="M122.19,20.41a2.84,2.84,0,0,0,2.47,1.43"/><path class="cls-3" d="M124.66,21.84a2.84,2.84,0,0,0,2.47-1.43"/><path class="cls-3" d="M127.13,20.42a2.85,2.85,0,0,0,0-2.85"/><line class="cls-3" x1="117.79" y1="301.02" x2="117.79" y2="299.76"/><path class="cls-3" d="M117.79,299.73a.58.58,0,0,0-.57-.57"/><line class="cls-3" x1="115.33" y1="299.16" x2="117.19" y2="299.16"/><path class="cls-3" d="M114.79,298.59a.57.57,0,0,0,.57.57"/><line class="cls-3" x1="114.73" y1="294.84" x2="114.73" y2="298.62"/><path class="cls-3" d="M114.79,294.81a.58.58,0,0,0-.57-.57"/><line class="cls-3" x1="107.29" y1="294.3" x2="114.19" y2="294.3"/><path class="cls-3" d="M106.75,293.67a.57.57,0,0,0,.57.57"/><polyline class="cls-3" points="106.39 287.64 106.75 287.64 106.75 293.7"/><path class="cls-3" d="M106.36,286.26a.71.71,0,0,0-.61.36.68.68,0,0,0,0,.7.69.69,0,0,0,.62.32"/><line class="cls-3" x1="106.75" y1="286.26" x2="106.33" y2="286.26"/><line class="cls-3" x1="106.33" y1="280.56" x2="106.75" y2="280.56"/><path class="cls-3" d="M106.4,279.12a.69.69,0,0,0-.62.32.68.68,0,0,0,0,.7.71.71,0,0,0,.61.36"/><polyline class="cls-3" points="106.75 273.54 106.75 279.18 106.39 279.18"/><path class="cls-3" d="M107.32,272.94a.57.57,0,0,0-.57.57"/><line class="cls-3" x1="141.91" y1="273" x2="107.29" y2="273"/><path class="cls-3" d="M142.51,273.51a.58.58,0,0,0-.57-.57"/><polyline class="cls-3" points="142.87 279.18 142.51 279.18 142.51 273.54"/><path class="cls-3" d="M143,280.5a.69.69,0,0,0,.6-.36.66.66,0,0,0,0-.7.69.69,0,0,0-.62-.32"/><line class="cls-3" x1="142.51" y1="280.56" x2="142.93" y2="280.56"/><line class="cls-3" x1="142.93" y1="286.26" x2="142.51" y2="286.26"/><path class="cls-3" d="M142.92,287.64a.69.69,0,0,0,.62-.32.66.66,0,0,0,0-.7.69.69,0,0,0-.6-.36"/><polyline class="cls-3" points="142.51 293.7 142.51 287.64 142.87 287.64"/><path class="cls-3" d="M141.94,294.24a.58.58,0,0,0,.57-.57"/><line class="cls-3" x1="135.07" y1="294.3" x2="141.91" y2="294.3"/><path class="cls-3" d="M135.1,294.24a.57.57,0,0,0-.57.57"/><line class="cls-3" x1="134.47" y1="298.62" x2="134.47" y2="294.84"/><path class="cls-3" d="M134,299.16a.58.58,0,0,0,.57-.57"/><line class="cls-3" x1="132.01" y1="299.16" x2="133.93" y2="299.16"/><path class="cls-3" d="M132,299.16a.57.57,0,0,0-.57.57"/><line class="cls-3" x1="131.47" y1="301.02" x2="131.47" y2="299.76"/><line class="cls-3" x1="106.81" y1="298.92" x2="112.93" y2="298.92"/><path class="cls-3" d="M106.27,298.35a.57.57,0,0,0,.57.57"/><line class="cls-3" x1="106.27" y1="295.98" x2="106.27" y2="298.38"/><path class="cls-3" d="M106.84,295.38a.57.57,0,0,0-.57.57"/><line class="cls-3" x1="112.93" y1="295.38" x2="106.81" y2="295.38"/><path class="cls-3" d="M113.53,296a.58.58,0,0,0-.57-.57"/><line class="cls-3" x1="113.47" y1="298.38" x2="113.47" y2="295.98"/><path class="cls-3" d="M113,298.92a.58.58,0,0,0,.57-.57"/><line class="cls-3" x1="142.39" y1="295.38" x2="136.33" y2="295.38"/><path class="cls-3" d="M143,296a.58.58,0,0,0-.57-.57"/><line class="cls-3" x1="142.99" y1="298.38" x2="142.99" y2="295.98"/><path class="cls-3" d="M142.42,298.92a.58.58,0,0,0,.57-.57"/><line class="cls-3" x1="136.33" y1="298.92" x2="142.39" y2="298.92"/><path class="cls-3" d="M135.79,298.35a.57.57,0,0,0,.57.57"/><line class="cls-3" x1="135.73" y1="295.98" x2="135.73" y2="298.38"/><path class="cls-3" d="M136.36,295.38a.57.57,0,0,0-.57.57"/><line class="cls-3" x1="140.53" y1="295.38" x2="140.53" y2="298.92"/><line class="cls-3" x1="137.41" y1="295.38" x2="137.41" y2="298.92"/><line class="cls-3" x1="108.73" y1="295.38" x2="108.73" y2="298.92"/><line class="cls-3" x1="111.85" y1="295.38" x2="111.85" y2="298.92"/><polyline class="cls-3" points="131.47 301.02 131.47 301.44 131.47 301.8 131.47 302.04 131.47 302.1 146.23 302.1"/><polyline class="cls-3" points="131.47 302.1 131.35 302.1 131.05 302.1 118.21 302.1 117.91 302.1 117.79 302.1 103.03 302.1"/><path class="cls-3" d="M146.26,302.1a1.11,1.11,0,0,0,1.11-1.11"/><line class="cls-3" x1="147.37" y1="301.02" x2="147.37" y2="255.9"/><path class="cls-3" d="M147.37,255.87a1.11,1.11,0,0,0-1.11-1.11"/><line class="cls-3" x1="146.23" y1="254.76" x2="103.03" y2="254.76"/><path class="cls-3" d="M103.06,254.76a1.11,1.11,0,0,0-1.11,1.11"/><line class="cls-3" x1="101.89" y1="255.9" x2="101.89" y2="301.02"/><path class="cls-3" d="M102,301a1.11,1.11,0,0,0,1.11,1.11"/><polyline class="cls-3" points="117.79 301.02 117.79 301.44 117.79 301.8 117.79 302.04 117.79 302.1"/><polyline class="cls-3" points="142.51 278.46 142.33 278.46 142.33 273.18 106.87 273.18"/><polyline class="cls-3" points="106.87 273.18 106.87 278.46 106.75 278.46"/><line class="cls-3" x1="134.41" y1="298.92" x2="134.41" y2="294.06"/><polyline class="cls-3" points="134.41 294.06 142.33 294.06 142.33 288.78 142.51 288.78"/><polyline class="cls-3" points="134.35 298.98 131.23 298.98 131.23 301.56 131.47 301.56"/><polyline class="cls-3" points="106.75 288.78 106.87 288.78 106.87 294.06 114.85 294.06 114.85 298.92"/><line class="cls-3" x1="118.03" y1="298.98" x2="114.91" y2="298.98"/><polyline class="cls-3" points="118.03 298.98 118.03 301.56 117.79 301.56"/><polyline class="cls-3" points="106.87 273.18 107.77 274.08 141.49 274.08 142.33 273.18"/><polyline class="cls-3" points="142.33 278.46 141.49 278.46 141.49 274.08"/><polyline class="cls-3" points="131.23 298.98 130.39 298.14 133.57 298.14 134.35 298.98"/><polyline class="cls-3" points="115.69 298.14 118.87 298.14 130.39 298.14"/><polyline class="cls-3" points="133.57 298.14 133.57 293.22 133.57 290.34"/><line class="cls-3" x1="133.57" y1="293.22" x2="134.41" y2="294.06"/><polyline class="cls-3" points="142.33 294.06 141.49 293.22 133.57 293.22"/><line class="cls-3" x1="141.49" y1="290.34" x2="133.57" y2="290.34"/><polyline class="cls-3" points="115.69 293.22 115.69 290.34 107.77 290.34"/><line class="cls-3" x1="115.09" y1="281.82" x2="113.89" y2="281.82"/><line class="cls-3" x1="117.97" y1="281.82" x2="116.77" y2="281.82"/><line class="cls-3" x1="120.85" y1="281.82" x2="119.71" y2="281.82"/><line class="cls-3" x1="123.79" y1="281.82" x2="122.59" y2="281.82"/><line class="cls-3" x1="126.67" y1="281.82" x2="125.47" y2="281.82"/><line class="cls-3" x1="129.55" y1="281.82" x2="128.35" y2="281.82"/><line class="cls-3" x1="132.43" y1="281.82" x2="131.23" y2="281.82"/><line class="cls-3" x1="135.31" y1="281.82" x2="134.17" y2="281.82"/><line class="cls-3" x1="107.77" y1="274.08" x2="107.77" y2="278.46"/><line class="cls-3" x1="107.77" y1="288.78" x2="107.77" y2="293.22"/><polyline class="cls-3" points="141.49 293.22 141.49 288.78 142.33 288.78"/><polyline class="cls-3" points="111.01 280.56 110.95 280.56 110.71 280.56 107.77 280.56 107.53 280.56 107.17 280.56 106.75 280.56"/><polyline class="cls-3" points="142.51 280.56 142.09 280.56 141.67 280.56 141.43 280.56 138.55 280.56 138.31 280.56 138.25 280.56"/><polyline class="cls-3" points="111.01 286.26 110.95 286.26 110.71 286.26 107.77 286.26 107.53 286.26 107.17 286.26 106.75 286.26"/><polyline class="cls-3" points="142.51 286.26 142.09 286.26 141.67 286.26 141.43 286.26 138.55 286.26 138.31 286.26 138.25 286.26"/><line class="cls-3" x1="106.87" y1="288.78" x2="107.77" y2="288.78"/><line class="cls-3" x1="106.87" y1="294.06" x2="107.77" y2="293.22"/><polyline class="cls-3" points="114.85 294.06 115.69 293.22 107.77 293.22"/><polyline class="cls-3" points="115.69 293.22 115.69 298.14 114.85 298.98"/><polyline class="cls-3" points="118.03 301.56 118.87 301.56 130.39 301.56 131.23 301.56"/><polyline class="cls-3" points="118.87 301.56 118.87 298.14 118.03 298.98"/><line class="cls-3" x1="130.39" y1="298.14" x2="130.39" y2="301.56"/><line class="cls-3" x1="107.77" y1="278.46" x2="106.87" y2="278.46"/><line class="cls-3" x1="113.89" y1="281.82" x2="113.89" y2="274.08"/><line class="cls-3" x1="115.09" y1="281.82" x2="115.09" y2="274.08"/><line class="cls-3" x1="116.77" y1="281.82" x2="116.77" y2="274.08"/><line class="cls-3" x1="117.97" y1="281.82" x2="117.97" y2="274.08"/><line class="cls-3" x1="119.71" y1="281.82" x2="119.71" y2="274.08"/><line class="cls-3" x1="120.85" y1="281.82" x2="120.85" y2="274.08"/><line class="cls-3" x1="122.59" y1="281.82" x2="122.59" y2="274.08"/><line class="cls-3" x1="123.79" y1="281.82" x2="123.79" y2="274.08"/><line class="cls-3" x1="125.47" y1="281.82" x2="125.47" y2="274.08"/><line class="cls-3" x1="126.67" y1="281.82" x2="126.67" y2="274.08"/><line class="cls-3" x1="128.35" y1="281.82" x2="128.35" y2="274.08"/><line class="cls-3" x1="129.55" y1="281.82" x2="129.55" y2="274.08"/><line class="cls-3" x1="131.23" y1="281.82" x2="131.23" y2="274.08"/><line class="cls-3" x1="132.43" y1="281.82" x2="132.43" y2="274.08"/><line class="cls-3" x1="134.17" y1="281.82" x2="134.17" y2="274.08"/><line class="cls-3" x1="135.31" y1="281.82" x2="135.31" y2="274.08"/><path class="cls-3" d="M118.48,254.76a.83.83,0,0,0,.48-.15"/><path class="cls-3" d="M130.3,254.61a.83.83,0,0,0,.48.15"/><path class="cls-3" d="M119.91,254.18a3.53,3.53,0,0,0-.9.42"/><path class="cls-3" d="M130.31,254.6a3.69,3.69,0,0,0-.9-.42"/><line class="cls-3" x1="111.01" y1="280.56" x2="111.01" y2="286.26"/><line class="cls-3" x1="138.25" y1="280.56" x2="138.25" y2="286.26"/><path class="cls-3" d="M132.91,325.23a8.25,8.25,0,1,0-8.25,8.25,8.25,8.25,0,0,0,8.25-8.25"/><path class="cls-3" d="M132.91,19a8.25,8.25,0,1,0-8.25,8.25A8.25,8.25,0,0,0,132.91,19"/><polyline class="cls-3" points="191.95 240.18 191.95 240.06 191.95 239.76 191.95 239.22 191.95 238.5 191.95 237.66 191.95 236.7 191.95 235.62 191.95 234.54 191.95 37.5"/><path class="cls-3" d="M192,37.47A28.35,28.35,0,0,0,163.6,9.12"/><line class="cls-3" x1="163.57" y1="9.12" x2="148.03" y2="9.12"/><path class="cls-3" d="M148.06,9.12a8.49,8.49,0,0,0-8.49,8.49"/><line class="cls-3" x1="139.51" y1="17.64" x2="139.51" y2="19.02"/><path class="cls-3" d="M109.75,19a14.91,14.91,0,0,0,29.82,0"/><line class="cls-3" x1="109.75" y1="19.02" x2="109.75" y2="17.64"/><path class="cls-3" d="M109.75,17.61a8.49,8.49,0,0,0-8.49-8.49"/><polyline class="cls-3" points="101.23 9.12 60.97 9.12 60.97 9.24 60.97 9.48 60.97 9.96 60.97 10.56 60.97 11.22 60.97 11.94"/><polyline class="cls-3" points="60.97 234.54 60.97 235.26 60.97 235.92 60.97 236.52 60.97 236.94 60.97 237.24 60.97 237.36"/><path class="cls-3" d="M192,240.15a2.86,2.86,0,0,0-2.85-2.85"/><polyline class="cls-3" points="189.13 237.36 60.97 237.36 60.97 237.42 60.97 237.72 60.97 238.2 60.97 238.74 60.97 239.46 60.97 240.18"/><line class="cls-3" x1="191.95" y1="306.78" x2="191.95" y2="240.18"/><path class="cls-3" d="M163.6,335.1A28.35,28.35,0,0,0,192,306.75"/><line class="cls-3" x1="148.03" y1="335.16" x2="163.57" y2="335.16"/><path class="cls-3" d="M139.57,326.61a8.49,8.49,0,0,0,8.49,8.49"/><line class="cls-3" x1="139.51" y1="325.26" x2="139.51" y2="326.64"/><path class="cls-3" d="M139.57,325.23a14.91,14.91,0,0,0-29.82,0"/><line class="cls-3" x1="109.75" y1="326.64" x2="109.75" y2="325.26"/><path class="cls-3" d="M101.26,335.1a8.49,8.49,0,0,0,8.49-8.49"/><polyline class="cls-3" points="60.97 332.34 60.97 333.06 60.97 333.72 60.97 334.32 60.97 334.8 60.97 335.04 60.97 335.16 101.23 335.16"/><path class="cls-3" d="M128.89,56a4.23,4.23,0,1,0-8.46,0"/><polyline class="cls-3" points="128.89 55.98 128.89 63.3 129.61 63.3"/><polyline class="cls-3" points="134.53 63.3 136.09 63.3 136.09 212.94 134.53 212.94"/><polyline class="cls-3" points="129.61 212.94 128.89 212.94 128.89 220.26"/><path class="cls-3" d="M120.43,220.23a4.23,4.23,0,1,0,8.46,0"/><polyline class="cls-3" points="120.37 220.26 120.37 212.94 119.59 212.94"/><polyline class="cls-3" points="114.73 212.94 113.11 212.94 113.11 63.3 114.73 63.3"/><polyline class="cls-3" points="119.59 63.3 120.37 63.3 120.37 55.98"/><line class="cls-3" x1="60.97" y1="11.94" x2="60.97" y2="234.54"/><line class="cls-3" x1="148.03" y1="9.12" x2="101.23" y2="9.12"/><line class="cls-3" x1="101.23" y1="335.16" x2="148.03" y2="335.16"/><line class="cls-3" x1="146.23" y1="302.7" x2="103.03" y2="302.7"/><path class="cls-3" d="M101.35,301a1.72,1.72,0,0,0,1.71,1.71"/><line class="cls-3" x1="101.29" y1="301.02" x2="101.29" y2="255.9"/><path class="cls-3" d="M103.06,254.16a1.72,1.72,0,0,0-1.71,1.71"/><line class="cls-3" x1="103.03" y1="254.22" x2="146.23" y2="254.22"/><path class="cls-3" d="M148,255.87a1.72,1.72,0,0,0-1.71-1.71"/><line class="cls-3" x1="147.91" y1="255.9" x2="147.91" y2="301.02"/><path class="cls-3" d="M146.26,302.7A1.72,1.72,0,0,0,148,301"/><line class="cls-3" x1="60.97" y1="332.34" x2="60.97" y2="240.18"/></g><polyline class="cls-4" points="36.61 244.36 90.64 244.36 94.87 248.59"/><polygon class="cls-5" points="92.38 249.06 99.38 253.1 95.34 246.1 92.38 249.06"/><text class="cls-6" transform="translate(19.73 247.21)">P1</text><polyline class="cls-4" points="95.33 313.56 85.36 323.53 41.33 323.53"/><polygon class="cls-5" points="91.87 312.91 101.59 307.3 95.98 317.02 91.87 312.91"/><text class="cls-7" transform="translate(0 319.94)"><tspan class="cls-8">A</tspan><tspan class="cls-9" x="7.2" y="0">c</tspan><tspan x="12.73" y="0">tivi</tspan><tspan class="cls-10" x="28.09" y="0">t</tspan><tspan x="32.17" y="0">y</tspan><tspan class="cls-11"><tspan x="6.9" y="14.4">S</tspan><tspan class="cls-12" x="12.78" y="14.4">t</tspan><tspan class="cls-13" x="16.75" y="14.4">a</tspan><tspan class="cls-12" x="22.49" y="14.4">tus</tspan></tspan></text><text class="cls-7" transform="translate(203.95 319.94)">Link<tspan class="cls-11" x="0" y="14.4">S</tspan><tspan x="5.88" y="14.4">t</tspan><tspan class="cls-14" x="9.85" y="14.4">a</tspan><tspan x="15.59" y="14.4">tus</tspan></text><polyline class="cls-4" points="147.07 313.56 157.04 323.53 201.07 323.53"/><polygon class="cls-5" points="146.42 317.02 140.81 307.3 150.53 312.91 146.42 317.02"/><polyline class="cls-4" points="39.4 51.26 93.43 51.26 97.66 55.49"/><polygon class="cls-5" points="95.17 55.96 102.17 60 98.13 53 95.17 55.96"/><text class="cls-6" transform="translate(22.52 54.11)">P2</text></svg>