<svg id="Layer_1" data-name="Layer 1" xmlns="http://www.w3.org/2000/svg" viewBox="0 0 370.76 361"><defs><style>.cls-1{fill:#ededed;}.cls-1,.cls-2,.cls-3,.cls-6{stroke:#1d1d1b;stroke-miterlimit:10;}.cls-2{fill:none;}.cls-3{fill:#fff;}.cls-4,.cls-8{font-size:12px;}.cls-4,.cls-5,.cls-6,.cls-7,.cls-8{fill:#1d1d1b;}.cls-4,.cls-5{font-family:ArialMT, Arial;}.cls-5{font-size:14.38px;}.cls-8{font-family:MyriadPro-Regular, Myriad Pro;}.cls-9{letter-spacing:-0.01em;}.cls-10{letter-spacing:-0.01em;}.cls-11{letter-spacing:0.01em;}.cls-12{letter-spacing:0.01em;}.cls-13{letter-spacing:-0.01em;}.cls-14{letter-spacing:0em;}.cls-15{letter-spacing:-0.01em;}.cls-16{letter-spacing:-0.01em;}.cls-17{letter-spacing:-0.03em;}.cls-18{letter-spacing:0.01em;}</style></defs><rect class="cls-1" x="235" y="20.5" width="55" height="320"/><polygon class="cls-2" points="90 0.5 90 360.5 315 360.5 315 0.5 135 0.5 90 0.5"/><rect class="cls-3" x="85" y="55.5" width="10" height="50"/><text class="cls-4" transform="translate(65.32 85.5)">P1</text><text class="cls-5" transform="translate(266.34 217.45) rotate(-90) scale(0.97 1)">MODULE-X</text><text/><line class="cls-2" x1="115" y1="110.5" x2="115" y2="140.5"/><line class="cls-2" x1="110" y1="130.5" x2="120" y2="130.5"/><polygon class="cls-6" points="115 130.5 120 120.5 110 120.5 115 130.5"/><line class="cls-2" x1="105" y1="120.5" x2="99.39" y2="126.11"/><polygon class="cls-7" points="98.93 123.7 95 130.5 101.8 126.57 98.93 123.7"/><line class="cls-2" x1="105" y1="125.5" x2="99.39" y2="131.11"/><polygon class="cls-7" points="98.93 128.7 95 135.5 101.8 131.57 98.93 128.7"/><path class="cls-2" d="M125,60.5c4.14,0,7.5,3,7.5,6.67s-3.36,6.66-7.5,6.66"/><path class="cls-2" d="M125,73.83c4.14,0,7.5,3,7.5,6.67s-3.36,6.67-7.5,6.67"/><path class="cls-2" d="M125,87.17c4.14,0,7.5,3,7.5,6.66s-3.36,6.67-7.5,6.67"/><path class="cls-2" d="M155,100.5c-4.14,0-7.5-3-7.5-6.67s3.36-6.66,7.5-6.66"/><path class="cls-2" d="M155,87.17c-4.14,0-7.5-3-7.5-6.67s3.36-6.67,7.5-6.67"/><path class="cls-2" d="M155,73.83c-4.14,0-7.5-3-7.5-6.66s3.36-6.67,7.5-6.67"/><line class="cls-2" x1="137.5" y1="60.5" x2="137.5" y2="100.5"/><line class="cls-2" x1="142.5" y1="60.5" x2="142.5" y2="100.5"/><line class="cls-2" x1="95" y1="80.5" x2="125" y2="80.5"/><line class="cls-2" x1="155" y1="80.5" x2="235" y2="80.5"/><line class="cls-2" x1="115" y1="20.5" x2="115" y2="50.5"/><line class="cls-2" x1="110" y1="40.5" x2="120" y2="40.5"/><polygon class="cls-6" points="115 40.5 120 30.5 110 30.5 115 40.5"/><line class="cls-2" x1="105" y1="30.5" x2="99.39" y2="36.11"/><polygon class="cls-7" points="98.93 33.7 95 40.5 101.8 36.57 98.93 33.7"/><line class="cls-2" x1="105" y1="35.5" x2="99.39" y2="41.11"/><polygon class="cls-7" points="98.93 38.7 95 45.5 101.8 41.57 98.93 38.7"/><line class="cls-2" x1="130" y1="35.5" x2="235" y2="35.5"/><line class="cls-2" x1="130" y1="125.5" x2="235" y2="125.5"/><text class="cls-8" transform="translate(24.88 30.5)">Link/G<tspan class="cls-9" x="32.63" y="0">r</tspan><tspan x="36.43" y="0">een</tspan></text><text class="cls-8" transform="translate(0.77 130.5)"><tspan class="cls-10">A</tspan><tspan class="cls-11" x="7.2" y="0">c</tspan><tspan x="12.73" y="0">tivi</tspan><tspan class="cls-12" x="28.09" y="0">t</tspan><tspan x="32.17" y="0">y/O</tspan><tspan class="cls-13" x="50.21" y="0">r</tspan><tspan class="cls-14" x="54.07" y="0">ange</tspan></text><rect class="cls-3" x="135" y="185.5" width="60" height="90"/><text class="cls-8" transform="translate(142.09 225.5)"><tspan class="cls-15">A</tspan><tspan x="7.2" y="0">c</tspan><tspan class="cls-16" x="12.58" y="0">r</tspan><tspan x="16.38" y="0">o</tspan><tspan class="cls-17" x="22.97" y="0">P</tspan><tspan x="29.04" y="0">ack</tspan><tspan class="cls-18" x="3.65" y="14.4">M</tspan><tspan x="13.37" y="14.4">odule</tspan></text><rect class="cls-3" x="85" y="270.5" width="10" height="50"/><line class="cls-2" x1="95" y1="295.5" x2="165" y2="295.5"/><line class="cls-2" x1="165" y1="275.5" x2="165" y2="295.5"/><line class="cls-2" x1="165" y1="165.5" x2="165" y2="185.5"/><line class="cls-2" x1="165" y1="165.5" x2="235" y2="165.5"/><text class="cls-4" transform="translate(65.32 300.5)">P2</text><text class="cls-4" transform="translate(178.32 160.5)">PCIe</text></svg>