<?xml version="1.0" encoding="UTF-8"?><svg id="Layer_1" xmlns="http://www.w3.org/2000/svg" viewBox="0 0 385.76 361"><polygon points="105 .5 105 360.5 330 360.5 330 .5 150 .5 105 .5" style="fill:none; stroke:#1d1d1b; stroke-miterlimit:10;"/><rect x="100" y="55.5" width="10" height="50" style="fill:#fff; stroke:#1d1d1b; stroke-miterlimit:10;"/><text transform="translate(77.88 85.5)" style="fill:#1d1d1b; font-family:ArialMT, Arial; font-size:14px;"><tspan x="0" y="0">P1</tspan></text><g><rect x="250" y="20.5" width="55" height="320" style="fill:#1f90cf; opacity:.5; stroke:#1d1d1b; stroke-miterlimit:10;"/><text transform="translate(281.34 198.18) rotate(-90) scale(.97 1)" style="fill:#1d1d1b; font-family:ArialMT, Arial; font-size:14px;"><tspan x="0" y="0">BLOX</tspan></text></g><text/><g><g><line x1="130" y1="110.5" x2="130" y2="140.5" style="fill:none; stroke:#1d1d1b; stroke-miterlimit:10;"/><line x1="125" y1="130.5" x2="135" y2="130.5" style="fill:none; stroke:#1d1d1b; stroke-miterlimit:10;"/><polygon points="130 130.5 135 120.5 125 120.5 130 130.5" style="fill:#1d1d1b; stroke:#1d1d1b; stroke-miterlimit:10;"/></g><g><line x1="120" y1="120.5" x2="114.39" y2="126.11" style="fill:none; stroke:#1d1d1b; stroke-miterlimit:10;"/><polygon points="113.93 123.7 110 130.5 116.8 126.57 113.93 123.7" style="fill:#1d1d1b;"/></g><g><line x1="120" y1="125.5" x2="114.39" y2="131.11" style="fill:none; stroke:#1d1d1b; stroke-miterlimit:10;"/><polygon points="113.93 128.7 110 135.5 116.8 131.57 113.93 128.7" style="fill:#1d1d1b;"/></g></g><g><path d="M140,60.5c4.14,0,7.5,2.98,7.5,6.67s-3.36,6.67-7.5,6.67" style="fill:none; stroke:#1d1d1b; stroke-miterlimit:10;"/><path d="M140,73.83c4.14,0,7.5,2.98,7.5,6.67s-3.36,6.67-7.5,6.67" style="fill:none; stroke:#1d1d1b; stroke-miterlimit:10;"/><path d="M140,87.17c4.14,0,7.5,2.98,7.5,6.67s-3.36,6.67-7.5,6.67" style="fill:none; stroke:#1d1d1b; stroke-miterlimit:10;"/></g><g><path d="M170,100.5c-4.14,0-7.5-2.98-7.5-6.67s3.36-6.67,7.5-6.67" style="fill:none; stroke:#1d1d1b; stroke-miterlimit:10;"/><path d="M170,87.17c-4.14,0-7.5-2.98-7.5-6.67s3.36-6.67,7.5-6.67" style="fill:none; stroke:#1d1d1b; stroke-miterlimit:10;"/><path d="M170,73.83c-4.14,0-7.5-2.98-7.5-6.67s3.36-6.67,7.5-6.67" style="fill:none; stroke:#1d1d1b; stroke-miterlimit:10;"/></g><line x1="152.5" y1="60.5" x2="152.5" y2="100.5" style="fill:none; stroke:#1d1d1b; stroke-miterlimit:10;"/><line x1="157.5" y1="60.5" x2="157.5" y2="100.5" style="fill:none; stroke:#1d1d1b; stroke-miterlimit:10;"/><line x1="110" y1="80.5" x2="140" y2="80.5" style="fill:none; stroke:#1d1d1b; stroke-miterlimit:10;"/><line x1="170" y1="80.5" x2="250" y2="80.5" style="fill:none; stroke:#1d1d1b; stroke-miterlimit:10;"/><g><g><line x1="130" y1="20.5" x2="130" y2="50.5" style="fill:none; stroke:#1d1d1b; stroke-miterlimit:10;"/><line x1="125" y1="40.5" x2="135" y2="40.5" style="fill:none; stroke:#1d1d1b; stroke-miterlimit:10;"/><polygon points="130 40.5 135 30.5 125 30.5 130 40.5" style="fill:#1d1d1b; stroke:#1d1d1b; stroke-miterlimit:10;"/></g><g><line x1="120" y1="30.5" x2="114.39" y2="36.11" style="fill:none; stroke:#1d1d1b; stroke-miterlimit:10;"/><polygon points="113.93 33.7 110 40.5 116.8 36.57 113.93 33.7" style="fill:#1d1d1b;"/></g><g><line x1="120" y1="35.5" x2="114.39" y2="41.11" style="fill:none; stroke:#1d1d1b; stroke-miterlimit:10;"/><polygon points="113.93 38.7 110 45.5 116.8 41.57 113.93 38.7" style="fill:#1d1d1b;"/></g></g><line x1="145" y1="35.5" x2="250" y2="35.5" style="fill:none; stroke:#1d1d1b; stroke-miterlimit:10;"/><line x1="145" y1="125.5" x2="250" y2="125.5" style="fill:none; stroke:#1d1d1b; stroke-miterlimit:10;"/><text transform="translate(26.52 30.5)" style="fill:#1d1d1b; font-family:ArialMT, Arial; font-size:14px;"><tspan x="0" y="0">Link/Green</tspan></text><text transform="translate(.08 130.5)" style="fill:#1d1d1b; font-family:ArialMT, Arial; font-size:14px;"><tspan x="0" y="0">Activity/Orange</tspan></text><rect x="130" y="225.5" width="95" height="80" style="fill:none; stroke:#000; stroke-miterlimit:10;"/><line x1="105" y1="265.5" x2="130" y2="265.5" style="fill:none; stroke:#1d1d1b; stroke-miterlimit:10;"/><line x1="105" y1="240.5" x2="130" y2="240.5" style="fill:none; stroke:#1d1d1b; stroke-miterlimit:10;"/><line x1="105" y1="290.5" x2="130" y2="290.5" style="fill:none; stroke:#1d1d1b; stroke-miterlimit:10;"/><line x1="225" y1="265.5" x2="250" y2="265.5" style="fill:none; stroke:#1d1d1b; stroke-miterlimit:10;"/><text transform="translate(145.12 260.5)" style="fill:#1d1d1b; font-family:ArialMT, Arial; font-size:14px;"><tspan x="0" y="0" style="letter-spacing:-.07em;">L</tspan><tspan x="6.75" y="0">TE Cat. 4 </tspan><tspan x="11.54" y="16.8">modem</tspan></text><text transform="translate(70.88 295.5)" style="fill:#1d1d1b; font-family:ArialMT, Arial; font-size:14px;"><tspan x="0" y="0">Aux</tspan></text><text transform="translate(55.32 270.5)" style="fill:#1d1d1b; font-family:ArialMT, Arial; font-size:14px;"><tspan x="0" y="0">GNSS</tspan></text><text transform="translate(64.66 245.5)" style="fill:#1d1d1b; font-family:ArialMT, Arial; font-size:14px;"><tspan x="0" y="0">Main</tspan></text></svg>