<svg id="Layer_1" data-name="Layer 1" xmlns="http://www.w3.org/2000/svg" viewBox="0 0 392.69 361"><defs><style>.cls-1,.cls-7{fill:none;}.cls-1,.cls-4,.cls-6,.cls-7,.cls-9{stroke:#1d1d1b;stroke-miterlimit:10;}.cls-10,.cls-2,.cls-5,.cls-6,.cls-8{fill:#1d1d1b;}.cls-3,.cls-4{fill:#fff;}.cls-5{font-size:12px;}.cls-10,.cls-5,.cls-8{font-family:ArialMT, Arial;}.cls-7{stroke-width:2px;}.cls-8{font-size:14px;}.cls-9{fill:#ededed;}.cls-10{font-size:18px;}</style></defs><polygon class="cls-1" points="90 0.5 90 360.5 315 360.5 315 0.5 135 0.5 90 0.5"/><line class="cls-1" x1="160" y1="120.5" x2="315" y2="120.5"/><path class="cls-2" d="M160,124.26a3.76,3.76,0,1,1,3.76-3.76A3.76,3.76,0,0,1,160,124.26Z"/><path class="cls-3" d="M315,124.26a3.76,3.76,0,1,0-3.76-3.76A3.76,3.76,0,0,0,315,124.26Z"/><path class="cls-2" d="M315,124.76a4.26,4.26,0,1,1,4.26-4.26,4.26,4.26,0,0,1-4.26,4.26Zm0-7.52a3.26,3.26,0,1,0,3.26,3.26,3.26,3.26,0,0,0-3.26-3.26Z"/><line class="cls-1" x1="125" y1="140.5" x2="315" y2="140.5"/><path class="cls-2" d="M125,144.26a3.76,3.76,0,1,1,3.76-3.76A3.76,3.76,0,0,1,125,144.26Z"/><path class="cls-3" d="M315,144.26a3.76,3.76,0,1,0-3.76-3.76A3.76,3.76,0,0,0,315,144.26Z"/><path class="cls-2" d="M315,144.76a4.26,4.26,0,1,1,4.26-4.26,4.26,4.26,0,0,1-4.26,4.26Zm0-7.52a3.26,3.26,0,1,0,3.26,3.26,3.26,3.26,0,0,0-3.26-3.26Z"/><rect class="cls-4" x="115" y="20.5" width="175" height="70"/><text class="cls-5" transform="translate(184.32 55.5)">USB3.0<tspan x="9.67" y="14.4">Hub</tspan></text><rect class="cls-4" x="85" y="10.5" width="10" height="40"/><text class="cls-5" transform="translate(65.32 35.5)">P1</text><rect class="cls-4" x="85" y="60.5" width="10" height="40"/><rect class="cls-4" x="310" y="10.5" width="10" height="40"/><line class="cls-1" x1="290" y1="190.5" x2="315" y2="190.5"/><path class="cls-3" d="M315,194.26a3.76,3.76,0,1,0-3.76-3.76A3.76,3.76,0,0,0,315,194.26Z"/><path class="cls-2" d="M315,194.76a4.26,4.26,0,1,1,4.26-4.26,4.26,4.26,0,0,1-4.26,4.26Zm0-7.52a3.26,3.26,0,1,0,3.26,3.26,3.26,3.26,0,0,0-3.26-3.26Z"/><line class="cls-1" x1="280" y1="165.5" x2="280" y2="195.5"/><line class="cls-1" x1="275" y1="185.5" x2="285" y2="185.5"/><polygon class="cls-6" points="280 185.5 285 175.5 275 175.5 280 185.5"/><line class="cls-1" x1="270" y1="180.5" x2="264.39" y2="186.11"/><polygon class="cls-2" points="263.93 183.7 260 190.5 266.8 186.57 263.93 183.7"/><polyline class="cls-1" points="255 180.5 245 190.5 245 195.5"/><line class="cls-7" x1="255" y1="170.5" x2="255" y2="190.5"/><polyline class="cls-1" points="245 165.5 245 170.5 250 175.5 255 180.5"/><line class="cls-1" x1="255" y1="180.5" x2="249.39" y2="186.11"/><polygon class="cls-2" points="248.93 183.7 245 190.5 251.8 186.57 248.93 183.7"/><rect class="cls-1" x="235" y="160.5" width="55" height="40"/><text class="cls-8" transform="translate(323.21 185.54)">DI1</text><line class="cls-1" x1="290" y1="170.5" x2="315" y2="170.5"/><path class="cls-3" d="M315,174.26a3.76,3.76,0,1,0-3.76-3.76A3.76,3.76,0,0,0,315,174.26Z"/><path class="cls-2" d="M315,174.76a4.26,4.26,0,1,1,4.26-4.26,4.26,4.26,0,0,1-4.26,4.26Zm0-7.52a3.26,3.26,0,1,0,3.26,3.26,3.26,3.26,0,0,0-3.26-3.26Z"/><rect class="cls-4" x="310" y="60.5" width="10" height="40"/><line class="cls-1" x1="95" y1="30.5" x2="115" y2="30.5"/><line class="cls-1" x1="95" y1="80.5" x2="115" y2="80.5"/><line class="cls-1" x1="290" y1="30.5" x2="310" y2="30.5"/><line class="cls-1" x1="290" y1="80.5" x2="310" y2="80.5"/><rect class="cls-9" x="185" y="160.5" width="35" height="190"/><polyline class="cls-1" points="90 140.5 125 140.5 125 160.5"/><path class="cls-3" d="M90,144.26a3.76,3.76,0,1,1,3.76-3.76A3.76,3.76,0,0,1,90,144.26Z"/><path class="cls-2" d="M90,144.76a4.26,4.26,0,1,0-4.26-4.26A4.26,4.26,0,0,0,90,144.76Zm0-7.52a3.26,3.26,0,1,1-3.26,3.26A3.26,3.26,0,0,1,90,137.24Z"/><polyline class="cls-1" points="90 120.5 160 120.5 160 160.5"/><path class="cls-3" d="M90,124.26a3.76,3.76,0,1,1,3.76-3.76A3.76,3.76,0,0,1,90,124.26Z"/><path class="cls-2" d="M90,124.76a4.26,4.26,0,1,0-4.26-4.26A4.26,4.26,0,0,0,90,124.76Zm0-7.52a3.26,3.26,0,1,1-3.26,3.26A3.26,3.26,0,0,1,90,117.24Z"/><text class="cls-8" transform="translate(12.31 135.54)">24VDC I/O</text><text class="cls-8" transform="translate(325 135.5)">24VDC I/O</text><text class="cls-10" transform="translate(210 287.98) rotate(-90) scale(0.97 1)">MODULE-X</text><text class="cls-5" transform="translate(65.32 85.5)">P2</text><text class="cls-5" transform="translate(330 35.5)">P3</text><text class="cls-5" transform="translate(330 85.5)">P4</text><text/><line class="cls-1" x1="205" y1="155.18" x2="205" y2="96.6"/><polygon class="cls-2" points="206.74 154 205 160.5 203.26 154 206.74 154"/><polygon class="cls-2" points="206.74 97.79 205 91.28 203.26 97.79 206.74 97.79"/><line class="cls-1" x1="90" y1="170.5" x2="115" y2="170.5"/><path class="cls-3" d="M90,174.26a3.76,3.76,0,1,1,3.76-3.76A3.76,3.76,0,0,1,90,174.26Z"/><path class="cls-2" d="M90,174.76a4.26,4.26,0,1,0-4.26-4.26A4.26,4.26,0,0,0,90,174.76Zm0-7.52a3.26,3.26,0,1,1-3.26,3.26A3.26,3.26,0,0,1,90,167.24Z"/><line class="cls-1" x1="90" y1="190.5" x2="115" y2="190.5"/><path class="cls-3" d="M90,194.26a3.76,3.76,0,1,1,3.76-3.76A3.76,3.76,0,0,1,90,194.26Z"/><path class="cls-2" d="M90,194.76a4.26,4.26,0,1,0-4.26-4.26A4.26,4.26,0,0,0,90,194.76Zm0-7.52a3.26,3.26,0,1,1-3.26,3.26A3.26,3.26,0,0,1,90,187.24Z"/><line class="cls-1" x1="160" y1="165.5" x2="160" y2="195.5"/><line class="cls-1" x1="155" y1="185.5" x2="165" y2="185.5"/><polygon class="cls-6" points="160 185.5 165 175.5 155 175.5 160 185.5"/><line class="cls-1" x1="150" y1="175.5" x2="144.39" y2="181.11"/><polygon class="cls-2" points="143.93 178.7 140 185.5 146.8 181.57 143.93 178.7"/><line class="cls-1" x1="150" y1="180.5" x2="144.39" y2="186.11"/><polygon class="cls-2" points="143.93 183.7 140 190.5 146.8 186.57 143.93 183.7"/><polyline class="cls-1" points="135 180.5 125 190.5 125 195.5"/><line class="cls-7" x1="135" y1="170.5" x2="135" y2="190.5"/><polyline class="cls-1" points="125 165.5 125 170.5 130 175.5 135 180.5"/><line class="cls-1" x1="135" y1="180.5" x2="129.39" y2="186.11"/><polygon class="cls-2" points="128.93 183.7 125 190.5 131.8 186.57 128.93 183.7"/><rect class="cls-1" x="115" y="160.5" width="55" height="40"/><text class="cls-8" transform="translate(51.21 185.54)">DO1</text><line class="cls-1" x1="185" y1="180.5" x2="176.2" y2="180.5"/><polygon class="cls-2" points="177.59 178.47 170 180.5 177.59 182.53 177.59 178.47"/><line class="cls-1" x1="90" y1="220.5" x2="115" y2="220.5"/><path class="cls-3" d="M90,224.26a3.76,3.76,0,1,1,3.76-3.76A3.76,3.76,0,0,1,90,224.26Z"/><path class="cls-2" d="M90,224.76a4.26,4.26,0,1,0-4.26-4.26A4.26,4.26,0,0,0,90,224.76Zm0-7.52a3.26,3.26,0,1,1-3.26,3.26A3.26,3.26,0,0,1,90,217.24Z"/><line class="cls-1" x1="90" y1="240.5" x2="115" y2="240.5"/><path class="cls-3" d="M90,244.26a3.76,3.76,0,1,1,3.76-3.76A3.76,3.76,0,0,1,90,244.26Z"/><path class="cls-2" d="M90,244.76a4.26,4.26,0,1,0-4.26-4.26A4.26,4.26,0,0,0,90,244.76Zm0-7.52a3.26,3.26,0,1,1-3.26,3.26A3.26,3.26,0,0,1,90,237.24Z"/><line class="cls-1" x1="160" y1="215.5" x2="160" y2="245.5"/><line class="cls-1" x1="155" y1="235.5" x2="165" y2="235.5"/><polygon class="cls-6" points="160 235.5 165 225.5 155 225.5 160 235.5"/><line class="cls-1" x1="150" y1="225.5" x2="144.39" y2="231.11"/><polygon class="cls-2" points="143.93 228.7 140 235.5 146.8 231.57 143.93 228.7"/><line class="cls-1" x1="150" y1="230.5" x2="144.39" y2="236.11"/><polygon class="cls-2" points="143.93 233.7 140 240.5 146.8 236.57 143.93 233.7"/><polyline class="cls-1" points="135 230.5 125 240.5 125 245.5"/><line class="cls-7" x1="135" y1="220.5" x2="135" y2="240.5"/><polyline class="cls-1" points="125 215.5 125 220.5 130 225.5 135 230.5"/><line class="cls-1" x1="135" y1="230.5" x2="129.39" y2="236.11"/><polygon class="cls-2" points="128.93 233.7 125 240.5 131.8 236.57 128.93 233.7"/><rect class="cls-1" x="115" y="210.5" width="55" height="40"/><text class="cls-8" transform="translate(51.21 235.54)">DO2</text><line class="cls-1" x1="185" y1="230.5" x2="176.2" y2="230.5"/><polygon class="cls-2" points="177.59 228.47 170 230.5 177.59 232.53 177.59 228.47"/><line class="cls-1" x1="90" y1="270.5" x2="115" y2="270.5"/><path class="cls-3" d="M90,274.26a3.76,3.76,0,1,1,3.76-3.76A3.76,3.76,0,0,1,90,274.26Z"/><path class="cls-2" d="M90,274.76a4.26,4.26,0,1,0-4.26-4.26A4.26,4.26,0,0,0,90,274.76Zm0-7.52a3.26,3.26,0,1,1-3.26,3.26A3.26,3.26,0,0,1,90,267.24Z"/><line class="cls-1" x1="90" y1="290.5" x2="115" y2="290.5"/><path class="cls-3" d="M90,294.26a3.76,3.76,0,1,1,3.76-3.76A3.76,3.76,0,0,1,90,294.26Z"/><path class="cls-2" d="M90,294.76a4.26,4.26,0,1,0-4.26-4.26A4.26,4.26,0,0,0,90,294.76Zm0-7.52a3.26,3.26,0,1,1-3.26,3.26A3.26,3.26,0,0,1,90,287.24Z"/><line class="cls-1" x1="160" y1="265.5" x2="160" y2="295.5"/><line class="cls-1" x1="155" y1="285.5" x2="165" y2="285.5"/><polygon class="cls-6" points="160 285.5 165 275.5 155 275.5 160 285.5"/><line class="cls-1" x1="150" y1="275.5" x2="144.39" y2="281.11"/><polygon class="cls-2" points="143.93 278.7 140 285.5 146.8 281.57 143.93 278.7"/><line class="cls-1" x1="150" y1="280.5" x2="144.39" y2="286.11"/><polygon class="cls-2" points="143.93 283.7 140 290.5 146.8 286.57 143.93 283.7"/><polyline class="cls-1" points="135 280.5 125 290.5 125 295.5"/><line class="cls-7" x1="135" y1="270.5" x2="135" y2="290.5"/><polyline class="cls-1" points="125 265.5 125 270.5 130 275.5 135 280.5"/><line class="cls-1" x1="135" y1="280.5" x2="129.39" y2="286.11"/><polygon class="cls-2" points="128.93 283.7 125 290.5 131.8 286.57 128.93 283.7"/><rect class="cls-1" x="115" y="260.5" width="55" height="40"/><text class="cls-8" transform="translate(51.21 285.54)">DO3</text><line class="cls-1" x1="185" y1="280.5" x2="176.2" y2="280.5"/><polygon class="cls-2" points="177.59 278.47 170 280.5 177.59 282.53 177.59 278.47"/><line class="cls-1" x1="90" y1="320.5" x2="115" y2="320.5"/><path class="cls-3" d="M90,324.26a3.76,3.76,0,1,1,3.76-3.76A3.76,3.76,0,0,1,90,324.26Z"/><path class="cls-2" d="M90,324.76a4.26,4.26,0,1,0-4.26-4.26A4.26,4.26,0,0,0,90,324.76Zm0-7.52a3.26,3.26,0,1,1-3.26,3.26A3.26,3.26,0,0,1,90,317.24Z"/><line class="cls-1" x1="90" y1="340.5" x2="115" y2="340.5"/><path class="cls-3" d="M90,344.26a3.76,3.76,0,1,1,3.76-3.76A3.76,3.76,0,0,1,90,344.26Z"/><path class="cls-2" d="M90,344.76a4.26,4.26,0,1,0-4.26-4.26A4.26,4.26,0,0,0,90,344.76Zm0-7.52a3.26,3.26,0,1,1-3.26,3.26A3.26,3.26,0,0,1,90,337.24Z"/><line class="cls-1" x1="160" y1="315.5" x2="160" y2="345.5"/><line class="cls-1" x1="155" y1="335.5" x2="165" y2="335.5"/><polygon class="cls-6" points="160 335.5 165 325.5 155 325.5 160 335.5"/><line class="cls-1" x1="150" y1="325.5" x2="144.39" y2="331.11"/><polygon class="cls-2" points="143.93 328.7 140 335.5 146.8 331.57 143.93 328.7"/><line class="cls-1" x1="150" y1="330.5" x2="144.39" y2="336.11"/><polygon class="cls-2" points="143.93 333.7 140 340.5 146.8 336.57 143.93 333.7"/><polyline class="cls-1" points="135 330.5 125 340.5 125 345.5"/><line class="cls-7" x1="135" y1="320.5" x2="135" y2="340.5"/><polyline class="cls-1" points="125 315.5 125 320.5 130 325.5 135 330.5"/><line class="cls-1" x1="135" y1="330.5" x2="129.39" y2="336.11"/><polygon class="cls-2" points="128.93 333.7 125 340.5 131.8 336.57 128.93 333.7"/><rect class="cls-1" x="115" y="310.5" width="55" height="40"/><text class="cls-8" transform="translate(51.21 335.54)">DO4</text><line class="cls-1" x1="185" y1="330.5" x2="176.2" y2="330.5"/><polygon class="cls-2" points="177.59 328.47 170 330.5 177.59 332.53 177.59 328.47"/><line class="cls-1" x1="235" y1="175.5" x2="226.2" y2="175.5"/><polygon class="cls-2" points="227.59 173.47 220 175.5 227.59 177.53 227.59 173.47"/><line class="cls-1" x1="290" y1="290.5" x2="315" y2="290.5"/><path class="cls-3" d="M315,294.26a3.76,3.76,0,1,0-3.76-3.76A3.76,3.76,0,0,0,315,294.26Z"/><path class="cls-2" d="M315,294.76a4.26,4.26,0,1,1,4.26-4.26,4.26,4.26,0,0,1-4.26,4.26Zm0-7.52a3.26,3.26,0,1,0,3.26,3.26,3.26,3.26,0,0,0-3.26-3.26Z"/><line class="cls-1" x1="280" y1="265.5" x2="280" y2="295.5"/><line class="cls-1" x1="275" y1="285.5" x2="285" y2="285.5"/><polygon class="cls-6" points="280 285.5 285 275.5 275 275.5 280 285.5"/><line class="cls-1" x1="270" y1="275.5" x2="264.39" y2="281.11"/><polygon class="cls-2" points="263.93 278.7 260 285.5 266.8 281.57 263.93 278.7"/><line class="cls-1" x1="270" y1="280.5" x2="264.39" y2="286.11"/><polygon class="cls-2" points="263.93 283.7 260 290.5 266.8 286.57 263.93 283.7"/><polyline class="cls-1" points="255 280.5 245 290.5 245 295.5"/><line class="cls-7" x1="255" y1="270.5" x2="255" y2="290.5"/><polyline class="cls-1" points="245 265.5 245 270.5 250 275.5 255 280.5"/><line class="cls-1" x1="255" y1="280.5" x2="249.39" y2="286.11"/><polygon class="cls-2" points="248.93 283.7 245 290.5 251.8 286.57 248.93 283.7"/><rect class="cls-1" x="235" y="260.5" width="55" height="40"/><text class="cls-8" transform="translate(323.21 285.54)">DI3</text><line class="cls-1" x1="290" y1="270.5" x2="315" y2="270.5"/><path class="cls-3" d="M315,274.26a3.76,3.76,0,1,0-3.76-3.76A3.76,3.76,0,0,0,315,274.26Z"/><path class="cls-2" d="M315,274.76a4.26,4.26,0,1,1,4.26-4.26,4.26,4.26,0,0,1-4.26,4.26Zm0-7.52a3.26,3.26,0,1,0,3.26,3.26,3.26,3.26,0,0,0-3.26-3.26Z"/><line class="cls-1" x1="234.12" y1="280.14" x2="225.32" y2="280.14"/><polygon class="cls-2" points="226.71 278.11 219.12 280.14 226.71 282.18 226.71 278.11"/><line class="cls-1" x1="290" y1="240.5" x2="315" y2="240.5"/><path class="cls-3" d="M315,244.26a3.76,3.76,0,1,0-3.76-3.76A3.76,3.76,0,0,0,315,244.26Z"/><path class="cls-2" d="M315,244.76a4.26,4.26,0,1,1,4.26-4.26,4.26,4.26,0,0,1-4.26,4.26Zm0-7.52a3.26,3.26,0,1,0,3.26,3.26,3.26,3.26,0,0,0-3.26-3.26Z"/><line class="cls-1" x1="280" y1="215.5" x2="280" y2="245.5"/><line class="cls-1" x1="275" y1="235.5" x2="285" y2="235.5"/><polygon class="cls-6" points="280 235.5 285 225.5 275 225.5 280 235.5"/><line class="cls-1" x1="270" y1="225.5" x2="264.39" y2="231.11"/><polygon class="cls-2" points="263.93 228.7 260 235.5 266.8 231.57 263.93 228.7"/><line class="cls-1" x1="270" y1="230.5" x2="264.39" y2="236.11"/><polygon class="cls-2" points="263.93 233.7 260 240.5 266.8 236.57 263.93 233.7"/><polyline class="cls-1" points="255 230.5 245 240.5 245 245.5"/><line class="cls-7" x1="255" y1="220.5" x2="255" y2="240.5"/><polyline class="cls-1" points="245 215.5 245 220.5 250 225.5 255 230.5"/><line class="cls-1" x1="255" y1="230.5" x2="249.39" y2="236.11"/><polygon class="cls-2" points="248.93 233.7 245 240.5 251.8 236.57 248.93 233.7"/><rect class="cls-1" x="235" y="210.5" width="55" height="40"/><text class="cls-8" transform="translate(323.21 235.54)">DI2</text><line class="cls-1" x1="290" y1="220.5" x2="315" y2="220.5"/><path class="cls-3" d="M315,224.26a3.76,3.76,0,1,0-3.76-3.76A3.76,3.76,0,0,0,315,224.26Z"/><path class="cls-2" d="M315,224.76a4.26,4.26,0,1,1,4.26-4.26,4.26,4.26,0,0,1-4.26,4.26Zm0-7.52a3.26,3.26,0,1,0,3.26,3.26,3.26,3.26,0,0,0-3.26-3.26Z"/><line class="cls-1" x1="235" y1="230.5" x2="226.2" y2="230.5"/><polygon class="cls-2" points="227.59 228.47 220 230.5 227.59 232.53 227.59 228.47"/><line class="cls-1" x1="290" y1="340.5" x2="315" y2="340.5"/><path class="cls-3" d="M315,344.26a3.76,3.76,0,1,0-3.76-3.76A3.76,3.76,0,0,0,315,344.26Z"/><path class="cls-2" d="M315,344.76a4.26,4.26,0,1,1,4.26-4.26,4.26,4.26,0,0,1-4.26,4.26Zm0-7.52a3.26,3.26,0,1,0,3.26,3.26,3.26,3.26,0,0,0-3.26-3.26Z"/><line class="cls-1" x1="280" y1="315.5" x2="280" y2="345.5"/><line class="cls-1" x1="275" y1="335.5" x2="285" y2="335.5"/><polygon class="cls-6" points="280 335.5 285 325.5 275 325.5 280 335.5"/><line class="cls-1" x1="270" y1="325.5" x2="264.39" y2="331.11"/><polygon class="cls-2" points="263.93 328.7 260 335.5 266.8 331.57 263.93 328.7"/><line class="cls-1" x1="270" y1="330.5" x2="264.39" y2="336.11"/><polygon class="cls-2" points="263.93 333.7 260 340.5 266.8 336.57 263.93 333.7"/><polyline class="cls-1" points="255 330.5 245 340.5 245 345.5"/><line class="cls-7" x1="255" y1="320.5" x2="255" y2="340.5"/><polyline class="cls-1" points="245 315.5 245 320.5 250 325.5 255 330.5"/><line class="cls-1" x1="255" y1="330.5" x2="249.39" y2="336.11"/><polygon class="cls-2" points="248.93 333.7 245 340.5 251.8 336.57 248.93 333.7"/><rect class="cls-1" x="235" y="310.5" width="55" height="40"/><text class="cls-8" transform="translate(323.21 335.54)">DI4</text><line class="cls-1" x1="290" y1="320.5" x2="315" y2="320.5"/><path class="cls-3" d="M315,324.26a3.76,3.76,0,1,0-3.76-3.76A3.76,3.76,0,0,0,315,324.26Z"/><path class="cls-2" d="M315,324.76a4.26,4.26,0,1,1,4.26-4.26,4.26,4.26,0,0,1-4.26,4.26Zm0-7.52a3.26,3.26,0,1,0,3.26,3.26,3.26,3.26,0,0,0-3.26-3.26Z"/><line class="cls-1" x1="235" y1="330.5" x2="226.2" y2="330.5"/><polygon class="cls-2" points="227.59 328.47 220 330.5 227.59 332.53 227.59 328.47"/><line class="cls-1" x1="245" y1="160.5" x2="245" y2="140.5"/><path class="cls-2" d="M248.76,140.5a3.76,3.76,0,1,0-3.76,3.76A3.76,3.76,0,0,0,248.76,140.5Z"/><line class="cls-1" x1="280" y1="160.5" x2="280" y2="120.5"/><path class="cls-2" d="M283.76,120.5a3.76,3.76,0,1,0-3.76,3.76A3.76,3.76,0,0,0,283.76,120.5Z"/></svg>