<svg id="Layer_1" data-name="Layer 1" xmlns="http://www.w3.org/2000/svg" viewBox="0 0 358.45 361"><defs><style>.cls-1,.cls-7,.cls-8{fill:none;}.cls-1,.cls-10,.cls-2,.cls-6,.cls-8{stroke:#1d1d1b;stroke-miterlimit:10;}.cls-2,.cls-4{fill:#fff;}.cls-3{font-size:12px;}.cls-11,.cls-3,.cls-5,.cls-6,.cls-9{fill:#1d1d1b;}.cls-11,.cls-3,.cls-9{font-family:ArialMT, Arial;}.cls-8{stroke-width:2px;}.cls-9{font-size:14px;}.cls-10{fill:#ededed;}.cls-11{font-size:14.38px;}</style></defs><polygon class="cls-1" points="77.69 0.5 77.69 360.5 302.69 360.5 302.69 0.5 122.69 0.5 77.69 0.5"/><rect class="cls-2" x="102.69" y="20.5" width="175" height="70"/><text class="cls-3" transform="translate(172.01 55.5)">USB3.0<tspan x="9.67" y="14.4">Hub</tspan></text><rect class="cls-2" x="72.69" y="10.5" width="10" height="40"/><text class="cls-3" transform="translate(53.01 35.5)">P1</text><rect class="cls-2" x="72.69" y="60.5" width="10" height="40"/><rect class="cls-2" x="297.69" y="10.5" width="10" height="40"/><line class="cls-1" x1="277.69" y1="190.5" x2="302.69" y2="190.5"/><path class="cls-4" d="M425,343.76a3.76,3.76,0,1,0-3.76-3.76A3.76,3.76,0,0,0,425,343.76Z" transform="translate(-122.31 -149.5)"/><path class="cls-5" d="M425,344.26a4.26,4.26,0,1,1,4.26-4.26,4.26,4.26,0,0,1-4.26,4.26Zm0-7.52a3.26,3.26,0,1,0,3.26,3.26,3.26,3.26,0,0,0-3.26-3.26Z" transform="translate(-122.31 -149.5)"/><path class="cls-6" d="M395,335" transform="translate(-122.31 -149.5)"/><path class="cls-6" d="M405,330" transform="translate(-122.31 -149.5)"/><line class="cls-1" x1="267.69" y1="165.5" x2="267.69" y2="195.5"/><line class="cls-1" x1="262.69" y1="185.5" x2="272.69" y2="185.5"/><polygon class="cls-6" points="267.69 185.5 272.69 175.5 262.69 175.5 267.69 185.5"/><path class="cls-7" d="M380,325" transform="translate(-122.31 -149.5)"/><line class="cls-1" x1="257.69" y1="180.5" x2="252.07" y2="186.11"/><polygon class="cls-5" points="251.62 183.7 247.69 190.5 254.49 186.57 251.62 183.7"/><path class="cls-1" d="M355,340" transform="translate(-122.31 -149.5)"/><polyline class="cls-1" points="242.69 180.5 232.69 190.5 232.69 195.5"/><line class="cls-8" x1="242.69" y1="170.5" x2="242.69" y2="190.5"/><polyline class="cls-1" points="232.69 165.5 232.69 170.5 237.69 175.5 242.69 180.5"/><line class="cls-1" x1="242.69" y1="180.5" x2="237.07" y2="186.11"/><polygon class="cls-5" points="236.62 183.7 232.69 190.5 239.49 186.57 236.62 183.7"/><rect class="cls-1" x="222.69" y="160.5" width="55" height="40"/><text class="cls-9" transform="translate(310.9 185.5)">DI1</text><line class="cls-1" x1="277.69" y1="170.5" x2="302.69" y2="170.5"/><path class="cls-4" d="M425,323.76a3.76,3.76,0,1,0-3.76-3.76A3.76,3.76,0,0,0,425,323.76Z" transform="translate(-122.31 -149.5)"/><path class="cls-5" d="M425,324.26a4.26,4.26,0,1,1,4.26-4.26,4.26,4.26,0,0,1-4.26,4.26Zm0-7.52a3.26,3.26,0,1,0,3.26,3.26,3.26,3.26,0,0,0-3.26-3.26Z" transform="translate(-122.31 -149.5)"/><rect class="cls-2" x="297.69" y="60.5" width="10" height="40"/><line class="cls-1" x1="82.69" y1="30.5" x2="102.69" y2="30.5"/><path class="cls-1" d="M225,195" transform="translate(-122.31 -149.5)"/><line class="cls-1" x1="82.69" y1="80.5" x2="102.69" y2="80.5"/><line class="cls-1" x1="277.69" y1="30.5" x2="297.69" y2="30.5"/><line class="cls-1" x1="277.69" y1="80.5" x2="297.69" y2="80.5"/><polygon class="cls-10" points="172.69 345.5 207.69 345.5 207.69 150.5 277.69 150.5 277.69 110.5 172.69 110.5 172.69 345.5"/><path class="cls-1" d="M110,225" transform="translate(-122.31 -149.5)"/><line class="cls-1" x1="277.69" y1="140.5" x2="302.69" y2="140.5"/><path class="cls-4" d="M425,293.76a3.76,3.76,0,1,0-3.76-3.76A3.76,3.76,0,0,0,425,293.76Z" transform="translate(-122.31 -149.5)"/><path class="cls-5" d="M425,294.26a4.26,4.26,0,1,1,4.26-4.26,4.26,4.26,0,0,1-4.26,4.26Zm0-7.52a3.26,3.26,0,1,0,3.26,3.26,3.26,3.26,0,0,0-3.26-3.26Z" transform="translate(-122.31 -149.5)"/><line class="cls-1" x1="277.69" y1="120.5" x2="302.69" y2="120.5"/><path class="cls-4" d="M425,273.76a3.76,3.76,0,1,0-3.76-3.76A3.76,3.76,0,0,0,425,273.76Z" transform="translate(-122.31 -149.5)"/><path class="cls-5" d="M425,274.26a4.26,4.26,0,1,1,4.26-4.26,4.26,4.26,0,0,1-4.26,4.26Zm0-7.52a3.26,3.26,0,1,0,3.26,3.26,3.26,3.26,0,0,0-3.26-3.26Z" transform="translate(-122.31 -149.5)"/><polyline class="cls-1" points="77.69 140.5 112.69 140.5 112.69 160.5"/><path class="cls-4" d="M200,293.76a3.76,3.76,0,1,1,3.76-3.76A3.76,3.76,0,0,1,200,293.76Z" transform="translate(-122.31 -149.5)"/><path class="cls-5" d="M200,294.26a4.26,4.26,0,1,0-4.26-4.26,4.26,4.26,0,0,0,4.26,4.26Zm0-7.52a3.26,3.26,0,1,1-3.26,3.26,3.26,3.26,0,0,1,3.26-3.26Z" transform="translate(-122.31 -149.5)"/><polyline class="cls-1" points="77.69 120.5 147.69 120.5 147.69 160.5"/><path class="cls-4" d="M200,273.76a3.76,3.76,0,1,1,3.76-3.76A3.76,3.76,0,0,1,200,273.76Z" transform="translate(-122.31 -149.5)"/><path class="cls-5" d="M200,274.26a4.26,4.26,0,1,0-4.26-4.26,4.26,4.26,0,0,0,4.26,4.26Zm0-7.52a3.26,3.26,0,1,1-3.26,3.26,3.26,3.26,0,0,1,3.26-3.26Z" transform="translate(-122.31 -149.5)"/><text class="cls-9" transform="translate(0 135.5)">24VDC I/O</text><text class="cls-9" transform="translate(312.56 135.5)">24VDC</text><text class="cls-11" transform="matrix(0, -0.97, 1, 0, 197.69, 269.4)">MODULE-X</text><text class="cls-3" transform="translate(53.01 85.5)">P2</text><text class="cls-3" transform="translate(317.69 35.5)">P3</text><text class="cls-3" transform="translate(317.69 85.5)">P4</text><text x="-122.31" y="-149.5"/><line class="cls-5" x1="192.29" y1="111.28" x2="192.29" y2="91.28"/><line class="cls-1" x1="192.29" y1="105.97" x2="192.29" y2="96.6"/><polygon class="cls-5" points="194.04 104.78 192.3 111.28 190.55 104.78 194.04 104.78"/><polygon class="cls-5" points="194.04 97.79 192.3 91.28 190.55 97.79 194.04 97.79"/><line class="cls-1" x1="77.69" y1="170.5" x2="102.69" y2="170.5"/><path class="cls-4" d="M200,323.76a3.76,3.76,0,1,1,3.76-3.76A3.76,3.76,0,0,1,200,323.76Z" transform="translate(-122.31 -149.5)"/><path class="cls-5" d="M200,324.26a4.26,4.26,0,1,0-4.26-4.26,4.26,4.26,0,0,0,4.26,4.26Zm0-7.52a3.26,3.26,0,1,1-3.26,3.26,3.26,3.26,0,0,1,3.26-3.26Z" transform="translate(-122.31 -149.5)"/><line class="cls-1" x1="77.69" y1="190.5" x2="102.69" y2="190.5"/><path class="cls-4" d="M200,343.76a3.76,3.76,0,1,1,3.76-3.76A3.76,3.76,0,0,1,200,343.76Z" transform="translate(-122.31 -149.5)"/><path class="cls-5" d="M200,344.26a4.26,4.26,0,1,0-4.26-4.26,4.26,4.26,0,0,0,4.26,4.26Zm0-7.52a3.26,3.26,0,1,1-3.26,3.26,3.26,3.26,0,0,1,3.26-3.26Z" transform="translate(-122.31 -149.5)"/><path class="cls-6" d="M275,335" transform="translate(-122.31 -149.5)"/><path class="cls-6" d="M285,330" transform="translate(-122.31 -149.5)"/><line class="cls-1" x1="147.69" y1="165.5" x2="147.69" y2="195.5"/><line class="cls-1" x1="142.69" y1="185.5" x2="152.69" y2="185.5"/><polygon class="cls-6" points="147.69 185.5 152.69 175.5 142.69 175.5 147.69 185.5"/><line class="cls-1" x1="137.69" y1="175.5" x2="132.07" y2="181.11"/><polygon class="cls-5" points="131.62 178.7 127.69 185.5 134.49 181.57 131.62 178.7"/><line class="cls-1" x1="137.69" y1="180.5" x2="132.07" y2="186.11"/><polygon class="cls-5" points="131.62 183.7 127.69 190.5 134.49 186.57 131.62 183.7"/><path class="cls-1" d="M235,340" transform="translate(-122.31 -149.5)"/><polyline class="cls-1" points="122.69 180.5 112.69 190.5 112.69 195.5"/><line class="cls-8" x1="122.69" y1="170.5" x2="122.69" y2="190.5"/><polyline class="cls-1" points="112.69 165.5 112.69 170.5 117.69 175.5 122.69 180.5"/><line class="cls-1" x1="122.69" y1="180.5" x2="117.07" y2="186.11"/><polygon class="cls-5" points="116.62 183.7 112.69 190.5 119.49 186.57 116.62 183.7"/><rect class="cls-1" x="102.69" y="160.5" width="55" height="40"/><text class="cls-9" transform="translate(38.9 185.5)">DO1</text><line class="cls-5" x1="172.69" y1="180.5" x2="157.69" y2="180.5"/><line class="cls-1" x1="172.69" y1="180.5" x2="163.89" y2="180.5"/><polygon class="cls-5" points="165.28 178.47 157.69 180.5 165.28 182.53 165.28 178.47"/><line class="cls-1" x1="77.69" y1="220.5" x2="102.69" y2="220.5"/><path class="cls-4" d="M200,373.76a3.76,3.76,0,1,1,3.76-3.76A3.76,3.76,0,0,1,200,373.76Z" transform="translate(-122.31 -149.5)"/><path class="cls-5" d="M200,374.26a4.26,4.26,0,1,0-4.26-4.26,4.26,4.26,0,0,0,4.26,4.26Zm0-7.52a3.26,3.26,0,1,1-3.26,3.26,3.26,3.26,0,0,1,3.26-3.26Z" transform="translate(-122.31 -149.5)"/><line class="cls-1" x1="77.69" y1="240.5" x2="102.69" y2="240.5"/><path class="cls-4" d="M200,393.76a3.76,3.76,0,1,1,3.76-3.76A3.76,3.76,0,0,1,200,393.76Z" transform="translate(-122.31 -149.5)"/><path class="cls-5" d="M200,394.26a4.26,4.26,0,1,0-4.26-4.26,4.26,4.26,0,0,0,4.26,4.26Zm0-7.52a3.26,3.26,0,1,1-3.26,3.26,3.26,3.26,0,0,1,3.26-3.26Z" transform="translate(-122.31 -149.5)"/><path class="cls-6" d="M275,385" transform="translate(-122.31 -149.5)"/><path class="cls-6" d="M285,380" transform="translate(-122.31 -149.5)"/><line class="cls-1" x1="147.69" y1="215.5" x2="147.69" y2="245.5"/><line class="cls-1" x1="142.69" y1="235.5" x2="152.69" y2="235.5"/><polygon class="cls-6" points="147.69 235.5 152.69 225.5 142.69 225.5 147.69 235.5"/><line class="cls-1" x1="137.69" y1="225.5" x2="132.07" y2="231.11"/><polygon class="cls-5" points="131.62 228.7 127.69 235.5 134.49 231.57 131.62 228.7"/><line class="cls-1" x1="137.69" y1="230.5" x2="132.07" y2="236.11"/><polygon class="cls-5" points="131.62 233.7 127.69 240.5 134.49 236.57 131.62 233.7"/><path class="cls-1" d="M235,390" transform="translate(-122.31 -149.5)"/><polyline class="cls-1" points="122.69 230.5 112.69 240.5 112.69 245.5"/><line class="cls-8" x1="122.69" y1="220.5" x2="122.69" y2="240.5"/><polyline class="cls-1" points="112.69 215.5 112.69 220.5 117.69 225.5 122.69 230.5"/><line class="cls-1" x1="122.69" y1="230.5" x2="117.07" y2="236.11"/><polygon class="cls-5" points="116.62 233.7 112.69 240.5 119.49 236.57 116.62 233.7"/><rect class="cls-1" x="102.69" y="210.5" width="55" height="40"/><text class="cls-9" transform="translate(38.9 235.5)">DO2</text><line class="cls-5" x1="172.69" y1="230.5" x2="157.69" y2="230.5"/><line class="cls-1" x1="172.69" y1="230.5" x2="163.89" y2="230.5"/><polygon class="cls-5" points="165.28 228.47 157.69 230.5 165.28 232.53 165.28 228.47"/><line class="cls-1" x1="77.69" y1="270.5" x2="102.69" y2="270.5"/><path class="cls-4" d="M200,423.76a3.76,3.76,0,1,1,3.76-3.76A3.76,3.76,0,0,1,200,423.76Z" transform="translate(-122.31 -149.5)"/><path class="cls-5" d="M200,424.26a4.26,4.26,0,1,0-4.26-4.26,4.26,4.26,0,0,0,4.26,4.26Zm0-7.52a3.26,3.26,0,1,1-3.26,3.26,3.26,3.26,0,0,1,3.26-3.26Z" transform="translate(-122.31 -149.5)"/><line class="cls-1" x1="77.69" y1="290.5" x2="102.69" y2="290.5"/><path class="cls-4" d="M200,443.76a3.76,3.76,0,1,1,3.76-3.76A3.76,3.76,0,0,1,200,443.76Z" transform="translate(-122.31 -149.5)"/><path class="cls-5" d="M200,444.26a4.26,4.26,0,1,0-4.26-4.26,4.26,4.26,0,0,0,4.26,4.26Zm0-7.52a3.26,3.26,0,1,1-3.26,3.26,3.26,3.26,0,0,1,3.26-3.26Z" transform="translate(-122.31 -149.5)"/><path class="cls-6" d="M275,435" transform="translate(-122.31 -149.5)"/><path class="cls-6" d="M285,430" transform="translate(-122.31 -149.5)"/><line class="cls-1" x1="147.69" y1="265.5" x2="147.69" y2="295.5"/><line class="cls-1" x1="142.69" y1="285.5" x2="152.69" y2="285.5"/><polygon class="cls-6" points="147.69 285.5 152.69 275.5 142.69 275.5 147.69 285.5"/><line class="cls-1" x1="137.69" y1="275.5" x2="132.07" y2="281.11"/><polygon class="cls-5" points="131.62 278.7 127.69 285.5 134.49 281.57 131.62 278.7"/><line class="cls-1" x1="137.69" y1="280.5" x2="132.07" y2="286.11"/><polygon class="cls-5" points="131.62 283.7 127.69 290.5 134.49 286.57 131.62 283.7"/><path class="cls-1" d="M235,440" transform="translate(-122.31 -149.5)"/><polyline class="cls-1" points="122.69 280.5 112.69 290.5 112.69 295.5"/><line class="cls-8" x1="122.69" y1="270.5" x2="122.69" y2="290.5"/><polyline class="cls-1" points="112.69 265.5 112.69 270.5 117.69 275.5 122.69 280.5"/><line class="cls-1" x1="122.69" y1="280.5" x2="117.07" y2="286.11"/><polygon class="cls-5" points="116.62 283.7 112.69 290.5 119.49 286.57 116.62 283.7"/><rect class="cls-1" x="102.69" y="260.5" width="55" height="40"/><text class="cls-9" transform="translate(38.9 285.5)">DO3</text><line class="cls-5" x1="172.69" y1="280.5" x2="157.69" y2="280.5"/><line class="cls-1" x1="172.69" y1="280.5" x2="163.89" y2="280.5"/><polygon class="cls-5" points="165.28 278.47 157.69 280.5 165.28 282.53 165.28 278.47"/><line class="cls-1" x1="77.69" y1="320.5" x2="102.69" y2="320.5"/><path class="cls-4" d="M200,473.76a3.76,3.76,0,1,1,3.76-3.76A3.76,3.76,0,0,1,200,473.76Z" transform="translate(-122.31 -149.5)"/><path class="cls-5" d="M200,474.26a4.26,4.26,0,1,0-4.26-4.26,4.26,4.26,0,0,0,4.26,4.26Zm0-7.52a3.26,3.26,0,1,1-3.26,3.26,3.26,3.26,0,0,1,3.26-3.26Z" transform="translate(-122.31 -149.5)"/><line class="cls-1" x1="77.69" y1="340.5" x2="102.69" y2="340.5"/><path class="cls-4" d="M200,493.76a3.76,3.76,0,1,1,3.76-3.76A3.76,3.76,0,0,1,200,493.76Z" transform="translate(-122.31 -149.5)"/><path class="cls-5" d="M200,494.26a4.26,4.26,0,1,0-4.26-4.26,4.26,4.26,0,0,0,4.26,4.26Zm0-7.52a3.26,3.26,0,1,1-3.26,3.26,3.26,3.26,0,0,1,3.26-3.26Z" transform="translate(-122.31 -149.5)"/><path class="cls-6" d="M275,485" transform="translate(-122.31 -149.5)"/><path class="cls-6" d="M285,480" transform="translate(-122.31 -149.5)"/><line class="cls-1" x1="147.69" y1="315.5" x2="147.69" y2="345.5"/><line class="cls-1" x1="142.69" y1="335.5" x2="152.69" y2="335.5"/><polygon class="cls-6" points="147.69 335.5 152.69 325.5 142.69 325.5 147.69 335.5"/><line class="cls-1" x1="137.69" y1="325.5" x2="132.07" y2="331.11"/><polygon class="cls-5" points="131.62 328.7 127.69 335.5 134.49 331.57 131.62 328.7"/><line class="cls-1" x1="137.69" y1="330.5" x2="132.07" y2="336.11"/><polygon class="cls-5" points="131.62 333.7 127.69 340.5 134.49 336.57 131.62 333.7"/><path class="cls-1" d="M235,490" transform="translate(-122.31 -149.5)"/><polyline class="cls-1" points="122.69 330.5 112.69 340.5 112.69 345.5"/><line class="cls-8" x1="122.69" y1="320.5" x2="122.69" y2="340.5"/><polyline class="cls-1" points="112.69 315.5 112.69 320.5 117.69 325.5 122.69 330.5"/><line class="cls-1" x1="122.69" y1="330.5" x2="117.07" y2="336.11"/><polygon class="cls-5" points="116.62 333.7 112.69 340.5 119.49 336.57 116.62 333.7"/><rect class="cls-1" x="102.69" y="310.5" width="55" height="40"/><text class="cls-9" transform="translate(38.9 335.5)">DO4</text><line class="cls-5" x1="172.69" y1="330.5" x2="157.69" y2="330.5"/><line class="cls-1" x1="172.69" y1="330.5" x2="163.89" y2="330.5"/><polygon class="cls-5" points="165.28 328.47 157.69 330.5 165.28 332.53 165.28 328.47"/><line class="cls-5" x1="222.69" y1="175.5" x2="207.69" y2="175.5"/><line class="cls-1" x1="222.69" y1="175.5" x2="213.89" y2="175.5"/><polygon class="cls-5" points="215.28 173.47 207.69 175.5 215.28 177.53 215.28 173.47"/><line class="cls-1" x1="277.69" y1="290.5" x2="302.69" y2="290.5"/><path class="cls-4" d="M425,443.76a3.76,3.76,0,1,0-3.76-3.76A3.76,3.76,0,0,0,425,443.76Z" transform="translate(-122.31 -149.5)"/><path class="cls-5" d="M425,444.26a4.26,4.26,0,1,1,4.26-4.26,4.26,4.26,0,0,1-4.26,4.26Zm0-7.52a3.26,3.26,0,1,0,3.26,3.26,3.26,3.26,0,0,0-3.26-3.26Z" transform="translate(-122.31 -149.5)"/><path class="cls-6" d="M395,435" transform="translate(-122.31 -149.5)"/><path class="cls-6" d="M405,430" transform="translate(-122.31 -149.5)"/><line class="cls-1" x1="267.69" y1="265.5" x2="267.69" y2="295.5"/><line class="cls-1" x1="262.69" y1="285.5" x2="272.69" y2="285.5"/><polygon class="cls-6" points="267.69 285.5 272.69 275.5 262.69 275.5 267.69 285.5"/><line class="cls-1" x1="257.69" y1="275.5" x2="252.07" y2="281.11"/><polygon class="cls-5" points="251.62 278.7 247.69 285.5 254.49 281.57 251.62 278.7"/><line class="cls-1" x1="257.69" y1="280.5" x2="252.07" y2="286.11"/><polygon class="cls-5" points="251.62 283.7 247.69 290.5 254.49 286.57 251.62 283.7"/><path class="cls-1" d="M355,440" transform="translate(-122.31 -149.5)"/><polyline class="cls-1" points="242.69 280.5 232.69 290.5 232.69 295.5"/><line class="cls-8" x1="242.69" y1="270.5" x2="242.69" y2="290.5"/><polyline class="cls-1" points="232.69 265.5 232.69 270.5 237.69 275.5 242.69 280.5"/><line class="cls-1" x1="242.69" y1="280.5" x2="237.07" y2="286.11"/><polygon class="cls-5" points="236.62 283.7 232.69 290.5 239.49 286.57 236.62 283.7"/><rect class="cls-1" x="222.69" y="260.5" width="55" height="40"/><text class="cls-9" transform="translate(310.9 285.5)">DI3</text><line class="cls-1" x1="277.69" y1="270.5" x2="302.69" y2="270.5"/><path class="cls-4" d="M425,423.76a3.76,3.76,0,1,0-3.76-3.76A3.76,3.76,0,0,0,425,423.76Z" transform="translate(-122.31 -149.5)"/><path class="cls-5" d="M425,424.26a4.26,4.26,0,1,1,4.26-4.26,4.26,4.26,0,0,1-4.26,4.26Zm0-7.52a3.26,3.26,0,1,0,3.26,3.26,3.26,3.26,0,0,0-3.26-3.26Z" transform="translate(-122.31 -149.5)"/><line class="cls-5" x1="221.81" y1="280.14" x2="206.81" y2="280.14"/><line class="cls-1" x1="221.81" y1="280.14" x2="213.01" y2="280.14"/><polygon class="cls-5" points="214.4 278.11 206.81 280.14 214.4 282.18 214.4 278.11"/><line class="cls-1" x1="277.69" y1="240.5" x2="302.69" y2="240.5"/><path class="cls-4" d="M425,393.76a3.76,3.76,0,1,0-3.76-3.76A3.76,3.76,0,0,0,425,393.76Z" transform="translate(-122.31 -149.5)"/><path class="cls-5" d="M425,394.26a4.26,4.26,0,1,1,4.26-4.26,4.26,4.26,0,0,1-4.26,4.26Zm0-7.52a3.26,3.26,0,1,0,3.26,3.26,3.26,3.26,0,0,0-3.26-3.26Z" transform="translate(-122.31 -149.5)"/><path class="cls-6" d="M395,385" transform="translate(-122.31 -149.5)"/><path class="cls-6" d="M405,380" transform="translate(-122.31 -149.5)"/><line class="cls-1" x1="267.69" y1="215.5" x2="267.69" y2="245.5"/><line class="cls-1" x1="262.69" y1="235.5" x2="272.69" y2="235.5"/><polygon class="cls-6" points="267.69 235.5 272.69 225.5 262.69 225.5 267.69 235.5"/><line class="cls-1" x1="257.69" y1="225.5" x2="252.07" y2="231.11"/><polygon class="cls-5" points="251.62 228.7 247.69 235.5 254.49 231.57 251.62 228.7"/><line class="cls-1" x1="257.69" y1="230.5" x2="252.07" y2="236.11"/><polygon class="cls-5" points="251.62 233.7 247.69 240.5 254.49 236.57 251.62 233.7"/><path class="cls-1" d="M355,390" transform="translate(-122.31 -149.5)"/><polyline class="cls-1" points="242.69 230.5 232.69 240.5 232.69 245.5"/><line class="cls-8" x1="242.69" y1="220.5" x2="242.69" y2="240.5"/><polyline class="cls-1" points="232.69 215.5 232.69 220.5 237.69 225.5 242.69 230.5"/><line class="cls-1" x1="242.69" y1="230.5" x2="237.07" y2="236.11"/><polygon class="cls-5" points="236.62 233.7 232.69 240.5 239.49 236.57 236.62 233.7"/><rect class="cls-1" x="222.69" y="210.5" width="55" height="40"/><text class="cls-9" transform="translate(310.9 235.5)">DI2</text><line class="cls-1" x1="277.69" y1="220.5" x2="302.69" y2="220.5"/><path class="cls-4" d="M425,373.76a3.76,3.76,0,1,0-3.76-3.76A3.76,3.76,0,0,0,425,373.76Z" transform="translate(-122.31 -149.5)"/><path class="cls-5" d="M425,374.26a4.26,4.26,0,1,1,4.26-4.26,4.26,4.26,0,0,1-4.26,4.26Zm0-7.52a3.26,3.26,0,1,0,3.26,3.26,3.26,3.26,0,0,0-3.26-3.26Z" transform="translate(-122.31 -149.5)"/><line class="cls-5" x1="222.69" y1="230.5" x2="207.69" y2="230.5"/><line class="cls-1" x1="222.69" y1="230.5" x2="213.89" y2="230.5"/><polygon class="cls-5" points="215.28 228.47 207.69 230.5 215.28 232.53 215.28 228.47"/><line class="cls-1" x1="277.69" y1="340.5" x2="302.69" y2="340.5"/><path class="cls-4" d="M425,493.76a3.76,3.76,0,1,0-3.76-3.76A3.76,3.76,0,0,0,425,493.76Z" transform="translate(-122.31 -149.5)"/><path class="cls-5" d="M425,494.26a4.26,4.26,0,1,1,4.26-4.26,4.26,4.26,0,0,1-4.26,4.26Zm0-7.52a3.26,3.26,0,1,0,3.26,3.26,3.26,3.26,0,0,0-3.26-3.26Z" transform="translate(-122.31 -149.5)"/><path class="cls-6" d="M395,485" transform="translate(-122.31 -149.5)"/><path class="cls-6" d="M405,480" transform="translate(-122.31 -149.5)"/><line class="cls-1" x1="267.69" y1="315.5" x2="267.69" y2="345.5"/><line class="cls-1" x1="262.69" y1="335.5" x2="272.69" y2="335.5"/><polygon class="cls-6" points="267.69 335.5 272.69 325.5 262.69 325.5 267.69 335.5"/><line class="cls-1" x1="257.69" y1="325.5" x2="252.07" y2="331.11"/><polygon class="cls-5" points="251.62 328.7 247.69 335.5 254.49 331.57 251.62 328.7"/><line class="cls-1" x1="257.69" y1="330.5" x2="252.07" y2="336.11"/><polygon class="cls-5" points="251.62 333.7 247.69 340.5 254.49 336.57 251.62 333.7"/><path class="cls-1" d="M355,490" transform="translate(-122.31 -149.5)"/><polyline class="cls-1" points="242.69 330.5 232.69 340.5 232.69 345.5"/><line class="cls-8" x1="242.69" y1="320.5" x2="242.69" y2="340.5"/><polyline class="cls-1" points="232.69 315.5 232.69 320.5 237.69 325.5 242.69 330.5"/><line class="cls-1" x1="242.69" y1="330.5" x2="237.07" y2="336.11"/><polygon class="cls-5" points="236.62 333.7 232.69 340.5 239.49 336.57 236.62 333.7"/><rect class="cls-1" x="222.69" y="310.5" width="55" height="40"/><text class="cls-9" transform="translate(310.9 335.5)">DI4</text><line class="cls-1" x1="277.69" y1="320.5" x2="302.69" y2="320.5"/><path class="cls-4" d="M425,473.76a3.76,3.76,0,1,0-3.76-3.76A3.76,3.76,0,0,0,425,473.76Z" transform="translate(-122.31 -149.5)"/><path class="cls-5" d="M425,474.26a4.26,4.26,0,1,1,4.26-4.26,4.26,4.26,0,0,1-4.26,4.26Zm0-7.52a3.26,3.26,0,1,0,3.26,3.26,3.26,3.26,0,0,0-3.26-3.26Z" transform="translate(-122.31 -149.5)"/><line class="cls-5" x1="222.69" y1="330.5" x2="207.69" y2="330.5"/><line class="cls-1" x1="222.69" y1="330.5" x2="213.89" y2="330.5"/><polygon class="cls-5" points="215.28 328.47 207.69 330.5 215.28 332.53 215.28 328.47"/></svg>