<?xml version="1.0" encoding="UTF-8"?><svg id="Layer_1" xmlns="http://www.w3.org/2000/svg" xmlns:xlink="http://www.w3.org/1999/xlink" viewBox="0 0 326.62 344.28"><defs><clipPath id="clippath"><polyline points="52.52 344.28 200.96 344.28 200.96 0 52.52 0 52.52 344.28" style="fill:none;"/></clipPath></defs><g style="clip-path:url(#clippath);"><polyline points="123.86 328.08 123.86 328.02 123.92 327.9 123.92 327.78 123.92 327.72 123.92 327.6 123.92 327.54 123.92 327.42 123.92 327.3 123.92 327.24 123.92 327.12 123.86 327 123.86 326.94 123.8 326.82 123.74 326.7 123.74 326.64 123.68 326.52 123.62 326.46 123.56 326.34 123.5 326.28 123.44 326.22 123.38 326.16 123.26 326.04 123.2 325.98 123.14 325.92 123.02 325.86 122.96 325.8 122.84 325.8 122.78 325.74 122.72 325.68 122.6 325.68 122.54 325.62 122.42 325.62 122.36 325.56 122.24 325.56 122.18 325.5 122.12 325.5 122 325.44 121.94 325.38 121.88 325.32 121.82 325.26 121.76 325.14 121.7 325.08 121.64 325.02 121.64 324.9 121.58 324.84 121.58 324.72 121.58 324.6 121.58 324.54" style="fill:none; stroke:#000; stroke-linecap:round; stroke-linejoin:round; stroke-width:1.02px;"/><path d="M121.58,324.51c0,2,1.07,3.86,2.81,4.86" style="fill:none; stroke:#000; stroke-linecap:round; stroke-linejoin:round; stroke-width:1.02px;"/><polyline points="123.86 328.08 123.8 328.14 123.8 328.26 123.8 328.32 123.8 328.44 123.8 328.5 123.8 328.62 123.86 328.68 123.86 328.8 123.92 328.86 123.98 328.98 123.98 329.04 124.04 329.1 124.16 329.22 124.22 329.28 124.28 329.34 124.34 329.4" style="fill:none; stroke:#000; stroke-linecap:round; stroke-linejoin:round; stroke-width:1.02px;"/><polyline points="131.9 325.62 132.02 325.56 132.08 325.56 132.14 325.5 132.26 325.5 132.32 325.44 132.38 325.38 132.44 325.32 132.5 325.26 132.56 325.14 132.62 325.08 132.68 325.02 132.68 324.9 132.74 324.84 132.74 324.72 132.74 324.6 132.74 324.54 132.74 324.42 132.74 324.36 132.74 324.24 132.68 324.12 132.68 324.06 132.62 323.94 132.56 323.88 132.5 323.82 132.44 323.76 132.38 323.7 132.32 323.64 132.26 323.58 132.14 323.52 132.08 323.52 132.02 323.46 131.9 323.46 131.84 323.4 131.72 323.4 131.66 323.34 131.54 323.34 131.48 323.28 131.36 323.22 131.3 323.16 131.24 323.1 131.12 323.04 131.06 322.98 131 322.92 130.88 322.86 130.82 322.74 130.76 322.68 130.7 322.62 130.64 322.5 130.64 322.44 130.58 322.32 130.52 322.2 130.52 322.14 130.46 322.02 130.46 321.9 130.4 321.84 130.4 321.72 130.4 321.6 130.4 321.54 130.4 321.42 130.4 321.36 130.4 321.24 130.46 321.18 130.46 321.06 130.46 320.94 130.52 320.88 130.52 320.82 130.52 320.7 130.52 320.64 130.52 320.52 130.52 320.46 130.46 320.34 130.46 320.28 130.4 320.16 130.4 320.1 130.34 319.98 130.28 319.92 130.22 319.86 130.1 319.8 130.04 319.74 129.98 319.68 129.86 319.62 129.8 319.62 129.68 319.56 129.62 319.56 129.5 319.5 129.38 319.5 129.32 319.5 129.2 319.56 129.14 319.56 129.02 319.56 128.96 319.62 128.9 319.68 128.78 319.68 128.72 319.74 128.66 319.8 128.6 319.86 128.54 319.92 128.48 319.98 128.36 320.04 128.3 320.1 128.24 320.16 128.12 320.22 128.06 320.28 128 320.34 127.88 320.34 127.76 320.4 127.7 320.4 127.58 320.46 127.46 320.46 127.4 320.46 127.28 320.46 127.16 320.52 127.04 320.46 126.98 320.46 126.86 320.46 126.74 320.46 126.68 320.4 126.56 320.4 126.44 320.34 126.38 320.34 126.26 320.28 126.2 320.22 126.08 320.16 126.02 320.1 125.96 320.04 125.9 319.98 125.78 319.92 125.72 319.86 125.66 319.8 125.6 319.74 125.54 319.68 125.48 319.68 125.36 319.62 125.3 319.56 125.18 319.56 125.12 319.56 125 319.5 124.94 319.5 124.82 319.5 124.7 319.56 124.64 319.56 124.52 319.62 124.46 319.62 124.34 319.68 124.28 319.74 124.22 319.8 124.16 319.86 124.04 319.92 123.98 319.98 123.98 320.1 123.92 320.16 123.86 320.28 123.86 320.34 123.8 320.46 123.8 320.52 123.8 320.64 123.8 320.7 123.8 320.82 123.8 320.88 123.86 320.94 123.86 321.06 123.92 321.18 123.92 321.24 123.92 321.36 123.92 321.42 123.92 321.54 123.92 321.6 123.92 321.72 123.92 321.84 123.92 321.9 123.86 322.02 123.86 322.14 123.8 322.2 123.74 322.32 123.74 322.44 123.68 322.5 123.62 322.62 123.56 322.68 123.5 322.74 123.44 322.86 123.38 322.92 123.26 322.98 123.2 323.04 123.14 323.1 123.02 323.16 122.96 323.22 122.84 323.28 122.78 323.34 122.72 323.34 122.6 323.4 122.54 323.4 122.42 323.46 122.36 323.46 122.24 323.52 122.18 323.52 122.12 323.58 122 323.64 121.94 323.7 121.88 323.76 121.82 323.82 121.76 323.88 121.7 323.94 121.64 324.06 121.64 324.12 121.58 324.24 121.58 324.36 121.58 324.42 121.58 324.54" style="fill:none; stroke:#000; stroke-linecap:round; stroke-linejoin:round; stroke-width:1.02px;"/><path d="M137.84,324.51c0-5.88-4.77-10.65-10.65-10.65s-10.65,4.77-10.65,10.65,4.77,10.65,10.65,10.65,10.65-4.77,10.65-10.65" style="fill:none; stroke:#000; stroke-linecap:round; stroke-linejoin:round; stroke-width:1.02px;"/><path d="M124.38,319.65c-1.74,1-2.81,2.85-2.81,4.86" style="fill:none; stroke:#000; stroke-linecap:round; stroke-linejoin:round; stroke-width:1.02px;"/><path d="M129.99,319.65c-1.74-1-3.87-1-5.61,0" style="fill:none; stroke:#000; stroke-linecap:round; stroke-linejoin:round; stroke-width:1.02px;"/><path d="M132.8,324.51c0-2-1.07-3.86-2.81-4.86" style="fill:none; stroke:#000; stroke-linecap:round; stroke-linejoin:round; stroke-width:1.02px;"/><path d="M129.99,329.37c1.74-1,2.81-2.85,2.81-4.86" style="fill:none; stroke:#000; stroke-linecap:round; stroke-linejoin:round; stroke-width:1.02px;"/><path d="M124.38,329.37c1.74,1,3.87,1,5.61,0" style="fill:none; stroke:#000; stroke-linecap:round; stroke-linejoin:round; stroke-width:1.02px;"/><polyline points="124.34 329.4 124.46 329.4 124.52 329.46 124.64 329.46 124.7 329.52 124.82 329.52 124.94 329.52 125 329.52 125.12 329.52 125.18 329.46 125.3 329.46 125.36 329.4 125.48 329.4 125.54 329.34 125.6 329.28 125.66 329.22 125.72 329.16" style="fill:none; stroke:#000; stroke-linecap:round; stroke-linejoin:round; stroke-width:1.02px;"/><polyline points="125.72 329.16 125.78 329.1 125.9 329.04 125.96 328.98 126.02 328.92 126.08 328.86 126.2 328.8 126.26 328.8 126.38 328.74 126.44 328.68 126.56 328.68 126.68 328.62 126.74 328.62 126.86 328.56 126.98 328.56 127.04 328.56 127.16 328.56 127.28 328.56 127.4 328.56 127.46 328.56 127.58 328.62 127.7 328.62 127.76 328.68 127.88 328.68 128 328.74 128.06 328.8 128.12 328.8 128.24 328.86 128.3 328.92 128.36 328.98 128.48 329.04 128.54 329.1 128.6 329.16 128.66 329.22 128.72 329.28 128.78 329.34 128.9 329.4 128.96 329.4 129.02 329.46 129.14 329.46 129.2 329.52 129.32 329.52 129.38 329.52 129.5 329.52 129.62 329.52 129.68 329.46 129.8 329.46 129.86 329.4 129.98 329.4 130.04 329.34 130.1 329.28 130.22 329.22 130.28 329.1 130.34 329.04 130.4 328.98 130.4 328.86 130.46 328.8 130.46 328.68 130.52 328.62 130.52 328.5 130.52 328.44 130.52 328.32 130.52 328.26 130.52 328.14 130.46 328.08 130.46 328.02 130.46 327.9 130.4 327.78 130.4 327.72 130.4 327.6 130.4 327.54 130.4 327.42 130.4 327.3 130.4 327.24 130.46 327.12 130.46 327 130.52 326.94 130.52 326.82 130.58 326.7 130.64 326.64 130.64 326.52 130.7 326.46 130.76 326.34 130.82 326.28 130.88 326.22 131 326.16 131.06 326.04 131.12 325.98 131.24 325.92 131.3 325.86 131.36 325.8 131.48 325.8 131.54 325.74 131.66 325.68 131.72 325.68 131.84 325.62 131.9 325.62" style="fill:none; stroke:#000; stroke-linecap:round; stroke-linejoin:round; stroke-width:1.02px;"/><polyline points="123.86 23.34 123.86 23.22 123.92 23.1 123.92 23.04 123.92 22.92 123.92 22.86 123.92 22.74 123.92 22.68 123.92 22.56 123.92 22.44 123.92 22.38 123.86 22.26 123.86 22.14 123.8 22.08 123.74 21.96 123.74 21.84 123.68 21.78 123.62 21.66 123.56 21.6 123.5 21.54 123.44 21.42 123.38 21.36 123.26 21.3 123.2 21.24 123.14 21.18 123.02 21.12 122.96 21.06 122.84 21 122.78 20.94 122.72 20.94 122.6 20.88 122.54 20.88 122.42 20.82 122.36 20.82 122.24 20.76 122.18 20.76 122.12 20.7 122 20.64 121.94 20.58 121.88 20.52 121.82 20.46 121.76 20.4 121.7 20.34 121.64 20.22 121.64 20.16 121.58 20.04 121.58 19.92 121.58 19.86 121.58 19.74" style="fill:none; stroke:#000; stroke-linecap:round; stroke-linejoin:round; stroke-width:1.02px;"/><path d="M121.58,19.71c0,2,1.07,3.86,2.81,4.86" style="fill:none; stroke:#000; stroke-linecap:round; stroke-linejoin:round; stroke-width:1.02px;"/><polyline points="123.86 23.34 123.8 23.4 123.8 23.46 123.8 23.58 123.8 23.64 123.8 23.76 123.8 23.82 123.86 23.94 123.86 24 123.92 24.12 123.98 24.18 123.98 24.3 124.04 24.36 124.16 24.42 124.22 24.48 124.28 24.54 124.34 24.6" style="fill:none; stroke:#000; stroke-linecap:round; stroke-linejoin:round; stroke-width:1.02px;"/><polyline points="131.9 20.82 132.02 20.82 132.08 20.76 132.14 20.76 132.26 20.7 132.32 20.64 132.38 20.58 132.44 20.52 132.5 20.46 132.56 20.4 132.62 20.34 132.68 20.22 132.68 20.16 132.74 20.04 132.74 19.92 132.74 19.86 132.74 19.74 132.74 19.68 132.74 19.56 132.74 19.44 132.68 19.38 132.68 19.26 132.62 19.2 132.56 19.14 132.5 19.02 132.44 18.96 132.38 18.9 132.32 18.84 132.26 18.78 132.14 18.78 132.08 18.72 132.02 18.72 131.9 18.66 131.84 18.66 131.72 18.6 131.66 18.6 131.54 18.54 131.48 18.48 131.36 18.48 131.3 18.42 131.24 18.36 131.12 18.3 131.06 18.24 131 18.12 130.88 18.06 130.82 18 130.76 17.94 130.7 17.82 130.64 17.76 130.64 17.64 130.58 17.58 130.52 17.46 130.52 17.34 130.46 17.28 130.46 17.16 130.4 17.04 130.4 16.98 130.4 16.86 130.4 16.74 130.4 16.68 130.4 16.56 130.4 16.5 130.46 16.38 130.46 16.26 130.46 16.2 130.52 16.14 130.52 16.02 130.52 15.96 130.52 15.84 130.52 15.78 130.52 15.66 130.46 15.6 130.46 15.48 130.4 15.42 130.4 15.3 130.34 15.24 130.28 15.18 130.22 15.06 130.1 15 130.04 14.94 129.98 14.88 129.86 14.88 129.8 14.82 129.68 14.82 129.62 14.76 129.5 14.76 129.38 14.76 129.32 14.76 129.2 14.76 129.14 14.82 129.02 14.82 128.96 14.88 128.9 14.88 128.78 14.94 128.72 15 128.66 15.06 128.6 15.12 128.54 15.18 128.48 15.24 128.36 15.3 128.3 15.36 128.24 15.42 128.12 15.48 128.06 15.48 128 15.54 127.88 15.6 127.76 15.6 127.7 15.66 127.58 15.66 127.46 15.72 127.4 15.72 127.28 15.72 127.16 15.72 127.04 15.72 126.98 15.72 126.86 15.72 126.74 15.66 126.68 15.66 126.56 15.6 126.44 15.6 126.38 15.54 126.26 15.48 126.2 15.48 126.08 15.42 126.02 15.36 125.96 15.3 125.9 15.24 125.78 15.18 125.72 15.12 125.66 15.06 125.6 15 125.54 14.94 125.48 14.88 125.36 14.88 125.3 14.82 125.18 14.82 125.12 14.76 125 14.76 124.94 14.76 124.82 14.76 124.7 14.76 124.64 14.82 124.52 14.82 124.46 14.88 124.34 14.88 124.28 14.94 124.22 15 124.16 15.06 124.04 15.18 123.98 15.24 123.98 15.3 123.92 15.42 123.86 15.48 123.86 15.6 123.8 15.66 123.8 15.78 123.8 15.84 123.8 15.96 123.8 16.02 123.8 16.14 123.86 16.2 123.86 16.26 123.92 16.38 123.92 16.5 123.92 16.56 123.92 16.68 123.92 16.74 123.92 16.86 123.92 16.98 123.92 17.04 123.92 17.16 123.86 17.28 123.86 17.34 123.8 17.46 123.74 17.58 123.74 17.64 123.68 17.76 123.62 17.82 123.56 17.94 123.5 18 123.44 18.06 123.38 18.12 123.26 18.24 123.2 18.3 123.14 18.36 123.02 18.42 122.96 18.48 122.84 18.48 122.78 18.54 122.72 18.6 122.6 18.6 122.54 18.66 122.42 18.66 122.36 18.72 122.24 18.72 122.18 18.78 122.12 18.78 122 18.84 121.94 18.9 121.88 18.96 121.82 19.02 121.76 19.14 121.7 19.2 121.64 19.26 121.64 19.38 121.58 19.44 121.58 19.56 121.58 19.68 121.58 19.74" style="fill:none; stroke:#000; stroke-linecap:round; stroke-linejoin:round; stroke-width:1.02px;"/><path d="M137.84,19.71c0-5.88-4.77-10.65-10.65-10.65s-10.65,4.77-10.65,10.65,4.77,10.65,10.65,10.65,10.65-4.77,10.65-10.65" style="fill:none; stroke:#000; stroke-linecap:round; stroke-linejoin:round; stroke-width:1.02px;"/><path d="M124.38,14.85c-1.74,1-2.81,2.85-2.81,4.86" style="fill:none; stroke:#000; stroke-linecap:round; stroke-linejoin:round; stroke-width:1.02px;"/><path d="M129.99,14.85c-1.74-1-3.87-1-5.61,0" style="fill:none; stroke:#000; stroke-linecap:round; stroke-linejoin:round; stroke-width:1.02px;"/><path d="M132.8,19.71c0-2-1.07-3.86-2.81-4.86" style="fill:none; stroke:#000; stroke-linecap:round; stroke-linejoin:round; stroke-width:1.02px;"/><path d="M129.99,24.57c1.74-1,2.81-2.85,2.81-4.86" style="fill:none; stroke:#000; stroke-linecap:round; stroke-linejoin:round; stroke-width:1.02px;"/><path d="M124.38,24.57c1.74,1,3.87,1,5.61,0" style="fill:none; stroke:#000; stroke-linecap:round; stroke-linejoin:round; stroke-width:1.02px;"/><polyline points="124.34 24.6 124.46 24.66 124.52 24.66 124.64 24.72 124.7 24.72 124.82 24.78 124.94 24.78 125 24.78 125.12 24.72 125.18 24.72 125.3 24.72 125.36 24.66 125.48 24.6 125.54 24.6 125.6 24.54 125.66 24.48 125.72 24.42" style="fill:none; stroke:#000; stroke-linecap:round; stroke-linejoin:round; stroke-width:1.02px;"/><polyline points="125.72 24.42 125.78 24.36 125.9 24.3 125.96 24.24 126.02 24.18 126.08 24.12 126.2 24.06 126.26 24 126.38 23.94 126.44 23.94 126.56 23.88 126.68 23.88 126.74 23.82 126.86 23.82 126.98 23.82 127.04 23.82 127.16 23.76 127.28 23.82 127.4 23.82 127.46 23.82 127.58 23.82 127.7 23.88 127.76 23.88 127.88 23.94 128 23.94 128.06 24 128.12 24.06 128.24 24.12 128.3 24.18 128.36 24.24 128.48 24.3 128.54 24.36 128.6 24.42 128.66 24.48 128.72 24.54 128.78 24.6 128.9 24.6 128.96 24.66 129.02 24.72 129.14 24.72 129.2 24.72 129.32 24.78 129.38 24.78 129.5 24.78 129.62 24.72 129.68 24.72 129.8 24.66 129.86 24.66 129.98 24.6 130.04 24.54 130.1 24.48 130.22 24.42 130.28 24.36 130.34 24.3 130.4 24.18 130.4 24.12 130.46 24 130.46 23.94 130.52 23.82 130.52 23.76 130.52 23.64 130.52 23.58 130.52 23.46 130.52 23.4 130.46 23.34 130.46 23.22 130.46 23.1 130.4 23.04 130.4 22.92 130.4 22.86 130.4 22.74 130.4 22.68 130.4 22.56 130.4 22.44 130.46 22.38 130.46 22.26 130.52 22.14 130.52 22.08 130.58 21.96 130.64 21.84 130.64 21.78 130.7 21.66 130.76 21.6 130.82 21.54 130.88 21.42 131 21.36 131.06 21.3 131.12 21.24 131.24 21.18 131.3 21.12 131.36 21.06 131.48 21 131.54 20.94 131.66 20.94 131.72 20.88 131.84 20.88 131.9 20.82" style="fill:none; stroke:#000; stroke-linecap:round; stroke-linejoin:round; stroke-width:1.02px;"/><line x1="134" y1="224.16" x2="134" y2="225.42" style="fill:none; stroke:#000; stroke-linecap:round; stroke-linejoin:round; stroke-width:1.02px;"/><path d="M134.06,225.39c0,.31,.26,.57,.57,.57" style="fill:none; stroke:#000; stroke-linecap:round; stroke-linejoin:round; stroke-width:1.02px;"/><line x1="136.46" y1="225.96" x2="134.6" y2="225.96" style="fill:none; stroke:#000; stroke-linecap:round; stroke-linejoin:round; stroke-width:1.02px;"/><path d="M137.06,226.53c0-.31-.26-.57-.57-.57" style="fill:none; stroke:#000; stroke-linecap:round; stroke-linejoin:round; stroke-width:1.02px;"/><line x1="137.06" y1="230.34" x2="137.06" y2="226.56" style="fill:none; stroke:#000; stroke-linecap:round; stroke-linejoin:round; stroke-width:1.02px;"/><path d="M137.06,230.31c0,.31,.26,.57,.57,.57" style="fill:none; stroke:#000; stroke-linecap:round; stroke-linejoin:round; stroke-width:1.02px;"/><line x1="144.5" y1="230.88" x2="137.6" y2="230.88" style="fill:none; stroke:#000; stroke-linecap:round; stroke-linejoin:round; stroke-width:1.02px;"/><path d="M145.1,231.39c0-.31-.26-.57-.57-.57" style="fill:none; stroke:#000; stroke-linecap:round; stroke-linejoin:round; stroke-width:1.02px;"/><polyline points="145.46 237.48 145.04 237.48 145.04 231.42" style="fill:none; stroke:#000; stroke-linecap:round; stroke-linejoin:round; stroke-width:1.02px;"/><path d="M145.49,238.86c.25,0,.48-.14,.6-.36,.12-.22,.11-.49-.02-.7-.13-.21-.37-.33-.63-.32" style="fill:none; stroke:#000; stroke-linecap:round; stroke-linejoin:round; stroke-width:1.02px;"/><line x1="145.04" y1="238.92" x2="145.46" y2="238.92" style="fill:none; stroke:#000; stroke-linecap:round; stroke-linejoin:round; stroke-width:1.02px;"/><line x1="145.46" y1="244.62" x2="145.04" y2="244.56" style="fill:none; stroke:#000; stroke-linecap:round; stroke-linejoin:round; stroke-width:1.02px;"/><path d="M145.44,245.94c.25,.02,.49-.11,.63-.32,.13-.21,.14-.48,.02-.7-.12-.22-.35-.36-.6-.36" style="fill:none; stroke:#000; stroke-linecap:round; stroke-linejoin:round; stroke-width:1.02px;"/><polyline points="145.04 251.58 145.04 246 145.46 246" style="fill:none; stroke:#000; stroke-linecap:round; stroke-linejoin:round; stroke-width:1.02px;"/><path d="M144.53,252.12c.31,0,.57-.26,.57-.57" style="fill:none; stroke:#000; stroke-linecap:round; stroke-linejoin:round; stroke-width:1.02px;"/><line x1="109.88" y1="252.18" x2="144.5" y2="252.18" style="fill:none; stroke:#000; stroke-linecap:round; stroke-linejoin:round; stroke-width:1.02px;"/><path d="M109.34,251.55c0,.31,.26,.57,.57,.57" style="fill:none; stroke:#000; stroke-linecap:round; stroke-linejoin:round; stroke-width:1.02px;"/><polyline points="108.92 246 109.28 246 109.28 251.58" style="fill:none; stroke:#000; stroke-linecap:round; stroke-linejoin:round; stroke-width:1.02px;"/><path d="M108.89,244.56c-.25,0-.48,.14-.6,.36-.12,.22-.11,.49,.02,.7,.13,.21,.37,.33,.63,.32" style="fill:none; stroke:#000; stroke-linecap:round; stroke-linejoin:round; stroke-width:1.02px;"/><line x1="109.28" y1="244.56" x2="108.86" y2="244.62" style="fill:none; stroke:#000; stroke-linecap:round; stroke-linejoin:round; stroke-width:1.02px;"/><line x1="108.86" y1="238.92" x2="109.28" y2="238.92" style="fill:none; stroke:#000; stroke-linecap:round; stroke-linejoin:round; stroke-width:1.02px;"/><path d="M108.93,237.48c-.25-.02-.49,.11-.63,.32-.13,.21-.14,.48-.02,.7,.12,.22,.35,.36,.6,.36" style="fill:none; stroke:#000; stroke-linecap:round; stroke-linejoin:round; stroke-width:1.02px;"/><polyline points="109.28 231.42 109.28 237.48 108.92 237.48" style="fill:none; stroke:#000; stroke-linecap:round; stroke-linejoin:round; stroke-width:1.02px;"/><path d="M109.91,230.82c-.31,0-.57,.26-.57,.57" style="fill:none; stroke:#000; stroke-linecap:round; stroke-linejoin:round; stroke-width:1.02px;"/><line x1="116.72" y1="230.88" x2="109.88" y2="230.88" style="fill:none; stroke:#000; stroke-linecap:round; stroke-linejoin:round; stroke-width:1.02px;"/><path d="M116.75,230.88c.31,0,.57-.26,.57-.57" style="fill:none; stroke:#000; stroke-linecap:round; stroke-linejoin:round; stroke-width:1.02px;"/><line x1="117.32" y1="226.56" x2="117.32" y2="230.34" style="fill:none; stroke:#000; stroke-linecap:round; stroke-linejoin:round; stroke-width:1.02px;"/><path d="M117.89,225.96c-.31,0-.57,.26-.57,.57" style="fill:none; stroke:#000; stroke-linecap:round; stroke-linejoin:round; stroke-width:1.02px;"/><line x1="119.78" y1="225.96" x2="117.86" y2="225.96" style="fill:none; stroke:#000; stroke-linecap:round; stroke-linejoin:round; stroke-width:1.02px;"/><path d="M119.81,225.96c.31,0,.57-.26,.57-.57" style="fill:none; stroke:#000; stroke-linecap:round; stroke-linejoin:round; stroke-width:1.02px;"/><line x1="120.32" y1="224.16" x2="120.32" y2="225.42" style="fill:none; stroke:#000; stroke-linecap:round; stroke-linejoin:round; stroke-width:1.02px;"/><line x1="144.98" y1="226.2" x2="138.86" y2="226.2" style="fill:none; stroke:#000; stroke-linecap:round; stroke-linejoin:round; stroke-width:1.02px;"/><path d="M145.58,226.77c0-.31-.26-.57-.57-.57" style="fill:none; stroke:#000; stroke-linecap:round; stroke-linejoin:round; stroke-width:1.02px;"/><line x1="145.52" y1="229.2" x2="145.52" y2="226.8" style="fill:none; stroke:#000; stroke-linecap:round; stroke-linejoin:round; stroke-width:1.02px;"/><path d="M145.01,229.74c.31,0,.57-.26,.57-.57" style="fill:none; stroke:#000; stroke-linecap:round; stroke-linejoin:round; stroke-width:1.02px;"/><line x1="138.86" y1="229.74" x2="144.98" y2="229.74" style="fill:none; stroke:#000; stroke-linecap:round; stroke-linejoin:round; stroke-width:1.02px;"/><path d="M138.32,229.17c0,.31,.26,.57,.57,.57" style="fill:none; stroke:#000; stroke-linecap:round; stroke-linejoin:round; stroke-width:1.02px;"/><line x1="138.32" y1="226.8" x2="138.32" y2="229.2" style="fill:none; stroke:#000; stroke-linecap:round; stroke-linejoin:round; stroke-width:1.02px;"/><path d="M138.89,226.2c-.31,0-.57,.26-.57,.57" style="fill:none; stroke:#000; stroke-linecap:round; stroke-linejoin:round; stroke-width:1.02px;"/><line x1="109.4" y1="229.74" x2="115.46" y2="229.74" style="fill:none; stroke:#000; stroke-linecap:round; stroke-linejoin:round; stroke-width:1.02px;"/><path d="M108.86,229.17c0,.31,.26,.57,.57,.57" style="fill:none; stroke:#000; stroke-linecap:round; stroke-linejoin:round; stroke-width:1.02px;"/><line x1="108.8" y1="226.8" x2="108.8" y2="229.2" style="fill:none; stroke:#000; stroke-linecap:round; stroke-linejoin:round; stroke-width:1.02px;"/><path d="M109.43,226.2c-.31,0-.57,.26-.57,.57" style="fill:none; stroke:#000; stroke-linecap:round; stroke-linejoin:round; stroke-width:1.02px;"/><line x1="115.46" y1="226.2" x2="109.4" y2="226.2" style="fill:none; stroke:#000; stroke-linecap:round; stroke-linejoin:round; stroke-width:1.02px;"/><path d="M116.06,226.77c0-.31-.26-.57-.57-.57" style="fill:none; stroke:#000; stroke-linecap:round; stroke-linejoin:round; stroke-width:1.02px;"/><line x1="116.06" y1="229.2" x2="116.06" y2="226.8" style="fill:none; stroke:#000; stroke-linecap:round; stroke-linejoin:round; stroke-width:1.02px;"/><path d="M115.49,229.74c.31,0,.57-.26,.57-.57" style="fill:none; stroke:#000; stroke-linecap:round; stroke-linejoin:round; stroke-width:1.02px;"/><line x1="111.26" y1="229.74" x2="111.26" y2="226.2" style="fill:none; stroke:#000; stroke-linecap:round; stroke-linejoin:round; stroke-width:1.02px;"/><line x1="114.38" y1="229.74" x2="114.38" y2="226.2" style="fill:none; stroke:#000; stroke-linecap:round; stroke-linejoin:round; stroke-width:1.02px;"/><line x1="143.06" y1="229.74" x2="143.06" y2="226.2" style="fill:none; stroke:#000; stroke-linecap:round; stroke-linejoin:round; stroke-width:1.02px;"/><line x1="139.94" y1="229.74" x2="139.94" y2="226.2" style="fill:none; stroke:#000; stroke-linecap:round; stroke-linejoin:round; stroke-width:1.02px;"/><polyline points="120.32 224.16 120.32 223.74 120.32 223.38 120.32 223.14 120.32 223.02 105.56 223.02" style="fill:none; stroke:#000; stroke-linecap:round; stroke-linejoin:round; stroke-width:1.02px;"/><polyline points="120.32 223.02 120.44 223.02 120.74 223.02 133.58 223.02 133.88 223.02 134 223.02 148.82 223.02" style="fill:none; stroke:#000; stroke-linecap:round; stroke-linejoin:round; stroke-width:1.02px;"/><path d="M105.59,223.02c-.61,0-1.11,.5-1.11,1.11" style="fill:none; stroke:#000; stroke-linecap:round; stroke-linejoin:round; stroke-width:1.02px;"/><line x1="104.42" y1="224.16" x2="104.42" y2="269.22" style="fill:none; stroke:#000; stroke-linecap:round; stroke-linejoin:round; stroke-width:1.02px;"/><path d="M104.48,269.19c0,.61,.5,1.11,1.11,1.11" style="fill:none; stroke:#000; stroke-linecap:round; stroke-linejoin:round; stroke-width:1.02px;"/><line x1="105.56" y1="270.36" x2="148.82" y2="270.36" style="fill:none; stroke:#000; stroke-linecap:round; stroke-linejoin:round; stroke-width:1.02px;"/><path d="M148.85,270.3c.61,0,1.11-.5,1.11-1.11" style="fill:none; stroke:#000; stroke-linecap:round; stroke-linejoin:round; stroke-width:1.02px;"/><line x1="149.96" y1="269.22" x2="149.96" y2="224.16" style="fill:none; stroke:#000; stroke-linecap:round; stroke-linejoin:round; stroke-width:1.02px;"/><path d="M149.96,224.13c0-.61-.5-1.11-1.11-1.11" style="fill:none; stroke:#000; stroke-linecap:round; stroke-linejoin:round; stroke-width:1.02px;"/><polyline points="134 224.16 134 223.74 134 223.38 134 223.14 134 223.02" style="fill:none; stroke:#000; stroke-linecap:round; stroke-linejoin:round; stroke-width:1.02px;"/><polyline points="109.28 246.72 109.46 246.72 109.46 251.94 144.92 251.94" style="fill:none; stroke:#000; stroke-linecap:round; stroke-linejoin:round; stroke-width:1.02px;"/><polyline points="144.92 251.94 144.92 246.72 145.04 246.72" style="fill:none; stroke:#000; stroke-linecap:round; stroke-linejoin:round; stroke-width:1.02px;"/><line x1="117.38" y1="226.26" x2="117.38" y2="231.12" style="fill:none; stroke:#000; stroke-linecap:round; stroke-linejoin:round; stroke-width:1.02px;"/><polyline points="117.38 231.12 109.46 231.12 109.46 236.34 109.28 236.34" style="fill:none; stroke:#000; stroke-linecap:round; stroke-linejoin:round; stroke-width:1.02px;"/><polyline points="117.5 226.14 120.56 226.14 120.56 223.62 120.32 223.62" style="fill:none; stroke:#000; stroke-linecap:round; stroke-linejoin:round; stroke-width:1.02px;"/><polyline points="145.04 236.34 144.92 236.34 144.92 231.12 136.94 231.12 136.94 226.26" style="fill:none; stroke:#000; stroke-linecap:round; stroke-linejoin:round; stroke-width:1.02px;"/><line x1="133.76" y1="226.14" x2="136.88" y2="226.14" style="fill:none; stroke:#000; stroke-linecap:round; stroke-linejoin:round; stroke-width:1.02px;"/><polyline points="133.76 226.14 133.76 223.62 134 223.62" style="fill:none; stroke:#000; stroke-linecap:round; stroke-linejoin:round; stroke-width:1.02px;"/><polyline points="144.92 251.94 144.08 251.1 110.3 251.1 109.46 251.94" style="fill:none; stroke:#000; stroke-linecap:round; stroke-linejoin:round; stroke-width:1.02px;"/><polyline points="109.46 246.72 110.3 246.72 110.3 251.1" style="fill:none; stroke:#000; stroke-linecap:round; stroke-linejoin:round; stroke-width:1.02px;"/><polyline points="120.56 226.14 121.4 226.98 118.22 226.98 117.44 226.2" style="fill:none; stroke:#000; stroke-linecap:round; stroke-linejoin:round; stroke-width:1.02px;"/><polyline points="136.1 226.98 132.92 226.98 121.4 226.98" style="fill:none; stroke:#000; stroke-linecap:round; stroke-linejoin:round; stroke-width:1.02px;"/><polyline points="118.22 226.98 118.22 231.96 118.22 234.78" style="fill:none; stroke:#000; stroke-linecap:round; stroke-linejoin:round; stroke-width:1.02px;"/><line x1="118.22" y1="231.96" x2="117.38" y2="231.12" style="fill:none; stroke:#000; stroke-linecap:round; stroke-linejoin:round; stroke-width:1.02px;"/><polyline points="109.46 231.12 110.3 231.96 118.22 231.96" style="fill:none; stroke:#000; stroke-linecap:round; stroke-linejoin:round; stroke-width:1.02px;"/><line x1="110.3" y1="234.78" x2="118.22" y2="234.78" style="fill:none; stroke:#000; stroke-linecap:round; stroke-linejoin:round; stroke-width:1.02px;"/><polyline points="136.1 231.96 136.1 234.78 144.08 234.78" style="fill:none; stroke:#000; stroke-linecap:round; stroke-linejoin:round; stroke-width:1.02px;"/><line x1="136.7" y1="243.36" x2="137.9" y2="243.36" style="fill:none; stroke:#000; stroke-linecap:round; stroke-linejoin:round; stroke-width:1.02px;"/><line x1="133.82" y1="243.36" x2="135.02" y2="243.36" style="fill:none; stroke:#000; stroke-linecap:round; stroke-linejoin:round; stroke-width:1.02px;"/><line x1="130.94" y1="243.36" x2="132.14" y2="243.36" style="fill:none; stroke:#000; stroke-linecap:round; stroke-linejoin:round; stroke-width:1.02px;"/><line x1="128.06" y1="243.36" x2="129.2" y2="243.36" style="fill:none; stroke:#000; stroke-linecap:round; stroke-linejoin:round; stroke-width:1.02px;"/><line x1="125.12" y1="243.36" x2="126.32" y2="243.36" style="fill:none; stroke:#000; stroke-linecap:round; stroke-linejoin:round; stroke-width:1.02px;"/><line x1="122.24" y1="243.36" x2="123.44" y2="243.36" style="fill:none; stroke:#000; stroke-linecap:round; stroke-linejoin:round; stroke-width:1.02px;"/><line x1="119.36" y1="243.36" x2="120.56" y2="243.36" style="fill:none; stroke:#000; stroke-linecap:round; stroke-linejoin:round; stroke-width:1.02px;"/><line x1="116.48" y1="243.36" x2="117.62" y2="243.36" style="fill:none; stroke:#000; stroke-linecap:round; stroke-linejoin:round; stroke-width:1.02px;"/><line x1="144.08" y1="251.1" x2="144.08" y2="246.72" style="fill:none; stroke:#000; stroke-linecap:round; stroke-linejoin:round; stroke-width:1.02px;"/><line x1="144.08" y1="236.34" x2="144.08" y2="231.96" style="fill:none; stroke:#000; stroke-linecap:round; stroke-linejoin:round; stroke-width:1.02px;"/><polyline points="110.3 231.96 110.3 236.34 109.46 236.34" style="fill:none; stroke:#000; stroke-linecap:round; stroke-linejoin:round; stroke-width:1.02px;"/><polyline points="140.78 244.56 140.9 244.56 141.14 244.56 144.02 244.56 144.26 244.56 144.62 244.56 145.04 244.56" style="fill:none; stroke:#000; stroke-linecap:round; stroke-linejoin:round; stroke-width:1.02px;"/><polyline points="109.28 244.56 109.7 244.56 110.12 244.56 110.36 244.56 113.24 244.56 113.48 244.56 113.54 244.56" style="fill:none; stroke:#000; stroke-linecap:round; stroke-linejoin:round; stroke-width:1.02px;"/><polyline points="140.78 238.92 140.9 238.92 141.14 238.92 144.02 238.92 144.26 238.92 144.62 238.92 145.04 238.92" style="fill:none; stroke:#000; stroke-linecap:round; stroke-linejoin:round; stroke-width:1.02px;"/><polyline points="109.28 238.92 109.7 238.92 110.12 238.92 110.36 238.92 113.24 238.92 113.48 238.92 113.54 238.92" style="fill:none; stroke:#000; stroke-linecap:round; stroke-linejoin:round; stroke-width:1.02px;"/><line x1="144.92" y1="236.34" x2="144.08" y2="236.34" style="fill:none; stroke:#000; stroke-linecap:round; stroke-linejoin:round; stroke-width:1.02px;"/><line x1="144.92" y1="231.12" x2="144.08" y2="231.96" style="fill:none; stroke:#000; stroke-linecap:round; stroke-linejoin:round; stroke-width:1.02px;"/><polyline points="136.94 231.12 136.1 231.96 144.08 231.96" style="fill:none; stroke:#000; stroke-linecap:round; stroke-linejoin:round; stroke-width:1.02px;"/><polyline points="136.1 231.96 136.1 226.98 136.94 226.2" style="fill:none; stroke:#000; stroke-linecap:round; stroke-linejoin:round; stroke-width:1.02px;"/><polyline points="133.76 223.62 132.92 223.62 121.4 223.62 120.56 223.62" style="fill:none; stroke:#000; stroke-linecap:round; stroke-linejoin:round; stroke-width:1.02px;"/><polyline points="132.92 223.62 132.92 226.98 133.76 226.14" style="fill:none; stroke:#000; stroke-linecap:round; stroke-linejoin:round; stroke-width:1.02px;"/><line x1="121.4" y1="226.98" x2="121.4" y2="223.62" style="fill:none; stroke:#000; stroke-linecap:round; stroke-linejoin:round; stroke-width:1.02px;"/><line x1="144.08" y1="246.72" x2="144.92" y2="246.72" style="fill:none; stroke:#000; stroke-linecap:round; stroke-linejoin:round; stroke-width:1.02px;"/><line x1="137.9" y1="243.36" x2="137.9" y2="251.1" style="fill:none; stroke:#000; stroke-linecap:round; stroke-linejoin:round; stroke-width:1.02px;"/><line x1="136.7" y1="243.36" x2="136.7" y2="251.1" style="fill:none; stroke:#000; stroke-linecap:round; stroke-linejoin:round; stroke-width:1.02px;"/><line x1="135.02" y1="243.36" x2="135.02" y2="251.1" style="fill:none; stroke:#000; stroke-linecap:round; stroke-linejoin:round; stroke-width:1.02px;"/><line x1="133.82" y1="243.36" x2="133.82" y2="251.1" style="fill:none; stroke:#000; stroke-linecap:round; stroke-linejoin:round; stroke-width:1.02px;"/><line x1="132.14" y1="243.36" x2="132.14" y2="251.1" style="fill:none; stroke:#000; stroke-linecap:round; stroke-linejoin:round; stroke-width:1.02px;"/><line x1="130.94" y1="243.36" x2="130.94" y2="251.1" style="fill:none; stroke:#000; stroke-linecap:round; stroke-linejoin:round; stroke-width:1.02px;"/><line x1="129.2" y1="243.36" x2="129.2" y2="251.1" style="fill:none; stroke:#000; stroke-linecap:round; stroke-linejoin:round; stroke-width:1.02px;"/><line x1="128.06" y1="243.36" x2="128.06" y2="251.1" style="fill:none; stroke:#000; stroke-linecap:round; stroke-linejoin:round; stroke-width:1.02px;"/><line x1="126.32" y1="243.36" x2="126.32" y2="251.1" style="fill:none; stroke:#000; stroke-linecap:round; stroke-linejoin:round; stroke-width:1.02px;"/><line x1="125.12" y1="243.36" x2="125.12" y2="251.1" style="fill:none; stroke:#000; stroke-linecap:round; stroke-linejoin:round; stroke-width:1.02px;"/><line x1="123.44" y1="243.36" x2="123.44" y2="251.1" style="fill:none; stroke:#000; stroke-linecap:round; stroke-linejoin:round; stroke-width:1.02px;"/><line x1="122.24" y1="243.36" x2="122.24" y2="251.1" style="fill:none; stroke:#000; stroke-linecap:round; stroke-linejoin:round; stroke-width:1.02px;"/><line x1="120.56" y1="243.36" x2="120.56" y2="251.1" style="fill:none; stroke:#000; stroke-linecap:round; stroke-linejoin:round; stroke-width:1.02px;"/><line x1="119.36" y1="243.36" x2="119.36" y2="251.1" style="fill:none; stroke:#000; stroke-linecap:round; stroke-linejoin:round; stroke-width:1.02px;"/><line x1="117.62" y1="243.36" x2="117.62" y2="251.1" style="fill:none; stroke:#000; stroke-linecap:round; stroke-linejoin:round; stroke-width:1.02px;"/><line x1="116.48" y1="243.36" x2="116.48" y2="251.1" style="fill:none; stroke:#000; stroke-linecap:round; stroke-linejoin:round; stroke-width:1.02px;"/><path d="M133.37,270.3c-.17,0-.34,.05-.48,.14" style="fill:none; stroke:#000; stroke-linecap:round; stroke-linejoin:round; stroke-width:1.02px;"/><path d="M121.55,270.44c-.14-.09-.31-.15-.48-.15" style="fill:none; stroke:#000; stroke-linecap:round; stroke-linejoin:round; stroke-width:1.02px;"/><path d="M131.03,271.02c.67,0,1.32-.2,1.87-.57" style="fill:none; stroke:#000; stroke-linecap:round; stroke-linejoin:round; stroke-width:1.02px;"/><path d="M121.53,270.45c.56,.37,1.21,.57,1.87,.57" style="fill:none; stroke:#000; stroke-linecap:round; stroke-linejoin:round; stroke-width:1.02px;"/><line x1="140.78" y1="244.56" x2="140.78" y2="238.92" style="fill:none; stroke:#000; stroke-linecap:round; stroke-linejoin:round; stroke-width:1.02px;"/><line x1="113.54" y1="244.56" x2="113.54" y2="238.92" style="fill:none; stroke:#000; stroke-linecap:round; stroke-linejoin:round; stroke-width:1.02px;"/><line x1="150.62" y1="224.16" x2="150.62" y2="269.22" style="fill:none; stroke:#000; stroke-linecap:round; stroke-linejoin:round; stroke-width:1.02px;"/><path d="M148.85,271.02c1.01,0,1.83-.82,1.83-1.83" style="fill:none; stroke:#000; stroke-linecap:round; stroke-linejoin:round; stroke-width:1.02px;"/><line x1="148.82" y1="271.08" x2="105.56" y2="271.08" style="fill:none; stroke:#000; stroke-linecap:round; stroke-linejoin:round; stroke-width:1.02px;"/><path d="M103.76,269.19c0,1.01,.82,1.83,1.83,1.83" style="fill:none; stroke:#000; stroke-linecap:round; stroke-linejoin:round; stroke-width:1.02px;"/><line x1="103.7" y1="269.22" x2="103.7" y2="224.16" style="fill:none; stroke:#000; stroke-linecap:round; stroke-linejoin:round; stroke-width:1.02px;"/><path d="M105.59,222.3c-1.01,0-1.83,.82-1.83,1.83" style="fill:none; stroke:#000; stroke-linecap:round; stroke-linejoin:round; stroke-width:1.02px;"/><line x1="105.56" y1="222.3" x2="148.82" y2="222.3" style="fill:none; stroke:#000; stroke-linecap:round; stroke-linejoin:round; stroke-width:1.02px;"/><path d="M150.68,224.13c0-1.01-.82-1.83-1.83-1.83" style="fill:none; stroke:#000; stroke-linecap:round; stroke-linejoin:round; stroke-width:1.02px;"/><polyline points="61.64 335.16 61.64 128.04 61.64 94.2 61.64 9.12" style="fill:none; stroke:#000; stroke-linecap:round; stroke-linejoin:round; stroke-width:1.02px;"/><polyline points="61.64 94.2 191.84 94.2 191.84 37.5" style="fill:none; stroke:#000; stroke-linecap:round; stroke-linejoin:round; stroke-width:1.02px;"/><path d="M191.84,37.47c0-15.66-12.69-28.35-28.35-28.35" style="fill:none; stroke:#000; stroke-linecap:round; stroke-linejoin:round; stroke-width:1.02px;"/><line x1="127.16" y1="9.12" x2="163.46" y2="9.12" style="fill:none; stroke:#000; stroke-linecap:round; stroke-linejoin:round; stroke-width:1.02px;"/><path d="M116.54,19.71c0,5.88,4.77,10.65,10.65,10.65s10.65-4.77,10.65-10.65-4.77-10.65-10.65-10.65-10.65,4.77-10.65,10.65" style="fill:none; stroke:#000; stroke-linecap:round; stroke-linejoin:round; stroke-width:1.02px;"/><line x1="61.64" y1="9.12" x2="127.16" y2="9.12" style="fill:none; stroke:#000; stroke-linecap:round; stroke-linejoin:round; stroke-width:1.02px;"/><polyline points="191.84 94.2 191.84 128.04 61.64 128.04" style="fill:none; stroke:#000; stroke-linecap:round; stroke-linejoin:round; stroke-width:1.02px;"/><path d="M142.1,326.61c0,4.69,3.8,8.49,8.49,8.49" style="fill:none; stroke:#000; stroke-linecap:round; stroke-linejoin:round; stroke-width:1.02px;"/><line x1="142.04" y1="326.64" x2="142.04" y2="324.54" style="fill:none; stroke:#000; stroke-linecap:round; stroke-linejoin:round; stroke-width:1.02px;"/><path d="M142.1,324.51c0-8.23-6.68-14.91-14.91-14.91s-14.91,6.68-14.91,14.91" style="fill:none; stroke:#000; stroke-linecap:round; stroke-linejoin:round; stroke-width:1.02px;"/><line x1="112.28" y1="324.54" x2="112.28" y2="326.64" style="fill:none; stroke:#000; stroke-linecap:round; stroke-linejoin:round; stroke-width:1.02px;"/><path d="M103.79,335.1c4.69,0,8.49-3.8,8.49-8.49" style="fill:none; stroke:#000; stroke-linecap:round; stroke-linejoin:round; stroke-width:1.02px;"/><line x1="103.76" y1="335.16" x2="61.64" y2="335.16" style="fill:none; stroke:#000; stroke-linecap:round; stroke-linejoin:round; stroke-width:1.02px;"/><line x1="163.46" y1="335.16" x2="150.56" y2="335.16" style="fill:none; stroke:#000; stroke-linecap:round; stroke-linejoin:round; stroke-width:1.02px;"/><path d="M163.49,335.1c15.66,0,28.35-12.69,28.35-28.35" style="fill:none; stroke:#000; stroke-linecap:round; stroke-linejoin:round; stroke-width:1.02px;"/><line x1="191.84" y1="128.04" x2="191.84" y2="306.78" style="fill:none; stroke:#000; stroke-linecap:round; stroke-linejoin:round; stroke-width:1.02px;"/><line x1="103.76" y1="335.16" x2="127.16" y2="335.16" style="fill:none; stroke:#000; stroke-linecap:round; stroke-linejoin:round; stroke-width:1.02px;"/><path d="M137.84,324.51c0-5.88-4.77-10.65-10.65-10.65s-10.65,4.77-10.65,10.65,4.77,10.65,10.65,10.65,10.65-4.77,10.65-10.65" style="fill:none; stroke:#000; stroke-linecap:round; stroke-linejoin:round; stroke-width:1.02px;"/><line x1="127.16" y1="335.16" x2="150.56" y2="335.16" style="fill:none; stroke:#000; stroke-linecap:round; stroke-linejoin:round; stroke-width:1.02px;"/></g><g><g><polyline points="38.72 284.59 92.74 284.59 96.97 280.36" style="fill:none; stroke:#000; stroke-miterlimit:10;"/><polygon points="97.44 282.85 101.48 275.85 94.48 279.89 97.44 282.85"/></g><text transform="translate(19.38 288.15)" style="font-family:ArialMT, Arial; font-size:14px;"><tspan x="0" y="0">P1</tspan></text></g><g><polyline points="151.2 213.75 161.17 203.79 205.2 203.79" style="fill:none; stroke:#000; stroke-miterlimit:10;"/><polygon points="154.66 214.41 144.94 220.02 150.55 210.3 154.66 214.41"/></g><g><polyline points="101.01 212.75 91.04 202.79 47.01 202.79" style="fill:none; stroke:#000; stroke-miterlimit:10;"/><polygon points="101.66 209.3 107.27 219.02 97.55 213.41 101.66 209.3"/></g><text transform="translate(.02 197.07)" style="font-family:ArialMT, Arial; font-size:14px;"><tspan x="0" y="0">Activity</tspan><tspan x="4.65" y="16.8">Status</tspan></text><text transform="translate(209.71 198.8)" style="font-family:ArialMT, Arial; font-size:14px;"><tspan x="0" y="0">Link</tspan><tspan x="0" y="16.8">Status</tspan></text></svg>