<?xml version="1.0" encoding="UTF-8"?><svg id="Layer_1" xmlns="http://www.w3.org/2000/svg" viewBox="0 0 385.7 361"><polygon points="104.95 .5 104.95 360.5 329.95 360.5 329.95 .5 149.95 .5 104.95 .5" style="fill:none; stroke:#1d1d1b; stroke-miterlimit:10;"/><rect x="99.95" y="55.5" width="10" height="50" style="fill:#fff; stroke:#1d1d1b; stroke-miterlimit:10;"/><text transform="translate(77.82 85.5)" style="fill:#1d1d1b; font-family:ArialMT, Arial; font-size:14px;"><tspan x="0" y="0">P1</tspan></text><g><rect x="249.95" y="20.5" width="55" height="320" style="fill:#1f90cf; opacity:.5; stroke:#1d1d1b; stroke-miterlimit:10;"/><text transform="translate(281.28 198.18) rotate(-90) scale(.97 1)" style="fill:#1d1d1b; font-family:ArialMT, Arial; font-size:14px;"><tspan x="0" y="0">BLOX</tspan></text></g><text/><g><g><line x1="129.95" y1="110.5" x2="129.95" y2="140.5" style="fill:none; stroke:#1d1d1b; stroke-miterlimit:10;"/><line x1="124.95" y1="130.5" x2="134.95" y2="130.5" style="fill:none; stroke:#1d1d1b; stroke-miterlimit:10;"/><polygon points="129.95 130.5 134.95 120.5 124.95 120.5 129.95 130.5" style="fill:#1d1d1b; stroke:#1d1d1b; stroke-miterlimit:10;"/></g><g><line x1="119.95" y1="120.5" x2="114.33" y2="126.11" style="fill:none; stroke:#1d1d1b; stroke-miterlimit:10;"/><polygon points="113.87 123.7 109.94 130.5 116.75 126.57 113.87 123.7" style="fill:#1d1d1b;"/></g><g><line x1="119.95" y1="125.5" x2="114.33" y2="131.11" style="fill:none; stroke:#1d1d1b; stroke-miterlimit:10;"/><polygon points="113.87 128.7 109.94 135.5 116.75 131.57 113.87 128.7" style="fill:#1d1d1b;"/></g></g><g><path d="M139.95,60.5c4.14,0,7.5,2.98,7.5,6.67s-3.36,6.67-7.5,6.67" style="fill:none; stroke:#1d1d1b; stroke-miterlimit:10;"/><path d="M139.95,73.83c4.14,0,7.5,2.98,7.5,6.67s-3.36,6.67-7.5,6.67" style="fill:none; stroke:#1d1d1b; stroke-miterlimit:10;"/><path d="M139.95,87.17c4.14,0,7.5,2.98,7.5,6.67s-3.36,6.67-7.5,6.67" style="fill:none; stroke:#1d1d1b; stroke-miterlimit:10;"/></g><g><path d="M169.95,100.5c-4.14,0-7.5-2.98-7.5-6.67s3.36-6.67,7.5-6.67" style="fill:none; stroke:#1d1d1b; stroke-miterlimit:10;"/><path d="M169.95,87.17c-4.14,0-7.5-2.98-7.5-6.67s3.36-6.67,7.5-6.67" style="fill:none; stroke:#1d1d1b; stroke-miterlimit:10;"/><path d="M169.95,73.83c-4.14,0-7.5-2.98-7.5-6.67s3.36-6.67,7.5-6.67" style="fill:none; stroke:#1d1d1b; stroke-miterlimit:10;"/></g><line x1="152.45" y1="60.5" x2="152.45" y2="100.5" style="fill:none; stroke:#1d1d1b; stroke-miterlimit:10;"/><line x1="157.45" y1="60.5" x2="157.45" y2="100.5" style="fill:none; stroke:#1d1d1b; stroke-miterlimit:10;"/><line x1="109.95" y1="80.5" x2="139.95" y2="80.5" style="fill:none; stroke:#1d1d1b; stroke-miterlimit:10;"/><line x1="169.95" y1="80.5" x2="249.95" y2="80.5" style="fill:none; stroke:#1d1d1b; stroke-miterlimit:10;"/><g><g><line x1="129.95" y1="20.5" x2="129.95" y2="50.5" style="fill:none; stroke:#1d1d1b; stroke-miterlimit:10;"/><line x1="124.95" y1="40.5" x2="134.95" y2="40.5" style="fill:none; stroke:#1d1d1b; stroke-miterlimit:10;"/><polygon points="129.95 40.5 134.95 30.5 124.95 30.5 129.95 40.5" style="fill:#1d1d1b; stroke:#1d1d1b; stroke-miterlimit:10;"/></g><g><line x1="119.95" y1="30.5" x2="114.33" y2="36.11" style="fill:none; stroke:#1d1d1b; stroke-miterlimit:10;"/><polygon points="113.87 33.7 109.94 40.5 116.75 36.57 113.87 33.7" style="fill:#1d1d1b;"/></g><g><line x1="119.95" y1="35.5" x2="114.33" y2="41.11" style="fill:none; stroke:#1d1d1b; stroke-miterlimit:10;"/><polygon points="113.87 38.7 109.94 45.5 116.75 41.57 113.87 38.7" style="fill:#1d1d1b;"/></g></g><line x1="144.95" y1="35.5" x2="249.95" y2="35.5" style="fill:none; stroke:#1d1d1b; stroke-miterlimit:10;"/><line x1="144.95" y1="125.5" x2="249.95" y2="125.5" style="fill:none; stroke:#1d1d1b; stroke-miterlimit:10;"/><text transform="translate(26.46 30.5)" style="fill:#1d1d1b; font-family:ArialMT, Arial; font-size:14px;"><tspan x="0" y="0">Link/Green</tspan></text><text transform="translate(.02 130.5)" style="fill:#1d1d1b; font-family:ArialMT, Arial; font-size:14px;"><tspan x="0" y="0">Activity/Orange</tspan></text></svg>