<?xml version="1.0" encoding="UTF-8"?><svg id="Layer_1" xmlns="http://www.w3.org/2000/svg" viewBox="0 0 385.76 361"><polygon points="105 .5 105 360.5 330 360.5 330 .5 150 .5 105 .5" style="fill:none; stroke:#1d1d1b; stroke-miterlimit:10;"/><g><rect x="250" y="20.5" width="55" height="320" style="fill:#1f90cf; opacity:.5; stroke:#1d1d1b; stroke-miterlimit:10;"/><text transform="translate(281.34 198.18) rotate(-90) scale(.97 1)" style="fill:#1d1d1b; font-family:ArialMT, Arial; font-size:14px;"><tspan x="0" y="0">BLOX</tspan></text></g><text/><rect x="130" y="225.5" width="95" height="80" style="fill:none; stroke:#000; stroke-miterlimit:10;"/><line x1="105" y1="265.5" x2="130" y2="265.5" style="fill:none; stroke:#1d1d1b; stroke-miterlimit:10;"/><line x1="105" y1="240.5" x2="130" y2="240.5" style="fill:none; stroke:#1d1d1b; stroke-miterlimit:10;"/><line x1="105" y1="290.5" x2="130" y2="290.5" style="fill:none; stroke:#1d1d1b; stroke-miterlimit:10;"/><line x1="225" y1="265.5" x2="250" y2="265.5" style="fill:none; stroke:#1d1d1b; stroke-miterlimit:10;"/><text transform="translate(145.12 260.5)" style="fill:#1d1d1b; font-family:ArialMT, Arial; font-size:14px;"><tspan x="0" y="0" style="letter-spacing:-.07em;">L</tspan><tspan x="6.75" y="0">TE Cat. 4 </tspan><tspan x="11.54" y="16.8">modem</tspan></text><text transform="translate(70.88 295.5)" style="fill:#1d1d1b; font-family:ArialMT, Arial; font-size:14px;"><tspan x="0" y="0">Aux</tspan></text><text transform="translate(55.32 270.5)" style="fill:#1d1d1b; font-family:ArialMT, Arial; font-size:14px;"><tspan x="0" y="0">GNSS</tspan></text><text transform="translate(64.66 245.5)" style="fill:#1d1d1b; font-family:ArialMT, Arial; font-size:14px;"><tspan x="0" y="0">Main</tspan></text></svg>